<mxfile host="app.diagrams.net" agent="Mozilla/5.0 (Windows NT 10.0; Win64; x64) AppleWebKit/537.36 (KHTML, like Gecko) Chrome/128.0.0.0 Safari/537.36" version="24.7.12">
  <diagram name="Strona-1" id="gNTSnFc4eZ_TNEaYBHLB">
    <mxGraphModel dx="1434" dy="746" grid="1" gridSize="10" guides="1" tooltips="1" connect="1" arrows="1" fold="1" page="1" pageScale="1" pageWidth="827" pageHeight="1169" math="0" shadow="0">
      <root>
        <mxCell id="0" />
        <mxCell id="1" parent="0" />
        <mxCell id="vH1DzTLoHbvqbGa9TRak-45" value="" style="whiteSpace=wrap;html=1;aspect=fixed;strokeWidth=0;" parent="1" vertex="1">
          <mxGeometry width="820" height="820" as="geometry" />
        </mxCell>
        <mxCell id="vH1DzTLoHbvqbGa9TRak-32" value="" style="rounded=0;whiteSpace=wrap;html=1;" parent="1" vertex="1">
          <mxGeometry x="140" y="30" width="670" height="590" as="geometry" />
        </mxCell>
        <mxCell id="vH1DzTLoHbvqbGa9TRak-3" value="" style="rounded=0;whiteSpace=wrap;html=1;" parent="1" vertex="1">
          <mxGeometry x="270" y="80" width="120" height="60" as="geometry" />
        </mxCell>
        <mxCell id="vH1DzTLoHbvqbGa9TRak-2" value="" style="rounded=0;whiteSpace=wrap;html=1;" parent="1" vertex="1">
          <mxGeometry x="250" y="100" width="120" height="60" as="geometry" />
        </mxCell>
        <mxCell id="vH1DzTLoHbvqbGa9TRak-1" value="Student" style="rounded=0;whiteSpace=wrap;html=1;" parent="1" vertex="1">
          <mxGeometry x="230" y="120" width="120" height="60" as="geometry" />
        </mxCell>
        <mxCell id="vH1DzTLoHbvqbGa9TRak-7" value="" style="rounded=0;whiteSpace=wrap;html=1;" parent="1" vertex="1">
          <mxGeometry x="230" y="480" width="120" height="60" as="geometry" />
        </mxCell>
        <mxCell id="vH1DzTLoHbvqbGa9TRak-8" value="" style="rounded=0;whiteSpace=wrap;html=1;" parent="1" vertex="1">
          <mxGeometry x="210" y="500" width="120" height="60" as="geometry" />
        </mxCell>
        <mxCell id="vH1DzTLoHbvqbGa9TRak-9" value="Course" style="rounded=0;whiteSpace=wrap;html=1;" parent="1" vertex="1">
          <mxGeometry x="190" y="520" width="120" height="60" as="geometry" />
        </mxCell>
        <mxCell id="vH1DzTLoHbvqbGa9TRak-10" value="" style="rounded=0;whiteSpace=wrap;html=1;" parent="1" vertex="1">
          <mxGeometry x="590" y="260" width="120" height="60" as="geometry" />
        </mxCell>
        <mxCell id="vH1DzTLoHbvqbGa9TRak-11" value="" style="rounded=0;whiteSpace=wrap;html=1;" parent="1" vertex="1">
          <mxGeometry x="570" y="280" width="120" height="60" as="geometry" />
        </mxCell>
        <mxCell id="vH1DzTLoHbvqbGa9TRak-12" value="Classrom" style="rounded=0;whiteSpace=wrap;html=1;" parent="1" vertex="1">
          <mxGeometry x="550" y="300" width="120" height="60" as="geometry" />
        </mxCell>
        <mxCell id="vH1DzTLoHbvqbGa9TRak-13" value="" style="shape=cylinder3;whiteSpace=wrap;html=1;boundedLbl=1;backgroundOutline=1;size=15;" parent="1" vertex="1">
          <mxGeometry x="450" y="90" width="60" height="80" as="geometry" />
        </mxCell>
        <mxCell id="vH1DzTLoHbvqbGa9TRak-14" value="" style="endArrow=classic;html=1;rounded=0;entryX=0;entryY=0.5;entryDx=0;entryDy=0;entryPerimeter=0;" parent="1" source="vH1DzTLoHbvqbGa9TRak-2" target="vH1DzTLoHbvqbGa9TRak-13" edge="1">
          <mxGeometry width="50" height="50" relative="1" as="geometry">
            <mxPoint x="360" y="260" as="sourcePoint" />
            <mxPoint x="410" y="210" as="targetPoint" />
          </mxGeometry>
        </mxCell>
        <mxCell id="vH1DzTLoHbvqbGa9TRak-15" value="" style="shape=cylinder3;whiteSpace=wrap;html=1;boundedLbl=1;backgroundOutline=1;size=15;" parent="1" vertex="1">
          <mxGeometry x="740" y="270" width="60" height="80" as="geometry" />
        </mxCell>
        <mxCell id="vH1DzTLoHbvqbGa9TRak-16" value="" style="endArrow=classic;html=1;rounded=0;exitX=1;exitY=0.5;exitDx=0;exitDy=0;entryX=0;entryY=0.5;entryDx=0;entryDy=0;entryPerimeter=0;" parent="1" source="vH1DzTLoHbvqbGa9TRak-11" target="vH1DzTLoHbvqbGa9TRak-15" edge="1">
          <mxGeometry width="50" height="50" relative="1" as="geometry">
            <mxPoint x="790" y="185" as="sourcePoint" />
            <mxPoint x="840" y="135" as="targetPoint" />
          </mxGeometry>
        </mxCell>
        <mxCell id="vH1DzTLoHbvqbGa9TRak-17" value="" style="shape=cylinder3;whiteSpace=wrap;html=1;boundedLbl=1;backgroundOutline=1;size=15;" parent="1" vertex="1">
          <mxGeometry x="380" y="490" width="60" height="80" as="geometry" />
        </mxCell>
        <mxCell id="vH1DzTLoHbvqbGa9TRak-18" value="" style="endArrow=classic;html=1;rounded=0;exitX=1;exitY=0.5;exitDx=0;exitDy=0;" parent="1" source="vH1DzTLoHbvqbGa9TRak-8" target="vH1DzTLoHbvqbGa9TRak-17" edge="1">
          <mxGeometry width="50" height="50" relative="1" as="geometry">
            <mxPoint x="90" y="395" as="sourcePoint" />
            <mxPoint x="140" y="345" as="targetPoint" />
          </mxGeometry>
        </mxCell>
        <mxCell id="vH1DzTLoHbvqbGa9TRak-20" value="" style="shape=image;verticalLabelPosition=bottom;labelBackgroundColor=default;verticalAlign=top;aspect=fixed;imageAspect=0;image=data:image/png,iVBORw0KGgoAAAANSUhEUgAABAAAAAQACAYAAAB/HSuDAAAABGdBTUEAALGPC/xhBQAAACBjSFJNAAB6JgAAgIQAAPoAAACA6AAAdTAAAOpgAAA6mAAAF3CculE8AAAABmJLR0QA/wD/AP+gvaeTAAAAB3RJTUUH6AcVFAIIxOap7gAAgABJREFUeNrs3Xt8XHWd//H350wmbWkKLSAVhDaZmUxawr2gKIpV8bKKipfgirZNpiUogrDrBbytQf0pqOtyWVECTdKi6FKvi5dVq1SgCmIBC6XNdDJJSy1ybaH3TOZ8fn9QEBToLclczuv5eOzjsQ/FkPPOd2bO5z3fc44EAAAAAAAAAAAAAAAAAAAAAAAAAAAAAAAAAAAAAAAAAAAAAAAAAAAAAAAAAAAAAAAAAAAAAAAAAAAAAAAAAAAAAAAAAAAAAAAAAAAAAAAAAAAAAAAAAAAAAAAAAAAAAAAAAAAAAAAAAAAAAAAAAAAAAAAAAAAAAAAAAAAAAAAAAAAAAAAAAAAAAAAAAAAAAAAAAAAAAAAAAAAAAAAAAAAAAAAAAAAAAAAAAAAAAAAAAAAAAAAAAAAAAAAAAAAAAAAAAAAAAAAAAAAAAAAAAAAAAAAAAAAAAAAAAAAAAAAAAAAAAAAAAAAAAAAAAAAAAAAAAAAAAAAAAAAAAAAAAAAAAAAAAAAAAAAAAAAAAAAAAAAAAAAAAAAAAAAAAAAAAAAAAAAAAAAAAAAAAAAAAAAAAAAAAAAAAAAAAAAAAAAAAAAAAAAAAAAAAAAAAAAAAAAAAAAAAAAAAAAAAAAAAAAAAAAAAAAAAAAAAAAAAAAAAAAAAAAAAAAAAAAAAAAAAAAAAAAAAAAAAAAAAAAAAAAAAAAAAAAAAAAAAAAAAAAAAAAAAAAAAAAAAAAAAAAAAAAAAAAAAAAAAAAAAAAAAAAAAAAAAAAAAAAAAAAAAAAAAAAAAAAAAAAAAAAAAAAAAAAAAAAAAAAAAAAAAAAAAAAAAAAAAAAAAAAAAAAAAAAAAAAAAAAAAAAAAAAAAAAAAAAAAAAAAAAAAAAAAAAAAAAAAAAAAAAAAAAAAAAAAAAAAAAAAAAAAAAAAAAAAAAAAAAAAAAAAAAAAAAAAAAAAAAAAAAAAAAAAAAAAAAAAAAAAAAAAAAAAAAAAAAAAAAAAAAAAAAAAAAAAAAAAAAAYDcYEQAAUH6fz0dPOWvijrFjJwXF4iSXxrrHxsnCOgsVd2mimdVIvr/Lxki2n8zHK1TtMz8h0ETJnvM5b+5jXRr3DycC29xs+3P+7aGHkp541s8alNsWybeafIdkT7r7kEkbPVBBHmw2K24rWrAtCGzjmO3bN9y79oaNkpw/JQAAFAAAAERCc/O5ddu373hpXOEhofwQ9+ClpnCyyyaZa6KkiRZoou/8/3f+3wFVcvhPSNooaaOZNnr41P/vpo0mPe6yh83CvwWyhwsKHh6/efDB5Q9dv4VVAwAABQAAAGXjsMPa9xsfD6d6EB4Rs/BwVzBF5i9z6RCTDpHrpSYd4tJ+pLVHJyZbXXrYXA+GgR4x2UPy8K8mPRC6HlBYs25LIVizfn3nVtICAIACAACAfZZOtx8cDg6mYmYpl09xs8NNOkLyKZIdLulAUiqpxyVfJ9nap/7P15lsbRh6zmrjfdls56NEBAAABQAAAJKko6ecNakQjyc8tIRMCXdLyKxZ8mY9tRUflWu7pLzMVsiVlykvV141ymezUwakjpCIAAAUAAAAVJWWWDK5f0NN6Ee66cinhnubLvk0SePJJ5K2SLZKpvvlut9c9xdjxRW5XEM/xQAAgAIAAIAK+ExLJucmY/KjFYbTzazZXdNlmi5pLPFgN2yTa5Wb32+yFTJfGZrfm8styIsnGgAAKAAAABh9M2d21Kxb198UeGyGfOe3+q5XynQQ6WAEbJJsubkv88BWyHV/GIy/M5e7agfRAAAoAAAAGCap1PljbGjzcUGgE9zseLkfL+loSWNIByW0XdJ9ct3lZncr9Lu9pu4eSgEAAAUAAAC7qemIzGHFmnBGYMEpkl4t+QyxhR+VYUhSVq7bFNjS0IrLcrkF94vLBwAAFAAAgKhrbj63rrBt+3GmcIZbcIrcT5U0mWRQRZ6QdKdkS0MPl40pxJauWDf/cWIBAFAAAACqWir1gf2DcMzLJZ2mp77df7mkOMkgQoqSeuW6zeSLPV57czbb+SixAAAoAAAAFa2hYd7kmIZevnM7/2mSHy8pIBngWVx5SYsV2NIhH1qSzy9cSygAAAoAAEBZSyZnHRJ4zRtM/gaXnWpSI6kAe3x6lpX5LZL/NjT7bS7X/QiZAAAoAAAAJVVf3zq2Ngherae29PMNPzASXHmTfuZmNw2G4W0DAz3bCQUAQAEAABhx6XQmoeLOgd/9LZImkAowarZJWmryxWa+eFXfgrvEUwYAABQAAIDhkEp9YP9YsfZNLp0u079IOoRUgLLxkEm/CGU/D+L6dW9v1yYiAQBQAAAAdlvT1HkNXhO+Ue5vl/RGSWNIBSh7RcluN4U3hcWa/1295rqVRAIAoAAAAPyDlti05H7HhR57u6TTJZ9BJkCFe9a9AyZMqvn9smWdBUIBAAoAAEAE1de3jh1jwZtc/h6ZvV3ySaQCVK3H5boplP9wyPUbbiQIABQAAIAqd/jhLePGxsefFgRBi9zfKWl/UgEid/K31aXfyWyR1ejH3DcAACgAAABVor6+deIY0xs9CN4u93dJqiMVADttl7RYZouGvOan+XznE0QCABQAAIAK0tx8bt3Q1m1nuOn9kk6TVEsqAHZhh+SLTcH3xmwp/GT5Q9dvIRIAoAAAAJSlllg6MeF1Ms3mm34A+2i7pMXmvrBmvy0/XbFi0SCRAAAFAACgpDqCdGLtq8y9xU3/KukQMgEwzKeLG2T6mVwLs/mu30pyMgEACgAAwCiZlmg9uij7oEnvl3QEiQAYpRPHtS77XszsOyv75t9HIgBAAQAAGAGJRPsBNTb0PrlmS34KiQAosftNvtBraudns52PEgcAUAAAAPZJR5BOrH29TLPN/T0u7UcmAMrMDpn9bxiG1x8+tf6XS5Z0DBEJAFAAAAB2UzLZdkSN+1kunSNZA4kAqBB/lew7RbPr+vrm54gDACgAAADPI5U6f0ws3PJeV9gu2Wt4jwZQwdxMt4Suazyo+1Eud9UOIgEACgAAYPBPzUkGYexsyTOSXkIiAKrMRnMt9Lhdkc125YkDACgAACBinrm2v13u75YUIxMAVS6U9Dtz7zx0av2PuVcAAFAAAEBVa65vfelQoDku+7CkqSQCIJr8QSlYOKShq/P5hWvJAwAoAACgakxLtr0qlF0o9zMkxUkEACRJBZl+HEhXrOrr/gNxAAAFAABUpBkz2uObHx88w80ulPQqEgGAFz0pvcvNrpgwseZ7y5Z1FkgEACgAAKDsJRLtB8Q12Oqyj0k6gkQAYI/8TbJrVFPz39ls56PEAQAUAABQdqYlZqfdYx+RaZ5L+5EIAOyTHTK7MfDwa6vyPfcSBwBQAABAyTU2tL7RzD4h6TTeVwFg2LnJf+Pyr2bzC35LHABAAQAAo6wjSDUMvC0w+4ykV5AHAIyKe2T2X9m+Td+VFhWJAwAoAABgxDQ3t9QWtk/4V7l/StI0EgGAEnDlzfzKLYNbOtetW7SNQACAAgAAhk1TU2aCCmHGZZ+Q9DISAYCy8LBk3xoztP2Ke9fesIE4AIACAAD2WkPDvMk1Vvx3kz4kaX8SAYCy9ITk3ypa8b/6+q5/mDgAgAIAAHZbKtX2kiC0j5n8fO7oDwAVY4u55gdh/NKVazofJA4AoAAAAAZ/AKhuO+RaYEN2Se8DXeuJAwAoAADgGcnkrENiHv93yT8qaRyJAED1FAGKF7+QzS78K3EAoAAAAAZ/Bn8AqG6DcvVQBACgAACACEql2l5ioX/aZB+WNIZEACAStkt2tWpqvpLNdj5KHAAoAACgijU3n1s3tG3rR1z2KUkHkAgARNJmyb45pJqv5POdTxAHAAoAAKiqwb+ltrB9QqvcvyBpMokAAOR6zMy/tmVwy5Xr1i3aRiAAKAAAoKJ1BE0NA+9x02WSNZAHAOB5rJPZFw87YkrXkiUdQ8QBgAIAACrs/a2pIdPipi9KniYOAMBu6DX3z/X29/xAkhMHAAoAAChzjfVtr7DA/lPyU0gDALAX7nQPPr66f/4tRAGAAgAAylAiMXtKjdV8Se4f5P0NADAMfhYG4YW53II+ogBAAQAAZeDoKWdN2lEz9iLJLxSP9AMADK+CXN1hTJ/N5bofIQ4AFAAAUAIzZrTHN20capP7lyS9hEQAACPocZN/tRhMuDyXu2oHcQCgAACAUdKYyLzH5JdKSpEGAGC0uLTazD+Z7ev5CWkAoAAAgBE0LTE7XbTYleZ6M2kAAEro5pgFH13ZN/8+ogBAAQAAw+iYybPGbx8f/4Tkn5JUSyIAgDJQMNe3irHBz+Vy332SOABQAADAPr5PpZOZWXK/TNJLiQMAUIb+JrPPZ/umXCd1hMQBgAIAAPZQKjX3+CD0qyQ/hTQAABXgTg91/uqB7juIAgAFAADshqOnnDVpMDamw00fkRQjEQBABQll9t3Q/GM8NhBAueHEGkA5sXQyM7sYxG6S6fWSAiIBAFTaZ5mkY81t3kEHHr/hsQ1330UkAMrpDQoASm56orWxKLta0mmkAQCoHn5LGNiHc7nu+8kCAAUAgEibMaM9vnnD4L+77BJJY0gEAFCFCpJ9YzAMOwYGerYTBwAKAACRk6pve20Q6NuSppEGACACcu5+7ur+nt8QBQAKAACR0Hz43AML8fArMp3N+xAAIHpn4LaoqMJ5fX3XP0wYACgAAFStdLJtjlzfkHQgaQAAIsv1mOT/lu3vuZ4wAFAAAKgq06e2H1oMCt+S6Z2kAQDAM35ZNJ3T19f9AFEAGGk8BhDAiGtqaG0Jg/AXMh1PGgAAPEdjIGUOOvCEx3lkIICRxg4AACNmWn1rfRhYp6Q3kgYAALvitxQtNrevb36OLACMBHYAABgJlk5m2t30Y0nTiQMAgN36+Jwak887eNJxxcc2nPFHaYmTCYBhfZchAgDDKZWak4x5MN9dryUNAAD2jruWeCycl8st6CMNAMOFHQAAhk06mZltbjdJSpMGAAB7z0z15nb2wZOO2/zYhnv+RCIAhuW9hQgA7KuGhnmTa4Jip7neQRoAAAwvN/0qGLRM7wNd60kDAAUAgJJpTGTeY/JvSzqYNAAAGDEbXf6R1fmeG4gCAAUAgFGVSn1g/6BY+zWZ2kkDAIDROnu3RWMK28+5d+0NGwgDAAUAgBE3Ldn2qtC1UFKSNAAAGPUT+LUya+3t67qZNABQAAAYEanU+WOCcMuXJb9QUkAiAACUTGimbxSt7rO53FU7iAMABQCAYdPUkGly+fdkOp40AAAom5P5u0zF96/KL8ySBoBd4TGAAHYpnczMlvynMk0lDQAAysqhrmDezscF3kEcAF4MOwAAvKCmpsyEsBB+y2QfIA0AAMqbSz8ohH72wEDPRtIAQAEAYPeH/0TmRJd/T1KKNAAAqBhrAtNZq/q6/0AUAP4RlwAA+EfWlGi9wKXvS3oJcQAAUFEmujTnoEknxB7b8M5bpCVOJACeOdEnAgBPSyZnHVLjsetd9ibSAACgsrnpV26alct1P0IaACgAADwjnWg9SbJFEjf6AwCgivzVLHxfb9+CpUQBgEsAACidzLRL+qGkA0kDAICqsr9ksw+edNzgYxvu4b4AQMSxAwCIsKamzAQf0ny5t5AGAABVzvXTQfdWnhIAUAAAiJjG+tbjLLBF4i7/AABEqAPQ6sCL7+3tX7icNIDoCYgAiJ50MjM7CGwpwz8AANFiUqNb7I50Q+vZpAFE8j0AQFTU17eOHRPY1S61kQYAAFHn8wdDnTcw0LOdLAAKAABVJJ2e/TINBT+S7OWkAQAAnuoAdHdMwbtW9s9fQxhA9eMSACACmpJzTtFQ7M8M/wAA4DlMxxctvHNaqnUmYQDVj8cAAlUuncy0y+1/JB1AGgAA4HmMd7cP7nxU4FLiAKoXlwAAVaq5uaW2sH3Cf8udm/wAAIDd4+qM77f5/BUrFg0SBkABAKACpFJtL7GibjTTTNIAAAB76A+xYvy9K9d0PkgUAAUAgPIe/k+IhfqxS1NIAwAA7OWUsN6Levfqge47CAOoHtwEEKgiTQ2tLUGo2xj+AQDAPnEdZoF+39TQ9kHCAKoHNwEEqoM1JVovcrNvS4oTBwAAGAY1Mr3roEknjHtsw92/JQ6gCoYGIgAqWyp1/pgg3HydJBp6AAAwQlODLdq6Y9OcdesWbSMMgAIAQAmk0+0Ha6jwI0mvIQ0AADDCk8PthTB2Rn//dQ8RBkABAGAUTU/OParo4U2S6kkDAACMknVhELwjl5t/N1EAlYebAAIVaFp925uLHt7G8A8AAEbZ4UEY3tKYaDudKIDKw00AgQrTmGw9X2YLJY0jDQAAUAK1Jr3voIknPPbYxrvvJA6AAgDA8LN0ItNh0mVi9w4AACitQKa3Hjzx+AMf23jGr6UlTiRABQwURACUv+bmltqhbXXdLp1FGgAAoJy49INC6LMGBnq2kwZAAQBgn4b/c+sGt2/7gbneTBoAAKBM3Tyk+Lvy+c4niAKgAACwF6ZPbT+0GCv8QtJxpAEAAMqZS/eFprf29XU/QBoABQCAPZBKtR0ZC/VLl6aQBgAAqJDpYr1Ce2u2v+svhAGUH24kBpTl8J95ZRDq9wz/AACgorgOk+nmVH3bawkDoAAAsAvpZOZdQei/k3QwaQAAgApsASYFgf4vnWw9gyyA8sJjAIEy0tTQ9kFJ35VUSxoAAKCC1UjWcvDEE/762Ma77yYOgAIAwLOkG9rOk+kaXpcAAKBKBDK9/aCJJ2x+bOPdfyQOgAIAgKSmROtFMvuGuDEnAACoLibTmw6adMK4xzbcvZg4AAoAINIfiulE2zck+xxRAACAKvbqgyadcMhjG975f9ISJw6gRMMHEQCl0hJrStRd61IbWQAAgIgMHzfUTYq3LlvWWSANgAIAiIRU6vwxQbj5BknvJg0AABAxP9s6uPnMdesWbSMKgAIAqGrHTJ41fvv4mv+V9HrSAAAAER1Dfjt2S+Gdyx+6fgtZABQAQDUP/zdJeh1pAACAiLvN4vbW3t6uTUQBUAAAVSWRaD+gRoVfSHoVaQAAAEiS/jxmaMeb7l17wwaiACgAgKpQX986sTZmv5TrZNIAAAB4zkiyLKgdevOqVQsfIwtgZAVEAIyso6ecNak20K8Y/gEAAJ6PzwgHY4vT6faDyQIYWewAAEZQKtX2kiDUbyQdSxoAAAAvOpmsjA3F37ByTeeDhAFQAAAVJZmcdUjMaxZLOpo0AAAAdssqK9gbeh/oWk8UAAUAUEnD/82SjiQNAACAPSsBCh6b2d9/3UNEAQwv7gEADLOjp5w1qcZrfsnwDwAAsFemxa24pKFh3mSiAIYXOwCAYVRf3zqxNggWSz6DNAAAAPaFLw9qw9fzdABg+LADABgmiUT7AbWB/ZrhHwAAYDjYMeFgbHHz4XMPJAuAAgAoG8dMnjW+RoWbJJ1EGgAAAMPmuEJt+ItU6gP7EwVAAQCU3GGHte+3o67m55JeQxoAAADD7hVBWPvLpqbMBKIAKACAkg7/dWMLP3PXa0kDAABgxLzKC/6L5uZz64gC2HvcBBDYS6nU+WOCcPNNkt5IGgAAAKMxvPivi8GEd+RyV+0gDWDPsQMA2CstscC3XM/wDwAAMHpc9qYg3PL9mTM7akgDoAAARoOlk3XflnsLUQAAAIx6DXDG+jVr5ovdzMAeixEBsGeakm1fk+s8kgAAACgR07EHTTzhwMc23v1LwgAoAIAR0Zhs+6xcnyUJAACAkpcArzho4nGFxzbecythABQAwLBqSrR9WNJ/kgQAAEC5lAD2hoMnnfDEYxvuvp0wAAoAYFg0JlrPkuw6ca0ZAABAuXnzgQeesObxDXffQxTAi2OYAXY5/M99myn8saQ4aQAAAJSlguRnZPM9vyAKgAIA2CtNicyJLl8iaTxpAAAAlLVtYWBvyOW6/kgUAAUAsEdSqTnJIAyWSppMGgAAABXh0UDFU1blF2aJAvhnAREA/yydbj84CGO/YPgHAACoKAeHHvtlQ8M8zuEACgBg1w47rH0/KxT+V/I0aQAAAFQYUyJuxZ8dM3kWl3ACFADAi2mJ1Y0p3OCmV5IFAABAxTpx+/jY/8yc2VFDFAAFAPC80okJV8r0TpIAAACodPa29Q+s+RY5AH8XIwLg6eE/0yH5J0gCAACgapxw8IEnhI9tuPsWogAoAABJUmMy02ry/yIJAACAqjPzoInH5R/beM9yokDU8RhARF46kXm15IsljSENAACAqlQIAn/TqlzPEqIABQAQUU1T5zV4rHiHpJeQBgAAQBVzPVYMgpP7+ubnCANRxU0AEVmp1Af291jxJoZ/AACACDAdFPPwpvr61omEAQoAIEJmzuyoCcLaH0pqJg0AAIDImFYb2I08HhBRxU0AEUnxoOG/TXofSQAAAEROctMTG1/22IZ7/pcoQAEAVLl0ou3fTPosSQAAAESVnXDwpOM2PrbhnjvIApFa+USAKGlMzH2bKfypKL8AAACirij5O7L5nl8QBSgAgCrT1JBpcvM7JB1AGgAAAJC0KQzCV+ZyC1YQBaKAmwAiGsN/U2aCm/+I4R8AAADPMiEIYz/iyQCgAACqRkfgBb9B0pFkAQAAgOfydDxm35dauEQUVY/HX6DqpRNrviTpdJIAAOB5/cHcLycGSJKbfULSSVE7bnO9uSlZd0lvHzeKRpWvdSJANWtMtL7bZD9grQMA8IKng9/P5rveTw6QpHQi82PJz4jo4bu5/Wtvf9eNrARUKy4BQNVqaph9jMkWMvwDAABgN5ibz5+WaD2aKEABAFSQ5sPnHugW+5Gk8aQBAACA3VQXyv43nW4/mChAAQBUhJZYodZvlJQkCwAAAOyhehsa/C43BQQFAFAB0onxX5L8DSQBAACAveGyNzU11HWQBCgAgDLWmJj7NskuIgkAAADsUwlg+kxTqu2dJAEKAKAMJRKzp5iHC8RN/wAAALDvzEPrbpo6r4EoQAEAlJFU6vwxNYr9UKaDSAMAAADDwyd5rPg/qdT5Y8gCFABAmbBw0+WSTiQJAAAADLOTAt/8dWIABQBQBtLJ1n812YdIAgAAACPCdV66oXUWQYACACihpoZMk9w6SQIAAAAjyuzqVKrtSIIABQBQAs3N59Z54D+WNIE0AAAAMMLqglA3HjN51niiAAUAMMoKW7f9t1zTSQIAAACjpHn7+NgVxAAKAGAUNTVkzpRpDkkAAABgdNncxkTrWeQACgBgFKTTmYSbX0sSAAAAKEkFILu6aeq8BpIABQAwgmbMaI+r6N+VtD9pAAAAoEQO8Fjxf5qbW2qJAhQAwAjZ/Pjg/5PrZJIAAABAiZ1U2FbXQQygAABGQKoh8yY3+xhJAAAAoExc1NjQ+kZiAAUAMIySyVmHBBb2sGYBAABQTvOUmV3fXN/6UqIABQAwPCxQzULJDiUKAAAAlJnJhcC6JBlRgAIA2EdNicwF5nozSQAAAKBM/Uu6oe0jxAAKAGAfNE6dN93lXyYJAAAAlDXT11KpOc0EAQoAYC/MnNlRY7HiAknjSAMAAABlbmwsDBbOmNEeJwpQAAB76MEH1nRIOokkAAAAUAlcOmHThqHPkAQoAIA90JTInOiuT5IEAAAAKqwG+ExjfdsryAEUAMBuOOyw9v1c+q4ktk8BAACg0tRYoO82N59bRxSgAAB2YfzYwf+UPE0SAAAAqFDJwrbtlxEDKACAF5FqyLzJZOeQBAAAACqbfzidaH0rOYACAHgeR085a1IQeLckIw0AAABUOJPZtfX1rROJAhQAwD/YERvzX3IdRhIAAACoCq7D4oH9J0GAAgB4lnQic5pMs0kCAAAA1cSkTFOy9S0kAQoAQFIq9YH9Je8SW/8BAABQhdztOi4FAAUAICnwMV+XdARJAAAAoEq9LB7oK8QACgBEWlOy7fVyn0cSAAAAqGYmO6exofWNJAEKAETSMZNnjXdXp9j6DwAAgAh0AGbW2dx8bh1RgAIAkbN9fPyrkpIkAQAAgIioH9y27UvEAAoAREpjw9xTJf8QSQAAACBKTDp/WrLtVSQBCgBEQnNzS61Z+C3WHwAAAKI4g4Wuzhkz2uNEAQoAVL3CtrqLJR1JEgAAAIio5k0bCh8nBlAAoKolk3NTkj5FEgAAAIi4z6VSc7gfFigAUL1iHn5L0liSAAAAQMSNi4V2NTGAAgBVKd3QOkvSaSQBAAAASC57U2Oi7f0kAQoAVJXmw+ceKLOvkwQAAADwdyb919FTzppEEqAAQNUo1Ba/KukQkgAAAACeY/JgzZivEAMoAFAV0onMqyXLkAQAAADwz1w6uyk55xSSAAUAKtrMmR01Lv+WJCMNAAAA4PnnMvfgWzNndtQQBSgAULEeXLv2PJOOIgkAAADgRR391wcGPkwMoABARUomZx3i8s+TBAAAALBr5val5vrWl5IEKABQcWIeu0zSRJIAAAAAdsv+hUBfIgZQAKCiNCUyJ0o2myQAAACAPWFtjfVtryAHUACgQnQErvCbrC8AAABgz2c0C+ybUgfn0qAAQPlLNwzMlezlJAEAQPkzeUgKQLnxGU0Na9vIARQAKGtHTzlrksz+H0kAAFC2NklabPKLJXtNzbjNDBlAOVYA5l+ur2+dSBIYTjxnEsNqR03tFyW9hCQAACgTpvVyu0Wu22KB/X5l3xH3Sx186w+Uv0PGmF0i6QKiwPB9JADDpHHqvOkWKy4XxRIAACXkD8qC2yQtDq24NJdbcL8kJxfsjnQi82PJzyCJsjEUBuFxudyCFUSB4cCghmFjseJ/sqYAABjteV95SYsV2NJYaL9f2T9/DaEA1TOvBWFwqaS3EwUoAFA2mpJtr3fXv5AEAAAjqijZPea+VPLbPF57czbb+SixAFXt9MaG1jeu7u/5DVGAAgBloCOQr/kaOQAAMOwKki2XtDj0cOmQ69aBge6NxAJEi5l9Teo4gft3gAIAJdfUsLbNpRNIAgCAfbZZ0u2SLZV022AY3jYw0L2dWIDIO7YxuXb26j71EAX2BTcBxD5pbj63rrBta1ayQ0kDAIA99rCkP5n8NlewdMKkmjuWLessEAtKhZsAlvXktn7s5qH08oeu30IY2FvsAMA+KWzb9gmGfwAAdtdTd+g3D5ea+W2r+hbcJe7QD2C33j502PbxNR+T9AXCwN5iBwD2WtMRmcM87llJ40kDAIDnPWHPK3hqO//OR/LxKC+UNXYAlP3wtnXINK2vr/sB0sDeYAcA9loY9y8awz8AAE8ryrXcTbdIdmtohVv78tc/TCwAhotL+8XcPy9pHmlgb7ADAHulqSHT5Ob3iRIJABBdQ5L95elH8tUUYr9dsW7+48SCSsYOgIpQDAMdk8t1308U2FMMb9grbrqU9QMAiBKTtrrsbkm3SVq8dXDT0nXrFm0jGQCjLBYL/QuS3ksUoADAiEsnWk+S/J0kAQCocpsk3fH0I/mKwfhbc7mrdhALgFJz2btT9a0n5wZ6bicNUABghAVfkZzLRwAA1eYhSXea/DYzX7yqr+FuqSMkFgBlyILAvijpjUQBCgCMmHQic5rkbyAJAEDle+qRfJIW77xD//3ikXwAKsdp6cScN2TzC35LFKAAwMgw/yKnRgCAypz3lZe0WIEtDYrhLasGegYIBUBlC74i6RWivAQFAIZbY6L13XKdTBIAgApQlNQr120mX+zx2puz2c5HiQVAlTkpnWx9Z7av5ydEAQoADKOWmMm+SA4AgDJVkGy5pMWhh0uHXLcODPRsJBYAVc/t0pkzO362ZEnHEGGAAgDDIp2s+6BcR5IEAKBMPClpqaRbJbs1DMbfyR36AURU0/o1A++XdD1RgAIAw6Al5q7PcNt/AEAJPSLpDpPf5gqWTphUc8eyZZ0FYgEASWafnzmz43vsAgAFAPZZY3LCLHNvJAkAwCjaJOmnMrvVh4JbV6+5biWRAMALSq5/YO1ZkhYSBV5MQAR4cS0xc32KHAAAoyxeNH0629fVyfAPALvB/XMzZ3bwBS8oALD30skJH5A8TRIAgFE2Nib7HDEAwG5LPbhmzb8SAygAsJdaYnL/NDkAAErCPdM4dd50ggCA3ROa/oNdAKAAwF5JN4w/S1ITSQAASiQWxIZ4BC0A7CaTGh9cu/Z9JAEKAOyhlpjMPkMOAIBSctl7UqnMK0kCAHZPKP+81BIjCVAAYLc1JSb8q/j2HwBQDicrYXgpKQDA7jGpsTFRdyZJgAIAu6kjcPlnyQEAUCans6dOq297MzkAwG6+a5o+J3Uw64ECALvW1DDwHknTSAIAUC7CwL/KySwA7CbX9MbE2ncRBCgAsOv3C7OPkQIAoLzYMY2JNdzYCgB2911TfhEpgAIALyqdmPMGSa8gCQBAGZ7M/r/m5pZakgCA3XJSUzLzOmIABQBebEnQFAIAyrUCaChsGz+PHABg94TsAgAFAF5IuiFzrKTTSAIAUMYlwOebmjITyAEAduMd0/XmVKrtBJIABQCeZzX4pyUZQQAAytgh4ZBfQAwAsJun+KF9ghRAAYDnSKczCbneQxIAgHJnrk8mk7MOIQkA2B3ekkzOTZEDKADw95OpIf+kpBhJAAAqwISY11xMDACwW2KBh/9ODKAAgCSpoWHeZJdmkwQAoIJ8JJ3OJIgBAHbNpLbpU9sPJQlQAEA1GvqIpHEkAQCoILUq+H8QAwDslrFDweCHiQEUABGXSp0/xszaSQIAUHFMs3Y+wQYAsKu3TLMP1de3jiUJCgBEeQEUN8+SNJkkAACV+DFm5l8kBgDYLS8ZE+gsYqAAQJSZn08IAIBK5dLbp6VaZ5IEAOxaKPs38dhvCgBEUzox5w2SHUMSAICKPqEN7VJOaAFg10w6qinZ9jqSoABAJN8AggtIAQBQBV6Ramg9nRgAYNdCiRmAAgBRk0zOTbn0NpIAAFQDM/uy1BIjCQDYxful6+1NDZkmkqAAQITEQv8of38AQNWc0EpHpZN1HyQJANidDkAfIQYKAEREKvWB/WU+hyQAAFXFdUkqdf4YggCAXVYAbfX1rRMJggIAERALx2Qk7U8SAIAqMzUIN59LDACwS3W1gbURAwUAqp+5/EPEAACoQpvl2kQMALBbzhFPUKEAQHVLJ+a8XhI3/QAAVBe3/4t5cFS2v/s6wgCA3dLEIwGjp4YIInZ+pOBD1HwAgOphG2S6OJvv6iQLANjT2cA+JOl3JBEd7ACIkOb61pea9E6SAABUx+xvi8LAm7J9DP8AsHcNgL+r6YjMYQRBAYAqNBQLzpYUJwkAQIVbI7O3Zvu6zszluh8hjn0zY0Y75wZAdNWoVnOJgQIAVacl5u68uAEAlczl6rS4HZ3t6/olcey7+vrWiZsfL/wHSQARfmN1P1tqiZFENHAPgIhoStWd7qGmkgQAoEKtCEOflxvouZ0ohktHUBsMfMdlPDkBiLYjUg3j35rr101EUf3YARARXjQe/QcAqEQFyS4Lg7oZDP/Dq7FhoEOyt5EEgMCYFaKCHQARkE5nEhryN5EEAKDC/CEMdHYu13U/UQyvpobMO9z8MyQBYKe3NE2d19C75rp+oqhu7ACIACt6hr81AKBiPrekrSa/OJvffGou183wP8ymJWan3Xwh5wYAnj0XhsFQGzFQAKDidQRyzSIHAECF+GVBxem9+Z7LpEVF4hhezc3n1oWK/UjSAaQB4NnMrI2bAVY/LgGocqmGtae5NIUkAABl7nGZfSrb19VJFCN3fl/Yvr1LUjNRAHgeh6cTE16XzWsxUVQvdgBU+x/YxFYeAECZj6W2KAw0jeF/ZKUTbRfLvYUkALzg27Gc2YECAJUqkWg/QPJ3kgQAoEwNBKHeku3rOjOX636EOEZy+M+cJumLJAHgxbj07qOnnDWJJCgAUIFqNPgBSeNIAgBQZkK5Oi1ux6wa6P4VcYys6Q1zp0r+PUlc2wtgV8Zurxn7PmKo5hkRVczYwgMAKCsu3adQ81YPdN9BGiPv8MNbxhXNfyjpYNIAsFsThMI2Sd8mierEDoAqNT059yhJJ5IEAKBMFCS7rHbc5hkM/6Nnv9rxV0s+gyQA7EEF8PKmhtnHkEN1YgdAlSp6mCEFAECZ+EMY6Oxcrut+ohg9TYnMhS5vJQkAe8qD2GxJHyeJ6sMOgCo0c2ZHjaQPkAQAoMSeNOncbH7qa3K5bob/UZSqb3uty79KEgD2rgHQB3fOFKgy/FGr0PoH1r5R0iEkAQAo4dnjz4cUnpvPL1xLFqNr+tT2Q4vB4Pcki5MGgL00+W8Da94giRu1UgCg/M+5/CxCAACUyEMy+2S2r3shUYy+VOr8McVw008kO5Q0AOyL0HQWBUD14RKAKnPYYe37STqDJAAAo85skWriR2X7uhj+S3Vi55v/W7KXkwSAfX9P17t2zhaoIuwAqDJ14wbfIbc6kgAAjB7vDz34UC7f9WuyKJ3GZNs5cs0jCQDDZMKEMUOnS7qRKKoHOwCqjLmx/R8AMFpCuTrj4/Y7JtfP8F9KqfrWk811BUkAGE5uej8pVBd2AFSR5sPnHlhQ+GaSAACMgnvlwbxs//w/EUVpNTTMmxxYcZGkMaQBYJgrgLc2Hz73wBXr5j9OFtWBHQBVZLDWz5RUSxIAgBG0XbJL4uM2n8jwX3ozZrTHa4Pi/0g6nDQAjIDaQjx8NzFUD3YAVBFT+H7JCAIAMFKfNEsVhvOyA92ryKI8bNpY+IZcryUJACM4ZLxf0nUEUR3YAVAlksm2IyR7NUkAAEbAEya/MJufcmp2oIfhv0w0JTIfkOs8kgAwwmamUvPYZVQl2AFQJWKhnSlzCh0AwDCzn1hBH+l9oHs9WZSPVGru8R6G15IEgFEQxMLwvZIuJ4oq+GMSQZWcnsnfQwoAgGH0N3O1ZPNd7+p9oCtSw39z87l1UkusXH+/adNmHxSE4Y8kjWOZAhgNzqxBAYDykU7PfpmbTiYJAMCwnOeZXR/UFo/q7e/+QeQ+U5OZfyls23ZfY7LuU+X5G3YE4Y6a70iqZ6kCGEWvajoicxgxVD7uGFcFGpOt55vblSQBANjH0T8vs3Oy+a7FUTv05sPnHliIh1+RqX3nfzQUhv6a3EDP7eX0ezY1tH7VzT7BYgVQgg+Jj2TzPVeTQ2VjB0BV/BGNLTkAgH0xZK4rx24dOiaKw39TQ2tLoTbsfdbwL0k1QWDfaWrKTCiX3zOdzLzLzT7OcgVQGswcVfFXJILKlk63H6yhwoPiho4AgL3iyyXNy+Z77ozeZ2gmoSH/tqQ3vsiZ0nXZvu6zS/671rdOU2B3SNqfNQugRIphoENzue5HiKJysQOg4l+GQ+9m+AcA7IVtkl0SH7flpKgN/zNndtQ0JVov0JAvf9HhX5Jc85oaWltK+fs2NWUmKGY/YvgHUGKxWNHeQQwUACgh85CtOACAPXWrQj8hm+/qWLFi0WCUDryxvvW49WvX/NFll0savzv/G7fgmmSy7YjS/MYdgRf8Brmms2wBlJobTwOgAEDJ1Ne3TnTZTJIAAOymJ0x+YTY/dWZ2oGdVlA788MNbxqUTmUstsD9LOnEPT3knxVzzVYJLJ9OJNZ+XdDpLF0CZOO3oKWdNIgYKAJRAbSx4h6RakgAA7IrJfxgrxqf35nuukDrCKB17U7L1LfvV1t0v+UWSYnv5Y97YlMhcMJq/d6qh9e2SPsvqBVBG4jtitZSSFAAoCfd3EgIAYBf+Zq6W3nzPe1eu6XwwSgd+9JSzJqUb2q5xt19Kqt/nj135pemGzLGj8btPT7Q2BmYLOVcDUHYjiHEfgErGUwAqVHNzS21hW92jkiaQBgDgeedVs+/Ed9iFK9bNfzxqB9/U0NriZt+U9JJh/tH3bx3cfOK6dYu2jdxn/Ll1hW3bbpfUzDIGUIY2h0HdwbncVTuIovJw9/gKtWPrhJmBOcM/AOD59EnhOdm+Bb+N3OA/dV5DWFP8lrvePEL/iiPH1Y7/sqR/G6Gfb4Xt2+Yz/AMoY3VBuOU1khYTReVhW1nl/uG49gYA8I+GzHXl2C1Dx2bz0Rr+n360n8eKy23khv+nJnTZBelE61tH4menE5mL5DqTpQygnLnCt5FCZeISgAqVTrTlJCVJAgCw019MNq833/XnyH0mNmSOlfm1kk4axX/tQwWPHdvff91Dw/fZPucNUvAr7f2NCgFgtBqAfLa/m1mkArEDoAKlUnOaGf4BADttM/nFh02ZemLUhv+dj/brkPmdozz8S9LkuIrXDNcPm94wd6oUfJ/hH0BFMCXS9a3TCIICAKMgFhrb/wEAkvwWczu+N99z2ZIlHUNROvJUfdtr96udcI/kn5cUL9EJ8DvTDW3z9vXH1Ne3ji2a/1DSwaxpABXzCWTMJBQAGJ0Xm4xrbgAg2jbK7Jxsvmdmb39Xb5QO/OlH+wWBbpY8XfJfyHR5U0OmaV9+RG2gb0k+g2UNoMIwk1Qg7gFQYZoPn3tgoTZ8SDzBAQCi6meqKX4om13416gd+Ag+2m9fT6eWTZhU88plyzoLe3xMidYLXHY5yxpABSrGB4NDovio2UrGEFlhBmuLbzEZfzcAiJ6/mtu5vf1d/xu5wX/kH+23j3zG5o2Fz0v67J78rxob5p7qCr/G0gZQoWKFMcU3Sfo+UVQOLgGoMGbBW0gBACLFZXZ9fDA4JnrDf0eQTmbaR+PRfvv8R3J9alqqdebu/vPTp7Yfalb8vkp1/wIAGJ5PqDcTQmXhm+QKm//l4WlcuQEAkdFnpvbevq7fRe3AmxpmH+M2cK3cXl4hv3IQhrbw6ClnHXvv2hs2vNg/OGNGe3zThqFFkh3KEgdQ4ePJG8mgsrADoIJMT85t5mQBACJhSLLLBkM/qrevO1LD/9OP9nOL3SlVzPD/tCN21Iy5clf/0KaNQ9+U/BSWOYAq8LJUqu1IYqAAwAgoevFNpAAAVe+ewMKTs/muiwcGerZH6cAbG+aeul9t3d07H+1XW6GH8cHGRNv7X+i/TCcz7XI/m2UOoFrEQmcXAAUARoQHvLgAoHptM/nF2fzmE1f1LVgWpQOvr2+dmG5ou8YsXCKpqdKPx6RvTW+YO/Uf//PG+rZXyP1KljqAqhpRJGaUyvqMQiVobm6pLWyre1zSeNIAgCr7MDb93rzYviq/MBu1Y9/5aL//lnRIlR3ardn85tdJi4qS1NAwb3Lcin+WdDgrHkCV2RIGdQflclftIIryxw6ACjG0fcIpDP8AUHU2yuyc3r7u10Vt+G86InNYOtH2Ize7sQqHf0l6TVNi/MclaebMjpraoPg/DP8AqtR4DW0+mRgqA08BqBDuXFsDAFXFbFFRhfP6+q5/OFoH3hGkk2vnufvXJU2o6s9u2RfTDXNvXr9m7Qdlei2LHkC1isX0Rkm/JwkKAAwfCgAAqA4PuHTu6r6un0XtwNMNmWNla66V66SIHHJcFt6k6tzhAADPcNebJH2WJMof9wCoANOmzT4oHIw9LC7ZAIBKFkr+LYsHn+rt7doUpQM//PCWcfvV1n1O0sclxVkKAFB1ivHB4JAV6+Y/ThTljR0AlXDGWKg5VXKGfwCoXDkza+/t6745ageebmh9jcw6JU1jGQBA1YoNjQ1fI+mnREEBgH3kHp5qbNYAgEpUkOwbYTD+81G7O3J9fevEWrPLZDpb7DgEgOqfWUI7lQKAAgDDIJCd6sQwrMztfRYU+0gC+yJU7AK5zyIJPP8bjW6PKTh7Zd/8+6J26Olk2/vkukLSZBYCAEQGNzutiNMTlLVEov2AGhUekxQjjeETs+DoKJ6UY3g1NbR+1c0+QRL4hw/WrZJ/oTe/5etPPwM+Mq+JIzKHedyvkvRuVgIARE5xSPGD8vnOJ4iifLEDoNwHVRVfzfAPABXC7f8C2YdW9s9fE7Ejt3Qyc3YUHu0HAHjh0aXGhl4l6ZdEQQGAvRaeSgYAUPbz7waZLs7muzqjduTTk3OPKiq8Vu4nsw4AIOI8PJUCgAIA+3JKybU0AFDmb9S2KDT/SC7X/UiUDnvGjPb45g2D/1708AuSalkIAABzY3ahAMDeOmbyrPHbpRNIAgDK8SxH6yX/SLav+ydRO/R0IvPqTRsLnZJNZyEAAJ7mphOPmTxr/PKHrt9CGhQA2EPb9ou9yqQ4SQBAeZ3fyHWtxe3jvb3dm6J04IlE+wFxL3zB5efJFbAUAAD/IL59fHCypN8SBQUA9hCP/wOAsrMiDH1ebqDn9qgdeFNDa4urcKWbXsoyAAC8EH/qMgAKAAoA7PGLx3QKKQBAWShI9o0wGP/5XP6qHVE68OlT2w8NY4NXuew9LAMAwK6YBa8iBQoA7LGOQFozgxwAoMQnMq4/FmPh2bncghVRO/R0MnN20Qtfk2x/VgIAYPf4y6WWmLSoSBYUANhNTQ35o1wxTrgAoFTTr7RV8i/09m/5etROYqYnWhuH3DrlPpOVAADYQxOmJ/efvrJP9xEFBQB2kyt4BSkAQMn8sqDih/L5hWujdNDPPNpPdomZxrAMAAB7oxiGJ0sUABQA2H0mCgAAGH2Py+xT2b6uzqgdeFNyzimbNhQ6JTuSZQAA2CeBXiHpOoKgAMDuNwAnkwEAjObbri0KzT+Sy3U9EqXDfubRfq7zJB7tBwDYd+5ilqEAwO5qaspM8IJPJwkAGBUDQagPrRro+lXUDjzV0Pr2QIWr3XQ4ywAAMFxMOjKRaD8gn+98gjQoALALXtArxLcwADDSQrmus1r7+Krerk1ROvDpU9sPHYoVrjTpvSwDAMAICGq040RJvyUKCgDsqgAwP9mcHABgxN5npfsUat7qge47Inbolk5mZhW98F8mHchKAACM2GetBydTAFAAYHfOzpwbAALACClI9o3acZv+Y8WKRYNROvDpidbGouwaub+OZQAAGGkBNzWnAMDu8hmSEQMADK/bFPrZ2YHuVVE66FTq/DFBuOVTRfmnJNWyDAAAozLRSCeRQvnhOvMyM31q+6GSHUoSADBsnjT5hdn81NdmB3oiNfxPS7a9Kgg33yX55xn+AQCj7KVPzTYoJ+wAKDNDseIJfPcPAMPFfz6k8Nx8fuHaKB11KvWB/WPF2i+GPNoPAFBCxdjg8ZIeJAkKALwQC48XNwAEgH31kMw+me3rXhi1A29MtJ1uoa520xEsAwBAKbnb8ZJ+QRIUAHih+d91PCkAwL68kdoixWrOzWY7H43SYTfXt760EAu+KvdZLAIAQDkIzJltKADw4vx4bgAIAHv1/tkfevChXL7r1xE7cEsnM7MK7v8ldx7tBwAon09m2XGkUF64LrCM1Ne3TpSsniQAYI+EcnXGx+13TK4/WsN/Mjk3lU60LZb7AkkM/wCAcpNIJNoPIIbywQ6AMjImFhzv7nz9DwC77155MC/bP/9PUTroGTPa45s3DP67e9ghaSzLAABQpizmxWMl3UIU5YEdAGXEPeQaGQDYPdsluyQ+bvOJURv+U6nMKzdtKNztsksZ/gEAZT9wWpEZp4ywA6CsGC8OANj1e+VSheG87ED3qigd9TGTZ43fPj7+OYX+cUkx1gEAoBLsfBIAKADwPI4lAgB4QU889Wi/rmulaD0wtakh847t5t+U/HCWAQCgopiOI4TywSUAZWLmzI4aSWmSAIDn9bOi6ehsX1dnlIb/hoZ5k9PJzEI3/6kkhn8AQCVqklrYuVYm2AFQJtYPDKQU2BiSAIDneGjnt/4LI3bclk5mZiksfkOug1gGAIAKNnZ6YnxiZV6riYICADt5oCO5/T8A/P1tUWbfCeJD/7Zq1cLHonTgqdScZBDGrpH7G8QHAwCgChRNzRIFAAUAnhFY0OzuBAEArrzMzsn2dS2O0mHPnNlR8+DagY95aB2Sc3d/AED1CHWkpJ8QBAUAnj7fdZ9OCgAibshcV4/ZOvTp5Q9dvyVKB55KzT3+wbVrrnPZCSwDAEDVzTqmI0mBAgDPfVk0i72eAKL7Hrhc0rze/p47o3TUhx3Wvl/d2KH/UBh+3Hm0HwCgSpkbBUCZ4CkAZaElJhlPAAAQRdskuyQ+bstJ2Xy0hv90ovWtdWML90t+kRj+AQBV3QBoOk8CKA/sACgD0xLjkqHE9Z4AouZWhd6eHeheFaWDbmiYNzkehF+T+yyWAAAgIsYmk/s39PUpRxSlxQ6AMhBawJYYAFHyhMkvzOanzswO9ERp+Ld0MjM7bsX7GP4BAFFTEzozTzn8HYigHBoAHcnl/wAiMQHLfxgUa89fuabzwSgd9/REa2NRdo3cX8cqAABEkZs3S/pfkqAAgKmREABUub+Z6/ze/p4fROmgdz7a7yNF2f+TNJ5lAACIbAEgpUiBAgBPNQC8GABU7+e92XfiO+zCFevmPx6lA0+l5h6/fu3aayWbwTIAAER+4pEz81AA4OnzRCIAUIX6pPCcbN+C30bpoJ/9aD9xd38AAHY2AHzpWQ64CWCJNTefWydpMkkAqCJD5rpy7JahY7P5aA3/6WTmX3i0HwAAz8N16DGTZ3E5XImxA6DEBrdsTVlg3AIQQLX4i8nm9fZ3/TlKB918+NwDC/HwK3JvZwkAAPC8bMd+lpS0nCgoAKIrCJKSkwOAyv5El7aGrs+/bOrUy5cs6RiK0qE3JjNzCh7+p6QDWQmoUD9TjV1ADJAkDfm3Jb2RIDASQgtSFAAUAFE/aeYJAAAqnN8iD9pX93f1ru6PzlGn05mEhvzbcudEGZV+NrI5m+3KkwMkKZ3IbOHLKYyUgPsAUADwmetJ3mMBVKiNMrso29d9rSJ0tvj0o/18yHm0HwAAe8BDJUmBAiDirwJeBAAq0s9UU/xQNrvwr1E66Mb61uPWr11zrWQnsgQAANhDZsw+FACRxzYYABXEH3QF56/Od/0wSkd9+OEt4/arnfB5yXm0HwAAe38ewexTYjwGsISam1tqJb2MJABUwie2y78dBoVpURv+m5Ktb9mvto5H+wEAsO+O2DkDoUTYAVBChcKEwyWnhAFQ7vrM1J7t6/ldlA766ClnTdoRG3Opu3i0HwAAwyMY2nzAyyT1E0WJ/gBEUDrhoB9BCgDK2JBklw2GflRvX3ekhv+mhtaWHTVjemUM/wAADOsMFDADlRI7AEooMJ8iGUEAKEf3BBbOW9W3YFmkBv+p8xrCmuK33PVmlgAAACMyA1EAUABEFosfQLnZZvJLevNbvi4tKkbloJ95tJ+KXzJXHcsAAICR4fIppEABEM3FbzqC7/8BlAsz/d682L4qvzAbpeNON2SO3flov5NYBQAAjHQBwJegFABRPdlm8QMoDxtldlFvX9e1T30uR8POR/tdJPmnJcVZBgAAMANRAGAksfgBlPhT2BYVVTivr+/6h6N02Kn6ttcGgXVKnmYRAADADEQBgFEQHBGhL9sAlBV/0KXzVvd1/yhKR/30o/1kOltyrsICAGDUGfcAKOUESgSlcczkWeMln0QSAEZ78perMwwK01bneyI1/P/Do/0Y/gEAKM2pyKTm5nO54W6JsAOgRLaPi7H1BcDoMq00hWf35hcsjdTgz6P9qkFRT5U2fHEBAFVgcPPgEZJWksTo44O0VOfhseBQUgAwSgqSXRZa3fG9fVEa/juCdDLT7rHicmP4r3TrVVOcYvKLXVpNHABQ4UNoTfhSUigNdgCUiCuczA5UAKPwZnN3GNO8XK7rrigddlPD7GPcBq6V28tZBNUhm134V0mXSbpsWnLODA+D2S59QKaDSAcAKu30xA8hBQqAiC16O4TxH8BIMWmr5F/o7d/ydWlRMSrH/fSj/Vz+KUm1rITqtKpvwTJJy+rrWy8aI73dzWZLegvnNQBQKbOQJpMCBUDETs5tMk8AADAyn6r2f4HsQyv756+J0mE3Nsw91SzslLyJRRANAwM92yUtkrSo6YjMYYqHLS5lJDuGdACgfAUSOwAoAKJ2gs4lAACGm22Q6eJsvqszSkddX986sdbsMll4tnhjjazeB7rWS7pC0hVcIgAAZT4KsQOgZLgJYOlO1Fn0AIbxLcUWhYE3ZfuiNfw3NbS21AbGo/3wHKv6Fizr7e++IIzVvczcz5T0M0lDJAMAZXLa4hQApcIOgJLxQzhXBbDvn6BaL/lHsn3dP4nU4H9E5jCP+3+79C4WAV5ILnfVDv3TJQLWJulY0gGAEk5CXAJAARDBs3ZaLwD79tnputbi9vHe3u5N0TnsjiCdXDvP3b8uaQLLALvreS8RMJ0l6WDSAYBRxyxEARA5tF4A9taKMPR5uYGe26N00NMSrUeHWnOtXK9gCWBfPP0UgVTq/E+quOlNQRDMkvu7OC8CAAoACgAMu1TqA/sr1DiSALCHCpJ9IwzGfz6Xv2pHVA66vr51bG0QXBzyaD8Ms52XCNwk6abpU9sPDWODZ7qsVdJxpAMAI2pcc/O5dStWXL2ZKCgAohD7S8gAwB76Qxjo7Fyu6/4oHXRTMvO60P0ayRtZAhhJK9d0PqidlwikG+a+XOZzJL1f8kmkAwDDr1DYfogkCgAKgOoXC2OTXE4QAHbJpK2Sf6E3v+Xr0qJiVI776Uf7ufvZxh1TMcqy/fP/JOlPqdT5//6sSwTOkBQnHQAYHkGxSMFKARANoYeTzDifBbBLvyio+OF8fuHaKB10qqH17YHZtyS9jCWAUnr2JQLN9a0vHQr0PnebI9PxpAMA+zoTaSIpUABEQiBN5Pt/AC/icZl9KtvX1Rmlg975aL+rJL2bJYBys2Kg52/aeYlAKjWnOQhjsyTPSOKyPgDYC64YBUBpZlGM/mKn7QLwAswWhYGmRWz4t3Qy0+5xX8Xwj0qQyy1Ykc13XRwft/nw0P0dMlskqUAyALAHH/7OPVZKgR0ApSgAgmCiOXsAADzHQBDqQ6sGun4VpYOenpx7VFHhtXI/mSWASrNixaJBPX2JwOFzDyyM8fea+zkunUA6ALCLmYgvRSkAosJY7AD+LpTruvh+4z4WpUfhPP1ov6KHPNoP1VEGrJv/uKROSZ3PukSgTdIhpAMA/ywImIkoAKKCG14AkOTSfQo1b/VA9x1ROu50IvNqmXfKfTqrANUol1uwQtLFUstn0okJr5OpXe7vFGUXAPz9PMidmYgCIBpMzk0AgWgrSPaN2nGb/mPnFuJISCTaD4h74QsuP0/OPWgQBYuK2bwWS1p89JSzJu2Ij22Ra7bkp5ANAGYi4x4AFADRwPUuQKT9wYuxeavXXLcySgedamh9e6DC1W46nCWAKLp37Q0b9M+XCLRKmkw6AJiJQAFQ3VjsQPQ8afL/6M3XXyV1hFE56OlT2w8NY4NXuew9LAHgKVwiAADMRBQA0TKBCIDoMOmmYhA7N5e7bl10jrojSDesObdohS9Lxnse8Lz+folAOt1+sBcLZ1moVpmOJxsA1c6l/UmBAiAq9iMCIBIektkne/u6FkbpoKcnWhuHfE2nTDNZAsDuyWY7H5V0paQrU6m2I4PQZks+R9JLSQdANTJpHClQAERltY8TdwEEqvx1bosUqzl350l9JMyY0R7fvGHw34uyS8w0hkUA7J1crvt+PfcSgdlyf684WQZQbTMRKAAiwdkBAFTxC7w/9OBDuXzXr6N01E3JOads2lDolOxI1gAwXP5+iUB9fetHa2PBmTxFAAAzESgAKg+LHag+oVzXxffb72MrVly9OSoH/cyj/VznSTzaDxgpAwM9G7XzKQKNU+dNt1j4PpO3uTSFdAAwE2F3cbI26lpi4i6/QLW5Vx68MtvffU6Uhv9UQ+vba1S4z00f5fMEGD2r11y3Mpvv6ujNT22Q7I0yu96krSQDoMLUzpzZwRfSo4zAR1lT04T9vMANAIBqEErbTXZJfNymL69YsWgwKsc9fWr7oUOxwpUmvZdVAJRSR/gClwi8SpKRD4By9+CDa8dJ2kQSFABVa2ioMC5G7EBVeNnU+i8sWdIxFLXjXrmm80FJLawAoHw8+xKBVKrtSAs1x0wflOsw0gFQrgYHg/0oAEYXWzZHWbwY41oXoEpEcfgHUP5yue77V+e7L8r2TT2CSwQAlLMxPsSTACgAqttQjVEAAACAUdARZvNdi7N9XbMLih8mszmSFks8jBgAs1FUsRd9tAP3cFxI7wIAAEZRPt/5hKSFkham61unKdAcyWZJehnpACiVWEgBQAFQ5YaKFg+Y/wEAQIlkB3pWSfqU1PLZafV1p3kQUgIAKIlioDgpUABUtVjMY+7cmBcAAJTaouKqAf2KHACUShAqRgqjnDkRjK5iMaB0AQAAABB5YegUABQA1S0Wo+UCAAAAAGYjCoCqR8sFAAAAAFIxNHZHUwBUeeABLRcAAAAAMBtRAFS90GMscgAAAACR587uaAqAag+cRQ4AAAAAMnMuAaAAqG7ONhcAAAAAkHvAbEQBUN0sDGm5AAAAADCMOl+OUgBUOQ+MzAEAAABEXmh8OUoBUOUs9JAUAAAAAER+NjIrkgIFQFULTSxyAAAAABQAIbMRBUC1Bx7QcgEAAACAMxtRAFS7kJYLAAAAABSG4RApUABUNa5zAQAAAAAp4PJoCoBqxw4AAAAAAJCCkC9HKQCqXCxwtrkAAAAAiLww4BIACoAqVyyyAwAAAAAAuEE6BQCLHAAAAAAiIOTLUQqAql/kAYscAAAAAMJYwCUAFABVHjiPugAAAAAABUV2R1MAVLmYxbaRAgAAAIDIz0aBtpICBUBVK8acRQ4AAACA2YjZiAKg2sV21LADAAAAAACzEbMRBUC12xFjmwsAAAAAMBtRAFS9SZNY5AAAAADAbEQBUPWWLessSOJJAAAAAACibGjnbAQKgKpH0wUAAACAmQgUABHAzS4AAAAAMBOBAqD68bgLAAAAAMxEoACIAGOxAwAAAGAmAgVABGwmAgAAAADR5VvIgAIgGkvdtJEUAAAAAER3JrINpEABEAkWUgAAAAAAYCbC6KohghIsdtNGJwYAAFBC9fWtE+NB8K8mTczmuy4lEQCjPRORAgVAJLhso0QFAAAARltHkE6sfb1Ms839PS7fT7LvkwuA0Z+JnEsAKAAiYyMRAACA0ZKub52mIPhXaU2rpKlyvooAUFrGTEQBEBUubTRiAAAAI6i+vnVibSw4U67Zkr9Kck4/AJSN0IwCgAIgGsx8A7U7UPkSifYD8vnOJyI5VNQGB7ICMFqGhoaG8vmFa0lid7TEGhP7v8XM58j9HXIfQyYAynImYgcABUB0Frs/4aKEBypdTIVPp5OZQ+M77MIV6+Y/Hp1hbMuO2mDCbMk/LSnOSsDIn6zEHpA0hSReWOPUedMtFr5P8lYpnMoXDQDKXRjyGEAKgKgs9qJtMB7ACFS8wN1cmlWoDU9rTLSetzrf86MoHPe6dYu2SepIN2R+LAs7JXs5qwEYfc/d4l88hUQAVNR5lLgEgAIgKovdbKNTzQNVxA416Yfphrb/KQZDH+3ru/7hKBx1tr/rL1LLq5oSE853+Rcl1bEWgJE1c2ZHzV/XrnlLIG912els8QdQuTNRgQKgFLkTQQlGhTFDj5ICUI0vbr0v5jW96WSmXYrKdT6Lir35rsutYE2SfsQiAEZG49R509OJzKXr1655wKSbXPYeSQz/ACpWfGjoEVIYfewAKIFVqxY+nk60FcS1s0A1mij3a9INmXfFZB9a2T9/TRQOuveBrvWS3pNqaH17YHa1pMNZCsC+YYs/gCo2eO/aGzYSw+hjB0BpuEw0XkA1M39LaOH9TYnWi6SWWFQOO9ffc9OQ4keZ60pJIQsB2FMtsXQic1o6mbmxNrCH5H6N5Az/AKrNwxLXRFMAREmohwgBqG4u7eeyS9OJultSqbYjo3Lc+XznE7393ReYhadKWsFKAHYtlWo7Mp3IXJpO1P1V8t/IvUVSLckAqEb2VAEACoBILXsKACA6XhWEuiedyFza3NwSmRP63r4FSydMih9v8oslbWcZAM919JSzJqWTmfZ0InNbEGqF5BdJmkwyAKqdiy9DKQCit+xZ9EC0xCW/qLCt7s/phrmReWzesmWdhd58z2VhEB4laTHLAPj7Fv8dNWP+xhZ/AMxCGE3cBLBETP6wR+Um4QCe7WhZuLSpoe3qMVuHPr38oeu3ROGgc7kFfZLelE5mZsn9PyUdzFJAlKRSc5qDMDZL8lbJJ3PlK4BIj/8yLgEoEXYAlGzRB7ReQHTVuOmj2/erWZ5OZE6L0ltftq9rYXwwaJKrk2WAavesLf5/DsLgPrb4A8BTzCkASnYSSgQlWvTyhyj/gci/ESQk/3U6mflOfIdduGLd/MejcNg7j/OcaanW74VhcI3kaRYDqkdLLJ2Y8DqZ2ne4nyF3HvkLAM8zC5FCabADoERCFj2AZz4DfVahNlzRmMi8J0oHvirXs2Tr4KbjJLtE0iBLAZUslZrTvPMu/uufdRd/hn8AYBYqK+wAKJFA4UOuGEEAeNpLTf6DdLLtxkIY+2h//3WR+GBct27RNkkdjfWtP7HArpV0IksBlaKhYd7kuA19QLJWhTqaR1oDwO4xBVwCULI5FCVRU4ivIwUA/8R1ZtyKq9LJTLsUnTuFrh7ouSebn/oKmZ0jaRMLAeWqubmlNtXQ+vZ0MnNj3IoPSPafko4mGQDYfWOK29eSAgVApOy8BnYzSQB4HhPlfk1jsu2X0xvmTo3OYXeE2b6uTivYNJP/kGWAcvL0Fv/Ctrp1gdn/ssUfAPbalnvX3rCBGEqDSwBKa52kacQA4PmY682hhfc3JVq/0Jvf8nVpUTEKx937QNd6Se9NNbS+PTC7WtLhrAaUQnN960uHAr3P3eYo1PFs8QeA4TjBEd/+lxA7AErrASIA8GJc2s9llzY11N2aSrUdGaVjz/X33DSk+FHmulJSyGrAaEilzh/z9Bb/QmBrXXa5TMeTDAAM0/zvzgxEARDZE3sWP4Dde78wvTIIdU86kbm0ubmlNirHnc93PtHb331BYHqNpBWsBIzc4P/UFv8g3PwAW/wBgBmIAgDDzmQsfgB7Ii75RYVtdX9ON8x9eZQOfFVf9x8mTIofb/KLJW1nKWA4TJ/afmhTovWCdKLt7iAM7pP8IkkvIRkAGFHMQCXEPQBKWQC4HnAjBwB77GhZ+Md0Q9t18f3GfWzFiqsjcUPRZcs6C5IuS6Xm/CAIg29LOo2lgD2VSp0/RsVNbwqCYFbRC2dIxrf8ADCKXMY9AEqIHQAlFCpk8QPY+/dvU3th29bl6UQmUoNwLregL5vvfqO5nynpUZYCdse05JwZTQ1tVwThZu7iDwAlxC7o0mIHQCkXv+sBsQMAwL69kzRI/ut0MvOd+A67cOcjRiOht79nUfPhc39biIdfkelsiXdUPFfTEZnDFA9bXNYWuo5lhQBAmcxAKBl2AJTQ2G1FFj+AYfkslfusQm24ojGReU+UDnzFuvmPZ/u7zwkCf71kWZYCnn0Xf4/7GpddLulYkgGA8rBpRw0zEAVANC1/6PotYvsqgOHzUpP/IJ1ouymdnv2yKB34qlzPkq2Dm46T7BJJgyyF6HmBLf7sdASA8vLw+vWdW4mhdPhgLDVTTq6DCQLAMDpdQ7H70snMRdm+rmsleRQOet26RdskdTQ1zP6RW6xT0itYCtXt71v8lQndjmGLPwCUvRwRUABEmysn6WSCADDMJsr9mqZk21mB+9kr8z2ro3Lgvf0Ll0sdr0on186T+9ck7c9yqB719a1jx5je7mazXf4WyTiXAYDKmn1QQlwCUPpXAS8CACP3DuN6bVF2V2Oy7aNSR4Te8zvCbF9XZ9F0lEk3sRIqnjUl55ySTmY6awP7m5vdKOl08UUGAFTYu7n6CIECINqvATdeBABGWp25rmhqWHNbKtV2ZJQOvK+v+4HefPc7Qvd3SNx1uIId7h7cJvezJR1AHABQmZwvPykAoq7ovAgAjNKHrumVQah70onMpc3NLbVROvZcf89NQ4ofba4rJRVZDQAAjD7zGLMPBUDE/wC1tbwIAIymuOQXDW6rW5ZumPvyKB14Pt/5RG9/9wWB6VSX7mMpAAAwyichBe4BQAEQcdls56OSNpIEgNFk0lGy8I/phrZrmpvPrYvSsa/q6/7D/pPiJ5j8QklbWA0AAIyKjSvWzX+cGCgAIO4DAKBEnwGm9sK2rcvTicxpUTrwZcs6C735nivCIDxW0m9YCgAAjLjVREABAEniPgAASsoaJP91OplZOG3a7IOidOS53IK+bL77TeZ+pqRHWAsAAIzcxy4RUABAktGGASiHtyL3WWEhtjydbD0jagff29+zKAzULOk7LAUAAIaf86UnBQCeEpqvJAUA5fHprMPk9uN0ou2mdHr2y6J06Llc9yPZfPesMNRMSb0sBgAAho8Fup8UKAAgSSEvBgBl53QNxe5LJzPtkixSRcBA9++3Dm4+XrJLJA2yFAAAGIYCIAyZeSgAIEkFaZV4LjWA8jNR7tc0Jdtunp5obYzSga9bt2hbNt/VYV48SabbWQoAAOyToWLsAHbXUQBAkgYGerZL6icJAOXIXa8NZfc0JVovklpiUTr23v6Fy7N9U0+R2TmSnmQ1AACwV/pyuat2EAMFAJ45w9YKQgBQvm9R2s9llzY11N2aSs1pjtbRd4TZvq7OWDE+zaUfsBoAANhjbP+nAMBzGC8KABVQBJheGYTB3elE5tJU6vwxUTr2lWs6H1yd724J3d8h6QFWAwAAuznqMOtQAOAfXhTOiwJAxYhLfpGFm//cWN/2iqgdfK6/56YhxY8215Xi/i0AAOxS6M6sQwGAZyvGKAAAVBaTjrJAf0g3tF3T3HxuXZSOPZ/vfKK3v/uCMNDLTbqL1QAAwIucM3jA5c5looYIysPWrfFVdWMLoShlAFSWQKb2wtZtp6UTc9qz+QW/jdLB53Ldd82Y0X7yk48XPmmmz0oay5JAxZ2YKzxwWnLODJKAJBVDn2hGDhjeZTXoIU8AKJv3fJSNdKItJylJEiMvZsHRK/vm30cS2BdNDa1fdbNPkMQzXPKuwVAfHxjo2Ri1g5+eaG0syr4t6fUsBQAAnjk5WL06350mifLAt83lZTkRAKhgJtnc2sBWNjW0vTdqB78y37M6m+9+g7mfKekRlgMAAJKkvxABBQCe78zZ7G5SAFAFXuqmRelE203p9OyXRe3ge/t7Fo0Z2tEkV6ckZzkAACI947gz41AA4PmEbtxICkA1OV1DsfvSyUy7InbJ2b1rb9iQ7e8+Jwz1Oklc9wgAiPDEGVAAUADgef8YBdoxAFVnotyvSSdal0xPtDZG7eBzA92/3zq4+XjJLpE0yHIAAERNvBgy41AA4Pn0PtC1XtJDJAGg+tipRdlfmhKtF0ktsSgd+bp1i7Zl810dgfxEmW5nLQAAIuShFQM9fyMGCgC8ADfdQwoAqtQ4l12abqi7M5Wae3zUDn5VvufebF/3q2R2jqQnWQ4AgAjgEmcKALwYbpIBoPrf6HR8EIZ3pBOZS1Op88dE7Og929fVGSvGp7n0AxYDAKC6P/O5yTkFAHZRAHCTDACREJf8Igs3/7mxvu0VUTv4lWs6H1yd724J3d8h6QGWAwCgKmebMLyHFCgA8CKGAp4EACBCJwbSURboD+mGtmuam8+ti9rx5/p7bhq7ZWi6ZJdJKrIiAADVNdvE+HKTAgAvpq9vfp+kJ0gCQKQ+i0zthW1blzc2tL4xage//KHrt2TzXReHgV4u2TKWAwCgSjzZ13dEnhgoAPDi3F00ZQAiyBrM7FeNibb5R085a1LUjj6X675rwqSaV8r9M5K2sR4AABX9qW66W+oISYICALt8sTiPiQIQ4fMFZXbUjFnZ1NDaErWDX7ass5Dt7/myauwok/+a5QAAqFTu/kdSoADAbp3+6g5CABBxk93sxnSi7aZUat7hUTv4bLYr35vvebO5nynpEZYDAICZBhQAVSo2VMuLBQCecnoQFu9NJzPtkixqB9/b37NozNCOJrk6JTnLAQBQMfP/YPAnUqAAwG5YuabzQUlrSAIAJEkT5X5NOtG6ZFpidjpqB3/v2hs2ZPu7z3EPZkpaxXIAAFSAgd4HutYTAwUAdhdbZgDgH98YTw0Vu6cp0XqR1BKL2tGv7p9/y9bBzSdIdomkQdYDAKBsObMMBQD28EXjvGgA4J+Nc9ml6Ya6O1OpucdH7eDXrVu0LZvv6gjkJ5qLmysBAMoTX2ZSAGAP/zBmPAkAAF74xOL4IAzvSCcyl6ZS54+J2uGvyvfc29vffYrMzpH0JAsCAFBOwoBZhgIAe2R70e8SWzwB4MXEJb8oCDcvS9W3nhzB4/dsX1dnrBifJrPrWQ4AgDIxODQU3k0MFADYAwMDPdsl/YUkAGCXmoPAlqYb2q5pbj63LmoHv3JN54PZvq7Zofs7TFrLcgAAlNjdO2cZUABgT3B9JwDsweeZqb2wbevydCJzWhQDyPX33FQMBo+W6b8lhSwJAEApuMT2fwoA7KVbiQAA9oQ1SP6bdDJz47Rpsw+KXAmQ++6T2b7u88NAJ0m2jPUAAChBBXALGVAAYC8UY/q9JCcJANjTcw9vCQdjK9LJzOwoHn4u133XYVOmnGzyCyVtYUEAAEbrEzi04m3EQAGAvTuBe0SmVSQBAHtlstwXpBNtN6VS8w6P2sEvWdIx1JvvuUI1dozJf81yAACMgvv7+q5/mBgoALCXzMUWGgDYN6cHYfG+dDLTLsmidvDZbFe+N9/zZnM/U9IjLAcAwEhxMbtQAGCfhFxDAwDD4QC5X5NOtC6ZlpidjmIAvf09i8YM7WiSq1NcXgYAGAFmzC4UANi3F1FN+HtSAIBhe1c9NVTsnqZE60VSSyxqR3/v2hs2ZPu7z3EPZkpcYgYAGOZP2cGAAoACAPsim134V0l9JAEAw2acyy5NN9TdmUq1nRDFAFb3z79lMPTjJbtE0iBLAgCwr1xa3ftA13qSoADAPjKupQGAkXhzPT4IdXs6kbk0lTp/TNQOf2CgZ3s239URs2CGuf7IggAA7NvHKtv/KQAwLEIzXkwAMDLikl8UhJuXpepbT45iACv75t/X2999iszmSHqcJQEA2LsGgO3/FAAYFrFiuIQUAGBENQeBLW1MtF1+zORZ4yN4/J7t61qomuIxkn7McgAA7PHMEhr3LqMAwHBYNdAzIO4DAAAj/plo0gXbx9fcl2rIvCmKAWSzC/+azXe/26W3m7SWJQEA2D2WXdk/fw05UABgmLj0a1IAgFFRH5j/Kp3M3JhOtx8cxQBW57t/tml7fLpkl0kqsiQAAC8u/A0ZUABgGJkZLyoAGE3uLRoq3JdOZmZH8fDXr+/cms13XRwGwUmS/syCAAC84KwSMKtQAGBYDRbDmyUNkQQAjKrJcl+QTrTdlErNOzyKAeRy8+8+bMrUV5r8QkmbWRIAgH8wVAjjS4iBAgDDaGCgZ6OMb2AAoEROD8Lifelkpl2SRe3glyzpGOrN91xhxdgxbvoVywEA8Hd2Rz7f+QQ5UABguDn3AQCAEjpA7tekE22/n5aYnY5iAL1rrutf3df9FnM/U9LDLAkAANf/UwBgxHBtDQCUgdeEit3TlGi9SGqJRbII6O9ZNGZoxzS5OiU5SwIAIjxQcq8yCgCMjMOmTLld0pMkAQAlN85ll6YTdX9OpdpOiGIA9669YUO2v/sc92CmpFUsCQCIpCfHT4zfSQwUABgBS5Z0DJn0e5IAgLJxXBDq9nQic2kqdf6YKAawun/+LYOhHy/ZJZJ2sCQAIErsd8uWdRbIgQIAI8TduPkSAJSXuOQXBeHmu1KpzCujGMDAQM/2bL6rI2bBiZL+wJIAgIiM/3LuUUYBgJE0ZEM3kQIAlKUjg9CXphvarmlqykyIYgAr++bfl813v1pmcyQ9zpIAgCofJj34BSlUFiOCytOYaLvXpKNIYl/4x8z1ADlgX4SBfdBc7yAJPI+B0O2cXH9XZL8ZaToic5ji4ZUuew/LAQCq8nx6eTbfcyw5UABghKUTrV+R7GKSAIBy/5S1RYrVnJvNdj4a1QgaE22nB9I3XZrCggCAavqI0//r7ev+LElUFi4BqMw/28/JAAAqgHuLhgr3pZOZ2VGNYHW++2ebtsenS3aZpCKLAgCqQ9GMmaQCsQOgIrXE0om6v0k6mCwAoGI+cn9iBX2k94Gu9VFNIN0w9+WysFNSlLaM/k3SZM65AFSZR7P5zS+VFlHsVhh2AFSkRUWZ/ZIcAKCS+Bke9/ubEq0XSB2R/PzN9s//02FTpp5o8gslbY7CH90sfK9M32D9A6iudzf9nOGfAgCj+6pjyw0AVJ4DXHZ5OrFmSVNDpimKASxZ0jHUm++5woqxY9xU3Y+2dV3b27dg6WFHTL3YTL9n+QOoFsYsQgGA0TXk8f+TVCAJAKhIr3Hzu5sSrRdJLbEoBtC75rr+1X3dbzH3MyU9XIWH+Kji8c9IT5Ueg2HsfZL+ytIHUAUKO1y/IQYKAIyifL7zCUm3kQQAVKxxLrs0naj7cyrVdkJUQ+jt71k0GHqTXJ2SvFqOy2QXPvvpD/391z0Uhv5eSYMsfQAV/g53y8BAz0ZyoADA6LuJCACg4h0XhLq9saH1C6nU+WOiGMDAQM/GbH/3OWb2BpdWV8HJ8W97813f/cf/NDfQc7ubPsGSB1DR73DSz0iBAgAlUDT9QFX0bQkARFjczD4XhJvvm5ZqnRnVEHr7um7ef1K82eQXS9pRoYexQ2F43gv9l6v7uq+UayFLHkCF8oKGfkQMlYtH0lS4dKLtTkknkgQAVM/JlVzXWq19vLe3a1NUQ5ieaG0syq6R9LoK+9U/n813f+HF/oFjJs8av218ze0mHcVyB1BhH1F/yuZ7XkEOlYsdABXPfkgGAFBdb+wytXvBl0+rb3tzVENYme9Znc13v0FmcyQ9XiF/uuxg6F/d1T+1/KHrt9TI3y3pCZY7gIr6gDJmDwoAlFRMIS9CAKhO9WGg/0snMzem0+0HRzQDz/Z1LYyH3iyz68v9dzXzDw8M9GzfnX94Zb5ntbnNFpfyAaggRWP2qHRcAlAF0om25ZKOJgkAqFoPyeyT2b6uSF873piY+zZT+E1JU8tv/NeCbH93654fU9tlJn2SJQ6gAtyTzXcfTwyVjR0AVcFp4gCguk2W+4J0ovVnyWTbEVENYXV+/s83b48fKdllkopl9Ks9XgyGPrl3x7T50xLP0wZQAROHiZmDAgDlIGYxXowAEAn2tpjr3qZE6wVSRyQ/w9ev79yazXdd7KGfKOnPZXFSLH28r+/6h/fuf72oWLShD0pax/oGUNaGmDmq4kyCCKpDOtG2UtI0kgCAyLjV3M7u7e/qjWoAM2d21Dy4duAjLvuSpLpS/R2y+e7Xah+v5W+sb3uFBbpFUi1LG0AZ6s3mu5k1qgA7AKrHj4kAACLlNW5+d1Oi9SKpJRbFAJYs6RjqzfdcYcXYMXL7vxL8CoNhoA9pGG7kt3qg+w65PsayBlCO3P1GUqAAQBkJg2ARKQBA5Ixz2aXpRN0fmxpmHxPVEHrXXNef7e/6F5N9UNLDo/XvNdPXcrnu+4fr52X7u//b5d9lWQMov6Ex/AEpUACgjORy8++WtIIkACCSTnKLLUsnMpemUuePiWwRkO/67mDoTea6UlI4wv+6gTGbh74y3D902+CWs+W6myUNoIzc39u/cDkxUACgzJjZ/5ACAERWjeQXBeHm+6alWmdGNYSBgZ6Nvf3dF8h9pkwrR+7f5B9Z/tD1W4b7p65bt2hbMQjOlLSRJQ2gTHyHCCgAUIaKVrxBw3AdIgCgoqXC0H6Xbmi7pqkpMyGqIWT7e26dMDF+rMkvlrRjmH/897L5nl+M1O/e1zc/F7rP5jMdQBlwK8a+TwzVI0YE1ePxx/+y4aADj3+LpMNJAwAizWSaIdecgw86vu+xx++J5JMCHnxwWfjYhnuWHjLpuP9xWbOkhmH4sU9awd752JN3bxrRz/SN92QPmnT8GEmvYTkDKOHHyR+yA/O/QQ7Vgx0AVcal75ECAGDnh8JhHuon6WTmxnS6/eCoxrAy37M6m+8+TWZz5Hps3yK1i3of6Fo/Gr93Nj/1s276FQsZQAk/R5gtKABQzkINfV/SEEkAAP5+AuctGiqsSCczs6OcQrava2Hc/SiZXb+XP+JPq/NTOkfvV+4Ia3cEZ0kaYBEDKIGhggLu/l9ljAiqT2Oy7f/M9WaSAAA8zxD786LZh/v6uh+IcgrpROtbJbta0tTdPRH20E9aPdBzz6j/rg1zXy4Lb5E0hvULYBT9MpvvfisxVBd2AFQh4zIAAMALf0q8Lea6tynReoHUEdnzgGy+5xebt8ePlOwyScVdpub+X6UY/iUp2z//Tyb9G2sXwKhyZ6agAEBFnNrV2I8kbSMJAMALOMBllzc2rPltMjk3FdUQ1q/v3JrNd11sspMlvdhwv2bM1uIlpfxde/Pd35JrIUsXwKjME9JWqw1+QhIUAKgAvb1dm0z6MUkAAF70BM80M+bh8nQi0zFjRns8sp+b+a4/HzZl6kkmv1DS5n/Kye2jyx+6fkupf89B93NMuouVC2CkufSj3t6uTSRRhZ/9RFCd0ok5b5CCxSQBANhNf5bbvGx/11+iHELT1HkNHoRXy/wtO/+jH2Xz3e8pl98vlZqTDMLgz5ImDuOPHZRsCy8B7Bz96iTFySHiQ6LpDb193b8jCQoAVNDfNt3QlpMpQRQAgN00JNl/DoZhx8BAz/YoB5FqaH17YPbVMIi9MZe7bl05/W6NibbTTfqphm0np30/m+96P8sfkpROZH4s+RkkEWkD2fzUpNQREkX14RKA6uUyfYcYAAB7oEbyi2pjdldTcs4pUQ4i199zUzY/tbnchn9JWp3v/pmZvsJyBTAybAHDPwUAKvGPG3q3JF68AIA945ruHtyabmi7pqkpMyG6QZTvCXBv39T/kNv/sVgBDPsnQA03HKUAQEVaNdAzIOn3JAEA2AsmU7sP+aqmVNs7iaPcdITxgn1A8n6yADCMb/2/y2a78uRAAYBK5d5NCACAvf8c0WEe6ifpZObGdLr9YAIpHyvWzX/cQ71bPPoXwHCN/xKzAwUAKtnWwpYfSNpIEgCAfSsCvEVDhRXpZGY2YZSP1QM998jsQpIAMAye3LS9hkeJUwCgkq1bt2ibTD8gCQDAMDhE7gvSibafJ5NtRxBHecj2dXW61EUSAPaJ6/vr13duJQgKAFS4sOjzSQEAMIzeGnPdm05m2sUjhcvCtsHN58l1N0kA2Ov53ykSKQBQFXIDPbebdBdJAACG0QFyvyadaLslXd86jThKa926RdtiCt4l12OkAWAv/GX1QPcdxEABgCoRmjpJAQAwAl6twO5KJzIdM2a0x4mjdFb2z1/j8vdLKpIGgD1idjUhUACgitSOHfddSU+SBABgBIyT/PObNhTubEpkTiSO0lnd3/MbSf+PJADsgU1Wo+8RAwUAqsiKFVdvdum7JAEAGEHHuvyP6UTm0vr61rHEURrZ/NRLJP2SJADsHru+t7drEzlQAKDKeKD/JgUAwAirkfyi2sDubUpmXkccpdARjhna8QG58mQBYJczQhheSwoUAKhCuVz3/ZItJQkAwChIuftv0w1t1zQ1ZSYQx+i6d+0NGyR7t6RtpAHghdnS1QM995ADBQCq9SXu/m1SAACM1seOTO0+5KvSydYziGN0Zfu7/iL3c0gCALMBKAAiqhirWyTpYZIAAIwa12Fy+3E6mbkxlWp7CYGMZgnQc73k80kCwPO8Nz+2w/0HBEEBgCqWy121w9wXkAQAYPRPNr0lCHVfOtn6r4QxegZDnSfZMpIA8GwWqHtgoGc7SVAAoOr/6LFvShoiCQBACRwit++lE20/TybbjiCOkTcw0LN9SEPvlvQoaQDYqegx+xYxUAAgAlb2z19j8p+SBACghN4ac93XlGi9QOrgfGSE5fML10r2fklF0gBg8p9ks108KYQCAFHhritIAQBQYvu77PJ0Yu0t6frWacQxsrL5rsWSf5EkADALUAAgaicB/T23SrqTJAAAZXAqeooCuzudyHTMmNEeJ4+RLAF6viDZT0gCiC6T7to5C4ACANE63/KrCAEAUCbGSv75TRsKdzYlMicSx8h9+o8Z2p6R1EcUQFTfBfRfhEABgAiacGDt9yX9lSQAAGXkWJf/MZ3IXFpf3zqWOIbfvWtv2GBefLdJW0kDiNz0/2DNfptvJAcKAETQsmWdBTO7hiQAAGWmRvKLagO7rymZeR1xDL/e/oXL5TqHJICIjf9mV69YsWiQJCgAEFFF829L2kYSAIAylHT336Yb2q5JpT6wP3EMdwnQ/R25OkkCiIwdQ2HsWmKgAECE5XLdj0h+A0kAAMqUydQeeO3KdLL1DOIYXmGs7qNSyE2BgWi8m17f33/dQwRBAYCIi1nscklOEgCAsuU6TG4/bky0fiedbj+YQIZHLnfVjmy+hxuCARF4Fw0tvJwYQAEAreybf5+kn5MEAKDcmewDGhrKppOZdtIYvsGACIAqf5GbbsrlFqwgCVAA4OlTqsvIAABQIaeyk+R+TTrR9vNEYvYU8gCAXQ194VdJARQAeEY233WbZEtJAgBQQd5ao9i9TYnWC6QOzmkA4Pnd2tu3gPN8UADguUIP2QUAAKg0+7vs8nRi4Obm5pZa4gCA53KJb/9BAYB/luvv+ZlL95EEAKDy2A6ebQ0A//jWqJWr81N/QRCgAMDzcTP7GjEAACruHNd0KSkAwD+8N4b6stQRkgQoAPC8Jkys+Z6kNSQBAKggd/b2df+OGADgOR6oOzD+P8QACgC8oGXLOgsmu5wkAAAVw+wrhAAAz+Wmry9b1lkgCVAA4EWN2VK4VtKjJAEAKP/hXyuzfVN+ShAA8ByPjts8NJ8YQAGAXVr+0PVbJH2DJAAA5c5lX+X6VgB4LpN/fec5PUABgF2Ljxt3laRHSAIAUMbW1Y7ddAMxAMCzuB5TPLiaIEABgN22YsXVm911BUkAAMr2HNf0NR79BwD/wOzrvb1dmwgCFADYI7X7jbtC3AsAAFCW078eqx07rosgAOC5740W1zcJAhQA2GMrVly92Y1dAACA8mOBXbFixdWbSQIAntMAfINv/0EBgL1/C7HBKyU9ThIAgDKyxeJDXN8KAM/1uNUGVxEDKACw13K57z4psQsAAFBGTN9etWrhYwQBAH/nLr79BwUA9t2Q4ldItoEkAABloFCkmAaAf7Sx4M61/6AAwL7L5zufkPxykgAAlJxpQV9f9wMEAQB/56b/HBjo2UgSoADAsIiPG/cNSQ+TBACghIqBF79GDADwHI8GNcbOKFAAYPjsvNPypSQBACgZ0w9X5RdmCQIAnv3W6F/i2n9QAGDYDYb+LZPWkgQAoDQnLeFXSQEAnj38a20xmPBtkgAFAIbdwEDPdrl9gSQAAKPNTb9a1bdgGUkAwN+FUkcud9UOkgAFAEZEb/+mHplWkgQAYDTFzLkMDQCew7IvmzL1enIABQBG0KKihf55cgAAjB7/06pczxJyAIBnvTNKn16ypGOIJEABgBHV29/zA8n/RBIAgNFggX2ZFADgOe+My1bnu35EDqAAwGjwILT/IAYAwMif42plb27qTQQBAM86GffwU5KcJEABgFGxaqD7V5JuJgkAwAg3AJdKHSE5AMAzfre6v+c3xAAKAIwqD/3fJXFSBgAYKQ/Ex276PjEAwDPCwMJPEgMoADDqVg/03COz75IEAGAkuPnXVqxYNEgSAPDMO+NCHokKCgCUTmzoUyZtJQgAwPCe4+qxcZuLXQQBAM/YVjTuw4V9HN+IAPviscf+sungA4/fT9KppAEAGDamWHFM8NoDJx6XOGjScTWHvuxVDz/yyJ3sBgBG2EGTjv9XSdNIovy4+6W5fM9PSQL7ooYIsM+LaOy4SwvbtmYkO5Q0AADDZIy7Xmtmr5WkwrZtxXSirVeu20y+2OO1N2eznY8SE4CIeCioDb5GDNhXRgQYDulkpl3u15AEAGDUuPKSFiuwpUExvGXVQM8AoQD7eE6XyPxY8jNIotyGNp/bm+/hsihQAKBctMTSibq7JR1NFgCAEjUCD8qC2yQtDq24NJdbcL94TjZAAVD5723Ls/ktJ0iLimQBCgCUjaZk2+vd9VuSAACUiYck3Wny28x88aq+hrulDh5fC1AAVJTQ7c25/q5fkwQoAFCGHxptv5D0LyQBACjD054Nki91s1u8GN56wEG1y5Yt6yyQC0ABUL7859l8z+nkgOHCTQAxrIoWfDTm4X2SxpAGAKDMTqQnSTrd3E+3wLR5Q2FrOpG5W9JtoYdLFSv8Ppf77pPkBKBMDAYK/50YMJzYAYBhl05kLpX8IpIAAFSYIcn+Yu5LJb+tphD77Yp18x8nFkTsPI4dAGUzqdmXs31dnyEIDCd2AGDYxceN/VJh27YPSnoZaQAAKuu8yGe4aYZkHy3UhmE60bZKrtsU2NIhH1qSzy9cS0wARsG6+NixXyEGDDd2AGBENCZazzLZd0kCAFBVXHkFtlTSbTufNLCCUFBN2AFQJkOa2/t6+7tuJAlQAKBySoCGtpvNNJMkAABV3Ag8KAtuMw+XmvltPGkAFAAYBrdm892vFY8xxQjgEgCM3ClRLDzPwuAe1hkAoHrZoXJvcVmLuymdWPOk1PYnky92BUvj4zb9acWKRYPkBGA3DZkXz2P4x4h9ahEBRlI62XaVXOeRBAAgorZIdo+k2yQt3jq4aem6dYu2EQvK9tyNHQAl5dIVq/PdF5IEKABQkY6ectakHTVjeiW9hDQAAHjqSQOSFoceLh1XHLzt3rU3bCAWUABA0sODoTcNDPRsJApQAKBiNSYzrebeTRIAAPyTomT3uMJbzfT70GxpLtf9CLGAAiCKk5nNyfZ1LSQIUACg4tdZOtG2WNLriQIAgF141pMGbCj4Te+a6/oJBRQA1T776/e9fd2vE9f+Y4RxczaMyqlMoOKHQ8X+ImkscQAA8GKTgBJyT0ia5bGi0onWf3jSwIK7GBKAqrLDi/4hXtcYnY8YYJSkE22XSPoPkgAAYJ88LOlPJr/NFSydMKnmjmXLOgvEguE5X2MHQAl8Ppvv/gIxYDSwAwCjJgzqvhyEm8+UNI00AADYa4dIOt1lp0uuTRsKm9OJttulpy4bGAzD2wYGerYTE1AJLDsYhl8lB4zaiiMCjKZUfdtrg0A3s/YAABgxBcmWa+eTBkKrvSWf73yCWLA72AEwqtxMp/X2df+OKEABgOr9YElmFsp9FkkAADAqipLdY+5LJb/NxoS/W7Vq4WPEAgqAEk//UtfqfPdcksBo4hIAjLrQ/GNBqLfKdBBpAAAw4mKSz3DTDMk+6oOxMJ1oWyH5LTK7tRDGlvT3X/cQMQGj6pFYbfGTxIDRFhABRlsu1/2ImfOGBwBA6c7/jpbsI3J9P27h5UQCjDKzj7MTBxQAiIzefE+3m35FEgAAAIiYxdm+ruuJARQAiBKvCYNzJG0iCgAAAETEk0MqzpXkRAEKAETKyv75ayS/mCQAAAAQCWafyOcXriUIUAAgkrL5nm9JWkwSAAAAqHI3Z/u6riUGUAAgytyKsXZJm4kCAAAA1cikrWEQni22/oMCAFHXu+a6fpN9jiQAAABQjULTp3K5BX0kAQoAQFJvfsqVkm4jCQAAAFQTc/1xdd/mb5IEKACAZ3SE5jZP0jayAAAAQJXYEYaxudKiIlGAAgB4lt7+rl45lwIAAACgWvinV6+5biU5gAIAeB7Z/in/JelmkgAAAECFuzWbr7+cGEABALygjjAMYrMl20AWAAAAqFBPxDyYJXWERAEKAOBF5HLXrZP5v5EEAAAAKtH/b+9e4/QsCzuP/69nZsJBEAIqihySySRBU1uEFapSqxa09UBbKmopQgiU1qqfdntcexKr1dbdftoV62qaZCYEa9e02iqttqJSV6y1jQQ1JDPzzExCMIoQE0kCJJnnvvYFrFstag6TyRy+33e+wx9wc9//XPf9lJrXbxxbuUUJDABwAIZG+lenlLVKAAAwzXxocKz/ZhkwAMDB6Or+paR+VQgAAKaH+tXWnM7P64ABAA7S0NDy+5vaWpqkqgEAwFR/+k9y3aZNN22XAgMAHIL22Kp/KslyJQAAmOLP/+8eGh34Bx0wAMBhOGbP+K8lZUgJAACmqE3H7un8lgwYAOAwffHeNXuaVv3ZJHvVAABgitnbtFpXfPHeNXukwAAAE6Dd7v9CkjcqAQDAVFJL/Y12e+UdSmAAgAk0NNr/ZyX5iBIAAEwRHx0eGXiXDBgAYOLVTivXpmSbFAAAHGVfSXfPVfGLVRgA4Mhot/vvazq5IklHDQAAjpImaa4eGlp+vxQYAOBIjgCb+/85qf9dCQAAjoZS87ah0dWfUAIDAEyC08+a93ul5l+UAABgctXPn3BKzx/ogAEAJsltt90wnqbr55LsVAMAgMlRdnTVrleuW7d8vxYYAGASDW5ZMVaT18SHVwAAOPJqSrNs49jKLVJgAICjYHi0/5aa+B4AAABHVilvHxoZ+FshMADAUR0Bdv92kluVAADgSKg1t51+5llvUgIDABx1azv7a9eVKdmmBQAAE+ze7qbnittuu2FcCgwAMAWMja24t+nkiiQuzAAATJTxWluv3Lhl+VelwAAAU0h7c/8/J/l9JQAAmAi1lN8eHlv5aSUwAMAUNDTa/0dJPqQEAACHoyQfGR5Z9T+UwAAAU1c9ZnzvtakZlQIAgEPU3tvUq+LnpjEAwNT2pbv/ckdtul6W5AE1AAA4SLu7SuunN28e2CkFBgCYBoa3rNiYUpbGagsAwIGrpZZrN46s/LIUGABgGhkaWfWhlPJ2JQAAOKCn/1rfOji26gNKYACAaTkCnPV7SW5RAgCA7/nwX/KPw2N73qwEBgCYtm5oSk+5IsldWgAA8F0MdmrPq5K1HSkwAMB0vpoPrtpVarksyTfVAADgO+xqWrlsdHS5e0UMADAjRoCxVYOllquSNGoAAPCopiZXtNv9TotiAIAZNgJ8uJa8SQkAAJKk1vz+8Gi/70VhAICZaHik/w9TyholAABm+9N//vfwWP/bhMAAADP4Ut9z7K7ras1tUgAAzFbl9qbrhKuTVC0wAMAMtmHD2n1dx3RekaStBgDAbFPHOmX/Ze32jXu1wAAAs8CmTTdtr52uS5PsVAMAYNZ4oKt0XToysubrUmAAgFlkeMuKjU0tr0oyrgYAwIw3Xmt9xcaRlV+WAgMAzELtsVX/lJrXKgEAMNPVXx4eG/i4DhgAYBYbGutfkVpuVAIAYMb606HRgXfLgAEAyNDYrv9aSz6sBADAjPOhodHdvyEDGADgUWs7D+3d/eokn9UCAGCmqJ/f/XDPlcnajhZgAIBvueeetQ+15nQuTTKoBgDAtNduWuVl27Ytf1AKeESRAL7dokXLejNeP5vkNDUAmAX+LaWskIEkSa2vTXLuDPh/8rXS6XrO4JYVY/6mggEAvqdzFlx9flNbtyU5QQ0AgGllV9PK89vt/i9IAd/OKwDwGDaNrF6XUl6ZZFwNAIBpY38p9ZUe/uGxdUkAj237jjvaT5h73miSn47TMgAAU12tyc8PjQ78tRRgAIBDGQG+9IRTzmuSvEANAIAp/PRf8vvDo/3vVAIMAHA4I8CnTz3lmScmeY4aAABTUMm7hkf63ygEGABgAkaA9R8/de65ZyTlPDUAAKaUm4dGz/6F5LYqBXxvPgIIB6YOje75hZp4pwwAYKrcoJV8+PSzzr4muaFRA74/HzaDg7BkyeVz9j18wodLzYvVAAA4qj61r6kv2bx54GEpwAAAR8Tpp19//AnH7v94fBMAAOBo+bfSU35scHDVLingwHkFAA7Stm3LH2zN6Vya5C41AAAm3YbWnM5PePiHg+cEAByiRYuuemrGuz6TZJ4aAACToY6lu/mRoaGbvqIFHDwnAOAQDQ3d9JWu2np+ki1qAAAccfc0rXqJh38wAMBRsXFs5Zau1EtSsk0NAIAj5t7a6XpRu716RAo4dF4BgAlwTu9Vi5q0bkvKU9QAAJhQ9zWt5gXt9uoNUsDhcQIAJsCm0ZuG0uSFSe5VAwBgopQdTav1Yg//YACAKWVo88Cm1PLi1GxXAwDgsO0syYva7ZV3SAETwysAMMEWzlt6bmmVTyQ5RQ0AgEPyQGrrkqGxlZ+XAiaOEwAwwYY3D6xvmvrSJH6bFgDg4O2ptfVyD/9gAIBpob154HOlND+R5AE1AAAO2ANJ+fHhsZWflgImnlcA4Ag6Z8HV5zdN6x9TcqoaAADf0zebpv54e/PA56SAI8MJADiCNo2sXtd0tS5Jcr8aAADf1c7U1os8/MOR5QQATIK+vmue3mryiSRPVgMA4Nvcl1ouGRpbdacUYACAGWHRvKXnpKt8IjWnqwEAkCT5eiv14k2jA1+SAgwAMKMsnr9scS31E0meqgYAMMt9rWk1F7fbqzdIAQYAmJHOmbd0XtPKJ5MyXw0AYJba2imtF46MrGxLAZPHRwBhkm3aPLC51eSFSfwHDwCYjdqtpj7Pwz9MPicA4CiZP/+603pK52NJzlUDAJglNpT95UWDW1dtkwImnxMAcJSMja24d19TX5CU29UAAGa++vnWnM6PevgHAwDMSps3D+zc/XD3i1LLx9QAAGawT5ae1sWbNt20XQo4erokgKNr1651+5/81L61TWfO4iRLFAEAZpbyt/uaetnISP+DWoABAGa9++67q7N9x8IPnXrKMU9Jcr4iAMCMUHPT6WeffeX69X+2Tww4+nwEEKbYv5MLe6/5o5L8phQAwLS+qal55+BY/68kqWrA1OAEAEwx39ix/tZTTz5vd0ouiZEOAJh+mqT++tDYwJukgKnFwwVMUQt7l/1MSb05ybFqAADTxL6aLB0e7X+/FGAAAA7COX1Ln9805UNJTlYDAJjidjZNfqq9uf+fpQADAHAI+vquXtLVtP6hJmepAQBM0aeKbWnKS4bGVt0pBhgAgMOw+Mxlp9ee+vdJzlUDAJhKavLlpuQlIyP9W9WAqa0lAUx9g1tXbSs95Xkl9Z/UAACmkE910nORh3+YHvwKAEwT27ffsW/uqT+yttT9fUl+QBEA4GgqyV/2HLf78qGhNQ+qAQYAYIJ94xuf72zfcccHT517XpL8aLzGAwBMvpqUdwyNnv36++5797gcMH14eIBpavH8Za+spQ4kOU4NAGCS7E2tPz80NrBGCjAAAJOor2/Zs1tN/VCS09QAAI6omu01rcuGx1Z+WgwwAABHweKzr5tfuzq3JHm6GgDAEbKhdLpePrhlxZgUMH35FQCY5ga3rBgrPeWHk9yiBgBwBHx8X1Mv8vAP05+PAMIMsH37Hfu271j4gVNPPmZuSi5UBACYEDXLTzyl58qNG1f60j/MAF4BgBlm0fxlr0upf5qkRw0A4BDtT+qvDI0OvFsKMAAAU3kE6F12UVLXJnmyGgDAQbq/lLxqcKT/k1KAAQCYDiPAoquemvHWB5NygRoAwAGpuaMrrZ/eOLZyixgw8/gGAMxQ27ffuevEk869uavkjKScqwgA8H28f/fenp8a27rifilgZnICAGaBRQuWXZ9a3xXfBQAA/rNOSf2dwdGBP5YCDADADLBw/rXPK6VZm+RJagAASZKa7Snl1UOjq24VAwwAwAyyaNGy3ozXDyb5ITUAYNY//N9Rmq6fGdyyYkwMmB18AwBmke3b79hx4knnDnSnPD4lFyoCALNUKWt2P9xz2eZ7/uI+MWAW/asvAcxOixYsu6rU+r9qcrwaADBrPJyaNwyN9a+QAgwAwCyy8Ozrnla6O3+TmqepAQAzW02GW7XzisGxm76oBsxOLQlg9hresmJj6S4XppS1agDAjH76/7v9Tb3Awz/Mbk4AAEm+9VP06V+VAAAOXklEQVSBNyaZowYAzBjjJfV3B0cH3pGkygEGAIAkyeIFVz+31tZfJTlDDQCY9ra2Sl69aaT/s1IAiVcAgP9gcGT17ePp+YGUfEANAJjGav6uNafzTA//wH/kBADwmPxKAABMSw+X1P82ODrwzjjyDxgAgAPV13fN01tN/irJM9QAgClvU2p59dDYqjulAB5LlwTAd/ONb6y/77jHLRyY05pzYkouVAQApqhS1hy7Z/wn77pn9VYxgO96qZAAOBALe5deVtJakdS5agDAlPFATX5xeLT//VIABgBgwpwzb+m8plXel+Q5agDAUb+Vv72rlp/bOLZyixbAgfAKAHDA7t+5fuf2HQtXP2Fuz4NJeZ5rCAAcFeNJecvQ6K5r7t958w45gAPlBABwSM7pXfqMJmVNkh9SAwAmzV1NK69pt/u/IAVwsPzpHXBI7t+x/usnnnTuQFdp9eSRVwIMigBw5NTU/MXuvT0/s2XLyrvlAA6FG3bgsC1ecM0La81AkjPVAIAJv2G/OyXXDI70f1IN4HA4AQActu071o/NPXXJytJ0nZqS8xUBgIl6+i9re/a1Xr5xy6q7xAAO+5IiATCRFs+/5hW15M+TPEkNADhkXy81rxsc6/9rKYCJ4gQAMKG271x/1+knPn1lp3TPdRoAAA5BKWvT3fPSoZGV/y4GMKGXFwmAI2VR79KXJOW9Sc5QAwC+r6/V1NcNjw58UArgSHACADhitu9YP3zS3AtWtWpzSkrOi9ERAB5bKWtbczovHRpe7ef9gCN3qZEAmAznzLvmxbWV5TU5Sw0A+Nbd+LbSlNcOjq36sBjAkeYEADAp7t+5fmTuqUtWPfpLAU4DADDb1Zq8p9VTfmqwvepLcgCTwQ04MOkW9S67KKnvSbJEDQBm3ZN/Mtwq+cXBkf5PqgFMJicAgEm3fccdd8/rveAv9j/c2ZOUi5J0qwLALPBQUt5WWydcMTzy3rYcwGRzAgA4qvr6rl7Q1ZR315QXqQHATFVrbiu1vnZo88AmNQADADCrLZ6/9PJayruSPEkNAGaQe1PKbw6NrFqTpMoBHE1eAQCmhO0719914knnruhOOT4lz4qBEoDpraaUm9Pd85ND7RX/IgcwFbjBBqacRfOX/khK3pWUH1QDgGlofSnN6wdHVt8uBWAAAPi+bmgtWnD3lan1T5I8QQ8ApsGt9Y6S5s2Do3velazt6AEYAAAOwpIzrj1lvKd5Uy15Xby2BMDU1KSU93Wy/9dHRtZ8XQ7AAABwGPr6rjmv1eTGJM9RA4Ap5N+bpr6hvXngc1IABgCACbxmLVqw7DWp9R1JTpMDgKOmZnsp9S2Do/NuTG5oBAEMAABHQG/v9Sd1Z/z3k/r6JHMUAWAS7S0lN3bKvre02+97QA7AAAAwKUPAVWd1l+63ptYrXc8AmAS3NK3mV9rt1SNSAAYAgKNg4bxrLiyt8idJfa4aABwB/5Zaf21obOD/SAEYAACmwPVs8fylr6gpf5SSXjkAmABbU8rvDo2sWpOkygFMd35SC5gxtu9cf9eTn7rwPXW8Z3tSnp3kWFUAOAS7k/L2fU191chY/zo5gJnCCQBgRlqw4DVP6kr376Xm+vhQIAAHZl9qeW/TVd/SbvffJwdgAACYRnp7rzqru3b9TkqujVNPADy2JqX8TVM6b/SBP8AAADDNLTz7uqeV7ubNqfUVrn0A/Ae3ppZfHxpbdacUgAEAYAZZNP/aC1Lq25L6Y2oAzOrb4NtTmzf6sj9gAACY6UNA77KLkvr2JBepATCb1M8n9beHRld/QgvAAAAwi66Bi/uuubR28qaUPFMOgBl9yV/X1ObN7bGBW+In/QADAMDstah32cVJfVuSZ6kBMKPcWWr9w8Gxgb/24A8YAAD4jiGg+cOkXKAGgAd/AAMAwKwYAupbk1yoBsC0sr7U+jYP/gAGAICDHAKWvqTU8ru15NlqAEzp29rbS2neOjgy8DEtAAwAAIcxBCy7KKm/leSlrp0AU+vBv6nNH7fHBj6iBYABAGDCnNO79BlNaf1Gan11kh5FAI6KJsk/tEpzw6aR1evkADAAABwxT5t/7dlNml9NyXU1OV4RgEmxN6V8oJPyByMjK9tyABgAACZNX981T2w1eX2S1yc5RRGAI+L+pPx5a874jZs23bRdDgADAMBRHALecEyr7nlVav3NJEsUATh8NRlupf75MXs6K75475o9igAYAACmFB8MBDjsW9T/92G/W+Kn/AAMAABT3dN6ly5sanl9Lbk2yeMUAfie9qaUD3SlvGPjyMovywFgAACYdnp7rz+pJ/uWJuVXa3KWIgDf5mtJeW+6u981NLT8fjkADAAAM8DlXYt6T3xBUn85Xg8A3IbeXmrzP084Zc7frlu3fL8eAAYAgBlpwYJr+7pqvS6p1yZ5giLALLEzNR9oupp3tturN8gBYAAAmDX6+t5wTFdn16W1lOuTXKwIMENvOdelZPnuh7pv3rZt+YN6ABgAAGa1hfOWnttqlV+syRVJTlQEmOYeqMn7WrXznsGxm74oB4ABAIDvMG/e0mOPKXn5o6cCfsy1Gphmt5frUrK859hj/3LDhnfv1gPAAADAAViw4Jozu2u9oia/kJT5igBT1FeScnOnlBUjIyvbcgAYAAA4ZDe0FvXe/ZzU+ppScmVNjtcEOMr2ppQPN02z5oyz5330tttuGJcEwAAAwAR6xllXzN3bPednSy1X1pIfdi0HJlFN8i8luXlvU9+/efPATkkADAAATIJHXxG4LClX1eQ8RYAj5K6krO2UcrMj/gAGAACOsr6+q5e0mq7Lk3plkgWKAIfpnlLzwVrK2qHRVZ+RA8AAAMCUc0Nr0fzNz60lV5RaLk/JqZoAB+j+pHwgyfuHRlfdnkeO/ANgAABg6ru8a1Hvic8utV5eS708KU/RBPhPD/2lfLRpmrUnnTLnY+vWLd8vCYABAIBp7dFfEkheltRXxGsCMJttTc1Hm9RbfMEfwAAAwAz3/78ZkJ9N6iJFYMbbUmr+7tF3+h3vBzAAADAbLZy39NyU8tJS8vIkz0rSUgWmvSYln09TP5K0/n5obNWdkgAYAADgWxYtuv4JZf++F9RW6+Wp9dIkJ6kC08aeJJ9KKR8p+3LL4NZV2yQBwAAAwAF45COCSV6WUi9NzdM0gSmmZjTJrU3qLcccv+cfN2xYu08UAAwAAByWc3qvWtTU7ktqq76o1Dw/yeNVgUn3zaR8Kmk+3pV8fOPowLAkABgAADiCLu86Z8Hx59ZaLq4pFyd5XpI5usCE6yRlfZJbk9zac9yuT/tTfgAMAAAcNb2915/UXcZfWGu9pCQvTLJYFThkm5LyyZTm4+N1zqdGR5d/UxIADAAATEnz5193WlfGL2iV1nOTXJzUZ8avC8Bje/Q9/rTK7Z3UT42M9G8VBQADAADT0uLFy06s+3PhI2NALkrqBUl6lGEW6iQZTM1nSuqttWfOp4aGlt8vCwAGAABmpL6+n3t8qx7z3NRcmJoLU+oPJzlZGWbg7daO1PxrSvO5UvKvnbL/s+32+x7QBQADAACz1uIzl52e7ua5SbmolnJ+Up8VHxZkennkT/dLWZfkM03p3N5uz9+Y3NBIA4ABAAC+ix887TWPe/C47v/S1ZULay3PfPQ7AgvjWwJMDU2S4aTcUUu+kKb863EP7lv3xXvX7JEGAAMAABymJUt+6YTOw3sWN+laUpp6/qMnBc5Lcpw6HEH7kwynlHWlNutqWut6jjt2/YYN794tDQAGAACYJOeff33Prm+MP7228sxW6pLalB9IqU9LcrY6HKSaZEuSjaVkQ02+nKasP/GU7rvWrVu+Xx4ADAAAMAX19b3hmOSBvq5OeXotrSUpeXpqXZLknHiNgNSvJmVDqbmrtsqG1NxVenLn4OCqXdoAYAAAgBlgyZJfOmHv3ocWdXVKX03TV0tZUFL7Ukpfak5XaEb5SilpNzUjJWmXWtudrjJy/K7xQe/qA2AAAIBZ7PTTrz/+xGMe7qut7gU16WvVuqAmZ+aR1wnOTPJ4laaUB5JsTbKlpt6dWkZKq4y0atPevW9P+5571j4kEQAYAADgoPX2Xn9Sq7X3jFZTzq6lnNlqckZNzqrJWaXkKUmenOQkpSbEN5N8Lcm21Gwtyd21VbamNvc0rbolGd/abr/vAZkAwAAAAEfFI98eeOiJXU3z5CbltJT6xFLz5JrmtCRPLClPSsopqXVuSpmb1JNnwX+Ta1J2ptYdKWVHUr9RU79eUr5eUu9tSuve1HJfK/XeTqv1teS4+9rtG/f6pwkADAAAMKP09l5/0pxm39xOcnJXd05uak6utcwtyckldU5NTi6ldNcmj09yTFrl+NT6uCRzkpyUmu5858mDVo5NLd/x84h1TpLHPfo/9iRl37ffGdSH0uTh7/jL+2ZKxvPIn8jvSyl70tQHk+wtrTxQax0vyc6asq8mO0upO1olOzvj2dldunbsLV07R0eXf9PfZQAAAAAAAAAAAAAAAAAAAAAAAAAAAAAAAAAAAAAAAAAAAAAAAAAAAAAAAAAAAAAAAAAAAAAAAAAAAAAAAAAAAAAAAAAAAAAAAAAAAAAAAAAAAAAAAAAAAAAAAAAAAAAAAAAAAAAAAAAAAAAAAAAAAAAAAAAAAAAAAAAAAAAAAAAAAAAAAAAAAAAAAAAAAAAAAAAAAAAAAAAAAAAAAAAAAAAAAAAAAAAAAAAAAAAAAAAAAAAAAAAAAAAAAAAAAAAAAAAAAAAAAAAAAAAAAAAAAAAAAAAAAAAAAAAAAAAAAAAAAAAAAAAAAAAAAAAAAAAAAAAAAAAAAAAAAAAAAAAAAAAAAAAAAAAAAAAAAAAAAAAAAAAAAAAAAAAAAAAAAAAAAAAAAAAAAAAAAAAAAAAAAAAAAAAAAAAAvrf/C8gm79rXrrh0AAAAJXRFWHRkYXRlOmNyZWF0ZQAyMDI0LTA3LTIxVDIwOjAyOjA4KzAwOjAwtiMlGAAAACV0RVh0ZGF0ZTptb2RpZnkAMjAyNC0wNy0yMVQyMDowMjowOCswMDowMMd+naQAAAAASUVORK5CYII=;" parent="1" vertex="1">
          <mxGeometry x="260" y="190" width="60" height="60" as="geometry" />
        </mxCell>
        <mxCell id="vH1DzTLoHbvqbGa9TRak-21" value="" style="shape=image;verticalLabelPosition=bottom;labelBackgroundColor=default;verticalAlign=top;aspect=fixed;imageAspect=0;image=data:image/png,iVBORw0KGgoAAAANSUhEUgAABAAAAAQACAYAAAB/HSuDAAAABGdBTUEAALGPC/xhBQAAACBjSFJNAAB6JgAAgIQAAPoAAACA6AAAdTAAAOpgAAA6mAAAF3CculE8AAAABmJLR0QA/wD/AP+gvaeTAAAAB3RJTUUH6AcVFAIIxOap7gAAgABJREFUeNrs3Xt8XHWd//H350wmbWkKLSAVhDaZmUxawr2gKIpV8bKKipfgirZNpiUogrDrBbytQf0pqOtyWVECTdKi6FKvi5dVq1SgCmIBC6XNdDJJSy1ybaH3TOZ8fn9QEBToLclczuv5eOzjsQ/FkPPOd2bO5z3fc44EAAAAAAAAAAAAAAAAAAAAAAAAAAAAAAAAAAAAAAAAAAAAAAAAAAAAAAAAAAAAAAAAAAAAAAAAAAAAAAAAAAAAAAAAAAAAAAAAAAAAAAAAAAAAAAAAAAAAAAAAAAAAAAAAAAAAAAAAAAAAAAAAAAAAAAAAAAAAAAAAAAAAAAAAAAAAAAAAAAAAAAAAAAAAAAAAAAAAAAAAAAAAAAAAAAAAAAAAAAAAAAAAAAAAAAAAAAAAAAAAAAAAAAAAAAAAAAAAAAAAAAAAAAAAAAAAAAAAAAAAAAAAAAAAAAAAAAAAAAAAAAAAAAAAAAAAAAAAAAAAAAAAAAAAAAAAAAAAAAAAAAAAAAAAAAAAAAAAAAAAAAAAAAAAAAAAAAAAAAAAAAAAAAAAAAAAAAAAAAAAAAAAAAAAAAAAAAAAAAAAAAAAAAAAAAAAAAAAAAAAAAAAAAAAAAAAAAAAAAAAAAAAAAAAAAAAAAAAAAAAAAAAAAAAAAAAAAAAAAAAAAAAAAAAAAAAAAAAAAAAAAAAAAAAAAAAAAAAAAAAAAAAAAAAAAAAAAAAAAAAAAAAAAAAAAAAAAAAAAAAAAAAAAAAAAAAAAAAAAAAAAAAAAAAAAAAAAAAAAAAAAAAAAAAAAAAAAAAAAAAAAAAAAAAAAAAAAAAAAAAAAAAAAAAAAAAAAAAAAAAAAAAAAAAAAAAAAAAAAAAAAAAAAAAAAAAAAAAAAAAAAAAAAAAAAAAAAAAAAAAAAAAAAAAAAAAAAAAAAAAAAAAAAAAAAAAAAAAAAAAAAAAAAAAAAAAAAAAAAAAAAAAAAAAAAAAAAAAAAAAAAAAAAAAAAAAAAAAAAAAAAAAAAAAYDcYEQAAUH6fz0dPOWvijrFjJwXF4iSXxrrHxsnCOgsVd2mimdVIvr/Lxki2n8zHK1TtMz8h0ETJnvM5b+5jXRr3DycC29xs+3P+7aGHkp541s8alNsWybeafIdkT7r7kEkbPVBBHmw2K24rWrAtCGzjmO3bN9y79oaNkpw/JQAAFAAAAERCc/O5ddu373hpXOEhofwQ9+ClpnCyyyaZa6KkiRZoou/8/3f+3wFVcvhPSNooaaOZNnr41P/vpo0mPe6yh83CvwWyhwsKHh6/efDB5Q9dv4VVAwAABQAAAGXjsMPa9xsfD6d6EB4Rs/BwVzBF5i9z6RCTDpHrpSYd4tJ+pLVHJyZbXXrYXA+GgR4x2UPy8K8mPRC6HlBYs25LIVizfn3nVtICAIACAACAfZZOtx8cDg6mYmYpl09xs8NNOkLyKZIdLulAUiqpxyVfJ9nap/7P15lsbRh6zmrjfdls56NEBAAABQAAAJKko6ecNakQjyc8tIRMCXdLyKxZ8mY9tRUflWu7pLzMVsiVlykvV141ymezUwakjpCIAAAUAAAAVJWWWDK5f0NN6Ee66cinhnubLvk0SePJJ5K2SLZKpvvlut9c9xdjxRW5XEM/xQAAgAIAAIAK+ExLJucmY/KjFYbTzazZXdNlmi5pLPFgN2yTa5Wb32+yFTJfGZrfm8styIsnGgAAKAAAABh9M2d21Kxb198UeGyGfOe3+q5XynQQ6WAEbJJsubkv88BWyHV/GIy/M5e7agfRAAAoAAAAGCap1PljbGjzcUGgE9zseLkfL+loSWNIByW0XdJ9ct3lZncr9Lu9pu4eSgEAAAUAAAC7qemIzGHFmnBGYMEpkl4t+QyxhR+VYUhSVq7bFNjS0IrLcrkF94vLBwAAFAAAgKhrbj63rrBt+3GmcIZbcIrcT5U0mWRQRZ6QdKdkS0MPl40pxJauWDf/cWIBAFAAAACqWir1gf2DcMzLJZ2mp77df7mkOMkgQoqSeuW6zeSLPV57czbb+SixAAAoAAAAFa2hYd7kmIZevnM7/2mSHy8pIBngWVx5SYsV2NIhH1qSzy9cSygAAAoAAEBZSyZnHRJ4zRtM/gaXnWpSI6kAe3x6lpX5LZL/NjT7bS7X/QiZAAAoAAAAJVVf3zq2Ngherae29PMNPzASXHmTfuZmNw2G4W0DAz3bCQUAQAEAABhx6XQmoeLOgd/9LZImkAowarZJWmryxWa+eFXfgrvEUwYAABQAAIDhkEp9YP9YsfZNLp0u079IOoRUgLLxkEm/CGU/D+L6dW9v1yYiAQBQAAAAdlvT1HkNXhO+Ue5vl/RGSWNIBSh7RcluN4U3hcWa/1295rqVRAIAoAAAAPyDlti05H7HhR57u6TTJZ9BJkCFe9a9AyZMqvn9smWdBUIBAAoAAEAE1de3jh1jwZtc/h6ZvV3ySaQCVK3H5boplP9wyPUbbiQIABQAAIAqd/jhLePGxsefFgRBi9zfKWl/UgEid/K31aXfyWyR1ejH3DcAACgAAABVor6+deIY0xs9CN4u93dJqiMVADttl7RYZouGvOan+XznE0QCABQAAIAK0tx8bt3Q1m1nuOn9kk6TVEsqAHZhh+SLTcH3xmwp/GT5Q9dvIRIAoAAAAJSlllg6MeF1Ms3mm34A+2i7pMXmvrBmvy0/XbFi0SCRAAAFAACgpDqCdGLtq8y9xU3/KukQMgEwzKeLG2T6mVwLs/mu30pyMgEACgAAwCiZlmg9uij7oEnvl3QEiQAYpRPHtS77XszsOyv75t9HIgBAAQAAGAGJRPsBNTb0PrlmS34KiQAosftNvtBraudns52PEgcAUAAAAPZJR5BOrH29TLPN/T0u7UcmAMrMDpn9bxiG1x8+tf6XS5Z0DBEJAFAAAAB2UzLZdkSN+1kunSNZA4kAqBB/lew7RbPr+vrm54gDACgAAADPI5U6f0ws3PJeV9gu2Wt4jwZQwdxMt4Suazyo+1Eud9UOIgEACgAAYPBPzUkGYexsyTOSXkIiAKrMRnMt9Lhdkc125YkDACgAACBinrm2v13u75YUIxMAVS6U9Dtz7zx0av2PuVcAAFAAAEBVa65vfelQoDku+7CkqSQCIJr8QSlYOKShq/P5hWvJAwAoAACgakxLtr0qlF0o9zMkxUkEACRJBZl+HEhXrOrr/gNxAAAFAABUpBkz2uObHx88w80ulPQqEgGAFz0pvcvNrpgwseZ7y5Z1FkgEACgAAKDsJRLtB8Q12Oqyj0k6gkQAYI/8TbJrVFPz39ls56PEAQAUAABQdqYlZqfdYx+RaZ5L+5EIAOyTHTK7MfDwa6vyPfcSBwBQAABAyTU2tL7RzD4h6TTeVwFg2LnJf+Pyr2bzC35LHABAAQAAo6wjSDUMvC0w+4ykV5AHAIyKe2T2X9m+Td+VFhWJAwAoAABgxDQ3t9QWtk/4V7l/StI0EgGAEnDlzfzKLYNbOtetW7SNQACAAgAAhk1TU2aCCmHGZZ+Q9DISAYCy8LBk3xoztP2Ke9fesIE4AIACAAD2WkPDvMk1Vvx3kz4kaX8SAYCy9ITk3ypa8b/6+q5/mDgAgAIAAHZbKtX2kiC0j5n8fO7oDwAVY4u55gdh/NKVazofJA4AoAAAAAZ/AKhuO+RaYEN2Se8DXeuJAwAoAADgGcnkrENiHv93yT8qaRyJAED1FAGKF7+QzS78K3EAoAAAAAZ/Bn8AqG6DcvVQBACgAACACEql2l5ioX/aZB+WNIZEACAStkt2tWpqvpLNdj5KHAAoAACgijU3n1s3tG3rR1z2KUkHkAgARNJmyb45pJqv5POdTxAHAAoAAKiqwb+ltrB9QqvcvyBpMokAAOR6zMy/tmVwy5Xr1i3aRiAAKAAAoKJ1BE0NA+9x02WSNZAHAOB5rJPZFw87YkrXkiUdQ8QBgAIAACrs/a2pIdPipi9KniYOAMBu6DX3z/X29/xAkhMHAAoAAChzjfVtr7DA/lPyU0gDALAX7nQPPr66f/4tRAGAAgAAylAiMXtKjdV8Se4f5P0NADAMfhYG4YW53II+ogBAAQAAZeDoKWdN2lEz9iLJLxSP9AMADK+CXN1hTJ/N5bofIQ4AFAAAUAIzZrTHN20capP7lyS9hEQAACPocZN/tRhMuDyXu2oHcQCgAACAUdKYyLzH5JdKSpEGAGC0uLTazD+Z7ev5CWkAoAAAgBE0LTE7XbTYleZ6M2kAAEro5pgFH13ZN/8+ogBAAQAAw+iYybPGbx8f/4Tkn5JUSyIAgDJQMNe3irHBz+Vy332SOABQAADAPr5PpZOZWXK/TNJLiQMAUIb+JrPPZ/umXCd1hMQBgAIAAPZQKjX3+CD0qyQ/hTQAABXgTg91/uqB7juIAgAFAADshqOnnDVpMDamw00fkRQjEQBABQll9t3Q/GM8NhBAueHEGkA5sXQyM7sYxG6S6fWSAiIBAFTaZ5mkY81t3kEHHr/hsQ1330UkAMrpDQoASm56orWxKLta0mmkAQCoHn5LGNiHc7nu+8kCAAUAgEibMaM9vnnD4L+77BJJY0gEAFCFCpJ9YzAMOwYGerYTBwAKAACRk6pve20Q6NuSppEGACACcu5+7ur+nt8QBQAKAACR0Hz43AML8fArMp3N+xAAIHpn4LaoqMJ5fX3XP0wYACgAAFStdLJtjlzfkHQgaQAAIsv1mOT/lu3vuZ4wAFAAAKgq06e2H1oMCt+S6Z2kAQDAM35ZNJ3T19f9AFEAGGk8BhDAiGtqaG0Jg/AXMh1PGgAAPEdjIGUOOvCEx3lkIICRxg4AACNmWn1rfRhYp6Q3kgYAALvitxQtNrevb36OLACMBHYAABgJlk5m2t30Y0nTiQMAgN36+Jwak887eNJxxcc2nPFHaYmTCYBhfZchAgDDKZWak4x5MN9dryUNAAD2jruWeCycl8st6CMNAMOFHQAAhk06mZltbjdJSpMGAAB7z0z15nb2wZOO2/zYhnv+RCIAhuW9hQgA7KuGhnmTa4Jip7neQRoAAAwvN/0qGLRM7wNd60kDAAUAgJJpTGTeY/JvSzqYNAAAGDEbXf6R1fmeG4gCAAUAgFGVSn1g/6BY+zWZ2kkDAIDROnu3RWMK28+5d+0NGwgDAAUAgBE3Ldn2qtC1UFKSNAAAGPUT+LUya+3t67qZNABQAAAYEanU+WOCcMuXJb9QUkAiAACUTGimbxSt7rO53FU7iAMABQCAYdPUkGly+fdkOp40AAAom5P5u0zF96/KL8ySBoBd4TGAAHYpnczMlvynMk0lDQAAysqhrmDezscF3kEcAF4MOwAAvKCmpsyEsBB+y2QfIA0AAMqbSz8ohH72wEDPRtIAQAEAYPeH/0TmRJd/T1KKNAAAqBhrAtNZq/q6/0AUAP4RlwAA+EfWlGi9wKXvS3oJcQAAUFEmujTnoEknxB7b8M5bpCVOJACeOdEnAgBPSyZnHVLjsetd9ibSAACgsrnpV26alct1P0IaACgAADwjnWg9SbJFEjf6AwCgivzVLHxfb9+CpUQBgEsAACidzLRL+qGkA0kDAICqsr9ksw+edNzgYxvu4b4AQMSxAwCIsKamzAQf0ny5t5AGAABVzvXTQfdWnhIAUAAAiJjG+tbjLLBF4i7/AABEqAPQ6sCL7+3tX7icNIDoCYgAiJ50MjM7CGwpwz8AANFiUqNb7I50Q+vZpAFE8j0AQFTU17eOHRPY1S61kQYAAFHn8wdDnTcw0LOdLAAKAABVJJ2e/TINBT+S7OWkAQAAnuoAdHdMwbtW9s9fQxhA9eMSACACmpJzTtFQ7M8M/wAA4DlMxxctvHNaqnUmYQDVj8cAAlUuncy0y+1/JB1AGgAA4HmMd7cP7nxU4FLiAKoXlwAAVaq5uaW2sH3Cf8udm/wAAIDd4+qM77f5/BUrFg0SBkABAKACpFJtL7GibjTTTNIAAAB76A+xYvy9K9d0PkgUAAUAgPIe/k+IhfqxS1NIAwAA7OWUsN6Levfqge47CAOoHtwEEKgiTQ2tLUGo2xj+AQDAPnEdZoF+39TQ9kHCAKoHNwEEqoM1JVovcrNvS4oTBwAAGAY1Mr3roEknjHtsw92/JQ6gCoYGIgAqWyp1/pgg3HydJBp6AAAwQlODLdq6Y9OcdesWbSMMgAIAQAmk0+0Ha6jwI0mvIQ0AADDCk8PthTB2Rn//dQ8RBkABAGAUTU/OParo4U2S6kkDAACMknVhELwjl5t/N1EAlYebAAIVaFp925uLHt7G8A8AAEbZ4UEY3tKYaDudKIDKw00AgQrTmGw9X2YLJY0jDQAAUAK1Jr3voIknPPbYxrvvJA6AAgDA8LN0ItNh0mVi9w4AACitQKa3Hjzx+AMf23jGr6UlTiRABQwURACUv+bmltqhbXXdLp1FGgAAoJy49INC6LMGBnq2kwZAAQBgn4b/c+sGt2/7gbneTBoAAKBM3Tyk+Lvy+c4niAKgAACwF6ZPbT+0GCv8QtJxpAEAAMqZS/eFprf29XU/QBoABQCAPZBKtR0ZC/VLl6aQBgAAqJDpYr1Ce2u2v+svhAGUH24kBpTl8J95ZRDq9wz/AACgorgOk+nmVH3bawkDoAAAsAvpZOZdQei/k3QwaQAAgApsASYFgf4vnWw9gyyA8sJjAIEy0tTQ9kFJ35VUSxoAAKCC1UjWcvDEE/762Ma77yYOgAIAwLOkG9rOk+kaXpcAAKBKBDK9/aCJJ2x+bOPdfyQOgAIAgKSmROtFMvuGuDEnAACoLibTmw6adMK4xzbcvZg4AAoAINIfiulE2zck+xxRAACAKvbqgyadcMhjG975f9ISJw6gRMMHEQCl0hJrStRd61IbWQAAgIgMHzfUTYq3LlvWWSANgAIAiIRU6vwxQbj5BknvJg0AABAxP9s6uPnMdesWbSMKgAIAqGrHTJ41fvv4mv+V9HrSAAAAER1Dfjt2S+Gdyx+6fgtZABQAQDUP/zdJeh1pAACAiLvN4vbW3t6uTUQBUAAAVSWRaD+gRoVfSHoVaQAAAEiS/jxmaMeb7l17wwaiACgAgKpQX986sTZmv5TrZNIAAAB4zkiyLKgdevOqVQsfIwtgZAVEAIyso6ecNak20K8Y/gEAAJ6PzwgHY4vT6faDyQIYWewAAEZQKtX2kiDUbyQdSxoAAAAvOpmsjA3F37ByTeeDhAFQAAAVJZmcdUjMaxZLOpo0AAAAdssqK9gbeh/oWk8UAAUAUEnD/82SjiQNAACAPSsBCh6b2d9/3UNEAQwv7gEADLOjp5w1qcZrfsnwDwAAsFemxa24pKFh3mSiAIYXOwCAYVRf3zqxNggWSz6DNAAAAPaFLw9qw9fzdABg+LADABgmiUT7AbWB/ZrhHwAAYDjYMeFgbHHz4XMPJAuAAgAoG8dMnjW+RoWbJJ1EGgAAAMPmuEJt+ItU6gP7EwVAAQCU3GGHte+3o67m55JeQxoAAADD7hVBWPvLpqbMBKIAKACAkg7/dWMLP3PXa0kDAABgxLzKC/6L5uZz64gC2HvcBBDYS6nU+WOCcPNNkt5IGgAAAKMxvPivi8GEd+RyV+0gDWDPsQMA2CstscC3XM/wDwAAMHpc9qYg3PL9mTM7akgDoAAARoOlk3XflnsLUQAAAIx6DXDG+jVr5ovdzMAeixEBsGeakm1fk+s8kgAAACgR07EHTTzhwMc23v1LwgAoAIAR0Zhs+6xcnyUJAACAkpcArzho4nGFxzbecythABQAwLBqSrR9WNJ/kgQAAEC5lAD2hoMnnfDEYxvuvp0wAAoAYFg0JlrPkuw6ca0ZAABAuXnzgQeesObxDXffQxTAi2OYAXY5/M99myn8saQ4aQAAAJSlguRnZPM9vyAKgAIA2CtNicyJLl8iaTxpAAAAlLVtYWBvyOW6/kgUAAUAsEdSqTnJIAyWSppMGgAAABXh0UDFU1blF2aJAvhnAREA/yydbj84CGO/YPgHAACoKAeHHvtlQ8M8zuEACgBg1w47rH0/KxT+V/I0aQAAAFQYUyJuxZ8dM3kWl3ACFADAi2mJ1Y0p3OCmV5IFAABAxTpx+/jY/8yc2VFDFAAFAPC80okJV8r0TpIAAACodPa29Q+s+RY5AH8XIwLg6eE/0yH5J0gCAACgapxw8IEnhI9tuPsWogAoAABJUmMy02ry/yIJAACAqjPzoInH5R/beM9yokDU8RhARF46kXm15IsljSENAACAqlQIAn/TqlzPEqIABQAQUU1T5zV4rHiHpJeQBgAAQBVzPVYMgpP7+ubnCANRxU0AEVmp1Af291jxJoZ/AACACDAdFPPwpvr61omEAQoAIEJmzuyoCcLaH0pqJg0AAIDImFYb2I08HhBRxU0AEUnxoOG/TXofSQAAAEROctMTG1/22IZ7/pcoQAEAVLl0ou3fTPosSQAAAESVnXDwpOM2PrbhnjvIApFa+USAKGlMzH2bKfypKL8AAACirij5O7L5nl8QBSgAgCrT1JBpcvM7JB1AGgAAAJC0KQzCV+ZyC1YQBaKAmwAiGsN/U2aCm/+I4R8AAADPMiEIYz/iyQCgAACqRkfgBb9B0pFkAQAAgOfydDxm35dauEQUVY/HX6DqpRNrviTpdJIAAOB5/cHcLycGSJKbfULSSVE7bnO9uSlZd0lvHzeKRpWvdSJANWtMtL7bZD9grQMA8IKng9/P5rveTw6QpHQi82PJz4jo4bu5/Wtvf9eNrARUKy4BQNVqaph9jMkWMvwDAABgN5ibz5+WaD2aKEABAFSQ5sPnHugW+5Gk8aQBAACA3VQXyv43nW4/mChAAQBUhJZYodZvlJQkCwAAAOyhehsa/C43BQQFAFAB0onxX5L8DSQBAACAveGyNzU11HWQBCgAgDLWmJj7NskuIgkAAADsUwlg+kxTqu2dJAEKAKAMJRKzp5iHC8RN/wAAALDvzEPrbpo6r4EoQAEAlJFU6vwxNYr9UKaDSAMAAADDwyd5rPg/qdT5Y8gCFABAmbBw0+WSTiQJAAAADLOTAt/8dWIABQBQBtLJ1n812YdIAgAAACPCdV66oXUWQYACACihpoZMk9w6SQIAAAAjyuzqVKrtSIIABQBQAs3N59Z54D+WNIE0AAAAMMLqglA3HjN51niiAAUAMMoKW7f9t1zTSQIAAACjpHn7+NgVxAAKAGAUNTVkzpRpDkkAAABgdNncxkTrWeQACgBgFKTTmYSbX0sSAAAAKEkFILu6aeq8BpIABQAwgmbMaI+r6N+VtD9pAAAAoEQO8Fjxf5qbW2qJAhQAwAjZ/Pjg/5PrZJIAAABAiZ1U2FbXQQygAABGQKoh8yY3+xhJAAAAoExc1NjQ+kZiAAUAMIySyVmHBBb2sGYBAABQTvOUmV3fXN/6UqIABQAwPCxQzULJDiUKAAAAlJnJhcC6JBlRgAIA2EdNicwF5nozSQAAAKBM/Uu6oe0jxAAKAGAfNE6dN93lXyYJAAAAlDXT11KpOc0EAQoAYC/MnNlRY7HiAknjSAMAAABlbmwsDBbOmNEeJwpQAAB76MEH1nRIOokkAAAAUAlcOmHThqHPkAQoAIA90JTInOiuT5IEAAAAKqwG+ExjfdsryAEUAMBuOOyw9v1c+q4ktk8BAACg0tRYoO82N59bRxSgAAB2YfzYwf+UPE0SAAAAqFDJwrbtlxEDKACAF5FqyLzJZOeQBAAAACqbfzidaH0rOYACAHgeR085a1IQeLckIw0AAABUOJPZtfX1rROJAhQAwD/YERvzX3IdRhIAAACoCq7D4oH9J0GAAgB4lnQic5pMs0kCAAAA1cSkTFOy9S0kAQoAQFIq9YH9Je8SW/8BAABQhdztOi4FAAUAICnwMV+XdARJAAAAoEq9LB7oK8QACgBEWlOy7fVyn0cSAAAAqGYmO6exofWNJAEKAETSMZNnjXdXp9j6DwAAgAh0AGbW2dx8bh1RgAIAkbN9fPyrkpIkAQAAgIioH9y27UvEAAoAREpjw9xTJf8QSQAAACBKTDp/WrLtVSQBCgBEQnNzS61Z+C3WHwAAAKI4g4Wuzhkz2uNEAQoAVL3CtrqLJR1JEgAAAIio5k0bCh8nBlAAoKolk3NTkj5FEgAAAIi4z6VSc7gfFigAUL1iHn5L0liSAAAAQMSNi4V2NTGAAgBVKd3QOkvSaSQBAAAASC57U2Oi7f0kAQoAVJXmw+ceKLOvkwQAAADwdyb919FTzppEEqAAQNUo1Ba/KukQkgAAAACeY/JgzZivEAMoAFAV0onMqyXLkAQAAADwz1w6uyk55xSSAAUAKtrMmR01Lv+WJCMNAAAA4PnnMvfgWzNndtQQBSgAULEeXLv2PJOOIgkAAADgRR391wcGPkwMoABARUomZx3i8s+TBAAAALBr5val5vrWl5IEKABQcWIeu0zSRJIAAAAAdsv+hUBfIgZQAKCiNCUyJ0o2myQAAACAPWFtjfVtryAHUACgQnQErvCbrC8AAABgz2c0C+ybUgfn0qAAQPlLNwzMlezlJAEAQPkzeUgKQLnxGU0Na9vIARQAKGtHTzlrksz+H0kAAFC2NklabPKLJXtNzbjNDBlAOVYA5l+ur2+dSBIYTjxnEsNqR03tFyW9hCQAACgTpvVyu0Wu22KB/X5l3xH3Sx186w+Uv0PGmF0i6QKiwPB9JADDpHHqvOkWKy4XxRIAACXkD8qC2yQtDq24NJdbcL8kJxfsjnQi82PJzyCJsjEUBuFxudyCFUSB4cCghmFjseJ/sqYAABjteV95SYsV2NJYaL9f2T9/DaEA1TOvBWFwqaS3EwUoAFA2mpJtr3fXv5AEAAAjqijZPea+VPLbPF57czbb+SixAFXt9MaG1jeu7u/5DVGAAgBloCOQr/kaOQAAMOwKki2XtDj0cOmQ69aBge6NxAJEi5l9Teo4gft3gAIAJdfUsLbNpRNIAgCAfbZZ0u2SLZV022AY3jYw0L2dWIDIO7YxuXb26j71EAX2BTcBxD5pbj63rrBta1ayQ0kDAIA99rCkP5n8NlewdMKkmjuWLessEAtKhZsAlvXktn7s5qH08oeu30IY2FvsAMA+KWzb9gmGfwAAdtdTd+g3D5ea+W2r+hbcJe7QD2C33j502PbxNR+T9AXCwN5iBwD2WtMRmcM87llJ40kDAIDnPWHPK3hqO//OR/LxKC+UNXYAlP3wtnXINK2vr/sB0sDeYAcA9loY9y8awz8AAE8ryrXcTbdIdmtohVv78tc/TCwAhotL+8XcPy9pHmlgb7ADAHulqSHT5Ob3iRIJABBdQ5L95elH8tUUYr9dsW7+48SCSsYOgIpQDAMdk8t1308U2FMMb9grbrqU9QMAiBKTtrrsbkm3SVq8dXDT0nXrFm0jGQCjLBYL/QuS3ksUoADAiEsnWk+S/J0kAQCocpsk3fH0I/mKwfhbc7mrdhALgFJz2btT9a0n5wZ6bicNUABghAVfkZzLRwAA1eYhSXea/DYzX7yqr+FuqSMkFgBlyILAvijpjUQBCgCMmHQic5rkbyAJAEDle+qRfJIW77xD//3ikXwAKsdp6cScN2TzC35LFKAAwMgw/yKnRgCAypz3lZe0WIEtDYrhLasGegYIBUBlC74i6RWivAQFAIZbY6L13XKdTBIAgApQlNQr120mX+zx2puz2c5HiQVAlTkpnWx9Z7av5ydEAQoADKOWmMm+SA4AgDJVkGy5pMWhh0uHXLcODPRsJBYAVc/t0pkzO362ZEnHEGGAAgDDIp2s+6BcR5IEAKBMPClpqaRbJbs1DMbfyR36AURU0/o1A++XdD1RgAIAw6Al5q7PcNt/AEAJPSLpDpPf5gqWTphUc8eyZZ0FYgEASWafnzmz43vsAgAFAPZZY3LCLHNvJAkAwCjaJOmnMrvVh4JbV6+5biWRAMALSq5/YO1ZkhYSBV5MQAR4cS0xc32KHAAAoyxeNH0629fVyfAPALvB/XMzZ3bwBS8oALD30skJH5A8TRIAgFE2Nib7HDEAwG5LPbhmzb8SAygAsJdaYnL/NDkAAErCPdM4dd50ggCA3ROa/oNdAKAAwF5JN4w/S1ITSQAASiQWxIZ4BC0A7CaTGh9cu/Z9JAEKAOyhlpjMPkMOAIBSctl7UqnMK0kCAHZPKP+81BIjCVAAYLc1JSb8q/j2HwBQDicrYXgpKQDA7jGpsTFRdyZJgAIAu6kjcPlnyQEAUCans6dOq297MzkAwG6+a5o+J3Uw64ECALvW1DDwHknTSAIAUC7CwL/KySwA7CbX9MbE2ncRBCgAsOv3C7OPkQIAoLzYMY2JNdzYCgB2911TfhEpgAIALyqdmPMGSa8gCQBAGZ7M/r/m5pZakgCA3XJSUzLzOmIABQBebEnQFAIAyrUCaChsGz+PHABg94TsAgAFAF5IuiFzrKTTSAIAUMYlwOebmjITyAEAduMd0/XmVKrtBJIABQCeZzX4pyUZQQAAytgh4ZBfQAwAsJun+KF9ghRAAYDnSKczCbneQxIAgHJnrk8mk7MOIQkA2B3ekkzOTZEDKADw95OpIf+kpBhJAAAqwISY11xMDACwW2KBh/9ODKAAgCSpoWHeZJdmkwQAoIJ8JJ3OJIgBAHbNpLbpU9sPJQlQAEA1GvqIpHEkAQCoILUq+H8QAwDslrFDweCHiQEUABGXSp0/xszaSQIAUHFMs3Y+wQYAsKu3TLMP1de3jiUJCgBEeQEUN8+SNJkkAACV+DFm5l8kBgDYLS8ZE+gsYqAAQJSZn08IAIBK5dLbp6VaZ5IEAOxaKPs38dhvCgBEUzox5w2SHUMSAICKPqEN7VJOaAFg10w6qinZ9jqSoABAJN8AggtIAQBQBV6Ramg9nRgAYNdCiRmAAgBRk0zOTbn0NpIAAFQDM/uy1BIjCQDYxful6+1NDZkmkqAAQITEQv8of38AQNWc0EpHpZN1HyQJANidDkAfIQYKAEREKvWB/WU+hyQAAFXFdUkqdf4YggCAXVYAbfX1rRMJggIAERALx2Qk7U8SAIAqMzUIN59LDACwS3W1gbURAwUAqp+5/EPEAACoQpvl2kQMALBbzhFPUKEAQHVLJ+a8XhI3/QAAVBe3/4t5cFS2v/s6wgCA3dLEIwGjp4YIInZ+pOBD1HwAgOphG2S6OJvv6iQLANjT2cA+JOl3JBEd7ACIkOb61pea9E6SAABUx+xvi8LAm7J9DP8AsHcNgL+r6YjMYQRBAYAqNBQLzpYUJwkAQIVbI7O3Zvu6zszluh8hjn0zY0Y75wZAdNWoVnOJgQIAVacl5u68uAEAlczl6rS4HZ3t6/olcey7+vrWiZsfL/wHSQARfmN1P1tqiZFENHAPgIhoStWd7qGmkgQAoEKtCEOflxvouZ0ohktHUBsMfMdlPDkBiLYjUg3j35rr101EUf3YARARXjQe/QcAqEQFyS4Lg7oZDP/Dq7FhoEOyt5EEgMCYFaKCHQARkE5nEhryN5EEAKDC/CEMdHYu13U/UQyvpobMO9z8MyQBYKe3NE2d19C75rp+oqhu7ACIACt6hr81AKBiPrekrSa/OJvffGou183wP8ymJWan3Xwh5wYAnj0XhsFQGzFQAKDidQRyzSIHAECF+GVBxem9+Z7LpEVF4hhezc3n1oWK/UjSAaQB4NnMrI2bAVY/LgGocqmGtae5NIUkAABl7nGZfSrb19VJFCN3fl/Yvr1LUjNRAHgeh6cTE16XzWsxUVQvdgBU+x/YxFYeAECZj6W2KAw0jeF/ZKUTbRfLvYUkALzg27Gc2YECAJUqkWg/QPJ3kgQAoEwNBKHeku3rOjOX636EOEZy+M+cJumLJAHgxbj07qOnnDWJJCgAUIFqNPgBSeNIAgBQZkK5Oi1ux6wa6P4VcYys6Q1zp0r+PUlc2wtgV8Zurxn7PmKo5hkRVczYwgMAKCsu3adQ81YPdN9BGiPv8MNbxhXNfyjpYNIAsFsThMI2Sd8mierEDoAqNT059yhJJ5IEAKBMFCS7rHbc5hkM/6Nnv9rxV0s+gyQA7EEF8PKmhtnHkEN1YgdAlSp6mCEFAECZ+EMY6Oxcrut+ohg9TYnMhS5vJQkAe8qD2GxJHyeJ6sMOgCo0c2ZHjaQPkAQAoMSeNOncbH7qa3K5bob/UZSqb3uty79KEgD2rgHQB3fOFKgy/FGr0PoH1r5R0iEkAQAo4dnjz4cUnpvPL1xLFqNr+tT2Q4vB4Pcki5MGgL00+W8Da94giRu1UgCg/M+5/CxCAACUyEMy+2S2r3shUYy+VOr8McVw008kO5Q0AOyL0HQWBUD14RKAKnPYYe37STqDJAAAo85skWriR2X7uhj+S3Vi55v/W7KXkwSAfX9P17t2zhaoIuwAqDJ14wbfIbc6kgAAjB7vDz34UC7f9WuyKJ3GZNs5cs0jCQDDZMKEMUOnS7qRKKoHOwCqjLmx/R8AMFpCuTrj4/Y7JtfP8F9KqfrWk811BUkAGE5uej8pVBd2AFSR5sPnHlhQ+GaSAACMgnvlwbxs//w/EUVpNTTMmxxYcZGkMaQBYJgrgLc2Hz73wBXr5j9OFtWBHQBVZLDWz5RUSxIAgBG0XbJL4uM2n8jwX3ozZrTHa4Pi/0g6nDQAjIDaQjx8NzFUD3YAVBFT+H7JCAIAMFKfNEsVhvOyA92ryKI8bNpY+IZcryUJACM4ZLxf0nUEUR3YAVAlksm2IyR7NUkAAEbAEya/MJufcmp2oIfhv0w0JTIfkOs8kgAwwmamUvPYZVQl2AFQJWKhnSlzCh0AwDCzn1hBH+l9oHs9WZSPVGru8R6G15IEgFEQxMLwvZIuJ4oq+GMSQZWcnsnfQwoAgGH0N3O1ZPNd7+p9oCtSw39z87l1UkusXH+/adNmHxSE4Y8kjWOZAhgNzqxBAYDykU7PfpmbTiYJAMCwnOeZXR/UFo/q7e/+QeQ+U5OZfyls23ZfY7LuU+X5G3YE4Y6a70iqZ6kCGEWvajoicxgxVD7uGFcFGpOt55vblSQBANjH0T8vs3Oy+a7FUTv05sPnHliIh1+RqX3nfzQUhv6a3EDP7eX0ezY1tH7VzT7BYgVQgg+Jj2TzPVeTQ2VjB0BV/BGNLTkAgH0xZK4rx24dOiaKw39TQ2tLoTbsfdbwL0k1QWDfaWrKTCiX3zOdzLzLzT7OcgVQGswcVfFXJILKlk63H6yhwoPiho4AgL3iyyXNy+Z77ozeZ2gmoSH/tqQ3vsiZ0nXZvu6zS/671rdOU2B3SNqfNQugRIphoENzue5HiKJysQOg4l+GQ+9m+AcA7IVtkl0SH7flpKgN/zNndtQ0JVov0JAvf9HhX5Jc85oaWltK+fs2NWUmKGY/YvgHUGKxWNHeQQwUACgh85CtOACAPXWrQj8hm+/qWLFi0WCUDryxvvW49WvX/NFll0savzv/G7fgmmSy7YjS/MYdgRf8Brmms2wBlJobTwOgAEDJ1Ne3TnTZTJIAAOymJ0x+YTY/dWZ2oGdVlA788MNbxqUTmUstsD9LOnEPT3knxVzzVYJLJ9OJNZ+XdDpLF0CZOO3oKWdNIgYKAJRAbSx4h6RakgAA7IrJfxgrxqf35nuukDrCKB17U7L1LfvV1t0v+UWSYnv5Y97YlMhcMJq/d6qh9e2SPsvqBVBG4jtitZSSFAAoCfd3EgIAYBf+Zq6W3nzPe1eu6XwwSgd+9JSzJqUb2q5xt19Kqt/nj135pemGzLGj8btPT7Q2BmYLOVcDUHYjiHEfgErGUwAqVHNzS21hW92jkiaQBgDgeedVs+/Ed9iFK9bNfzxqB9/U0NriZt+U9JJh/tH3bx3cfOK6dYu2jdxn/Ll1hW3bbpfUzDIGUIY2h0HdwbncVTuIovJw9/gKtWPrhJmBOcM/AOD59EnhOdm+Bb+N3OA/dV5DWFP8lrvePEL/iiPH1Y7/sqR/G6Gfb4Xt2+Yz/AMoY3VBuOU1khYTReVhW1nl/uG49gYA8I+GzHXl2C1Dx2bz0Rr+n360n8eKy23khv+nJnTZBelE61tH4menE5mL5DqTpQygnLnCt5FCZeISgAqVTrTlJCVJAgCw019MNq833/XnyH0mNmSOlfm1kk4axX/tQwWPHdvff91Dw/fZPucNUvAr7f2NCgFgtBqAfLa/m1mkArEDoAKlUnOaGf4BADttM/nFh02ZemLUhv+dj/brkPmdozz8S9LkuIrXDNcPm94wd6oUfJ/hH0BFMCXS9a3TCIICAKMgFhrb/wEAkvwWczu+N99z2ZIlHUNROvJUfdtr96udcI/kn5cUL9EJ8DvTDW3z9vXH1Ne3ji2a/1DSwaxpABXzCWTMJBQAGJ0Xm4xrbgAg2jbK7Jxsvmdmb39Xb5QO/OlH+wWBbpY8XfJfyHR5U0OmaV9+RG2gb0k+g2UNoMIwk1Qg7gFQYZoPn3tgoTZ8SDzBAQCi6meqKX4om13416gd+Ag+2m9fT6eWTZhU88plyzoLe3xMidYLXHY5yxpABSrGB4NDovio2UrGEFlhBmuLbzEZfzcAiJ6/mtu5vf1d/xu5wX/kH+23j3zG5o2Fz0v67J78rxob5p7qCr/G0gZQoWKFMcU3Sfo+UVQOLgGoMGbBW0gBACLFZXZ9fDA4JnrDf0eQTmbaR+PRfvv8R3J9alqqdebu/vPTp7Yfalb8vkp1/wIAGJ5PqDcTQmXhm+QKm//l4WlcuQEAkdFnpvbevq7fRe3AmxpmH+M2cK3cXl4hv3IQhrbw6ClnHXvv2hs2vNg/OGNGe3zThqFFkh3KEgdQ4ePJG8mgsrADoIJMT85t5mQBACJhSLLLBkM/qrevO1LD/9OP9nOL3SlVzPD/tCN21Iy5clf/0KaNQ9+U/BSWOYAq8LJUqu1IYqAAwAgoevFNpAAAVe+ewMKTs/muiwcGerZH6cAbG+aeul9t3d07H+1XW6GH8cHGRNv7X+i/TCcz7XI/m2UOoFrEQmcXAAUARoQHvLgAoHptM/nF2fzmE1f1LVgWpQOvr2+dmG5ou8YsXCKpqdKPx6RvTW+YO/Uf//PG+rZXyP1KljqAqhpRJGaUyvqMQiVobm6pLWyre1zSeNIAgCr7MDb93rzYviq/MBu1Y9/5aL//lnRIlR3ardn85tdJi4qS1NAwb3Lcin+WdDgrHkCV2RIGdQflclftIIryxw6ACjG0fcIpDP8AUHU2yuyc3r7u10Vt+G86InNYOtH2Ize7sQqHf0l6TVNi/MclaebMjpraoPg/DP8AqtR4DW0+mRgqA08BqBDuXFsDAFXFbFFRhfP6+q5/OFoH3hGkk2vnufvXJU2o6s9u2RfTDXNvXr9m7Qdlei2LHkC1isX0Rkm/JwkKAAwfCgAAqA4PuHTu6r6un0XtwNMNmWNla66V66SIHHJcFt6k6tzhAADPcNebJH2WJMof9wCoANOmzT4oHIw9LC7ZAIBKFkr+LYsHn+rt7doUpQM//PCWcfvV1n1O0sclxVkKAFB1ivHB4JAV6+Y/ThTljR0AlXDGWKg5VXKGfwCoXDkza+/t6745ageebmh9jcw6JU1jGQBA1YoNjQ1fI+mnREEBgH3kHp5qbNYAgEpUkOwbYTD+81G7O3J9fevEWrPLZDpb7DgEgOqfWUI7lQKAAgDDIJCd6sQwrMztfRYU+0gC+yJU7AK5zyIJPP8bjW6PKTh7Zd/8+6J26Olk2/vkukLSZBYCAEQGNzutiNMTlLVEov2AGhUekxQjjeETs+DoKJ6UY3g1NbR+1c0+QRL4hw/WrZJ/oTe/5etPPwM+Mq+JIzKHedyvkvRuVgIARE5xSPGD8vnOJ4iifLEDoNwHVRVfzfAPABXC7f8C2YdW9s9fE7Ejt3Qyc3YUHu0HAHjh0aXGhl4l6ZdEQQGAvRaeSgYAUPbz7waZLs7muzqjduTTk3OPKiq8Vu4nsw4AIOI8PJUCgAIA+3JKybU0AFDmb9S2KDT/SC7X/UiUDnvGjPb45g2D/1708AuSalkIAABzY3ahAMDeOmbyrPHbpRNIAgDK8SxH6yX/SLav+ydRO/R0IvPqTRsLnZJNZyEAAJ7mphOPmTxr/PKHrt9CGhQA2EPb9ou9yqQ4SQBAeZ3fyHWtxe3jvb3dm6J04IlE+wFxL3zB5efJFbAUAAD/IL59fHCypN8SBQUA9hCP/wOAsrMiDH1ebqDn9qgdeFNDa4urcKWbXsoyAAC8EH/qMgAKAAoA7PGLx3QKKQBAWShI9o0wGP/5XP6qHVE68OlT2w8NY4NXuew9LAMAwK6YBa8iBQoA7LGOQFozgxwAoMQnMq4/FmPh2bncghVRO/R0MnN20Qtfk2x/VgIAYPf4y6WWmLSoSBYUANhNTQ35o1wxTrgAoFTTr7RV8i/09m/5etROYqYnWhuH3DrlPpOVAADYQxOmJ/efvrJP9xEFBQB2kyt4BSkAQMn8sqDih/L5hWujdNDPPNpPdomZxrAMAAB7oxiGJ0sUABQA2H0mCgAAGH2Py+xT2b6uzqgdeFNyzimbNhQ6JTuSZQAA2CeBXiHpOoKgAMDuNwAnkwEAjObbri0KzT+Sy3U9EqXDfubRfq7zJB7tBwDYd+5ilqEAwO5qaspM8IJPJwkAGBUDQagPrRro+lXUDjzV0Pr2QIWr3XQ4ywAAMFxMOjKRaD8gn+98gjQoALALXtArxLcwADDSQrmus1r7+Krerk1ROvDpU9sPHYoVrjTpvSwDAMAICGq040RJvyUKCgDsqgAwP9mcHABgxN5npfsUat7qge47Inbolk5mZhW98F8mHchKAACM2GetBydTAFAAYHfOzpwbAALACClI9o3acZv+Y8WKRYNROvDpidbGouwaub+OZQAAGGkBNzWnAMDu8hmSEQMADK/bFPrZ2YHuVVE66FTq/DFBuOVTRfmnJNWyDAAAozLRSCeRQvnhOvMyM31q+6GSHUoSADBsnjT5hdn81NdmB3oiNfxPS7a9Kgg33yX55xn+AQCj7KVPzTYoJ+wAKDNDseIJfPcPAMPFfz6k8Nx8fuHaKB11KvWB/WPF2i+GPNoPAFBCxdjg8ZIeJAkKALwQC48XNwAEgH31kMw+me3rXhi1A29MtJ1uoa520xEsAwBAKbnb8ZJ+QRIUAHih+d91PCkAwL68kdoixWrOzWY7H43SYTfXt760EAu+KvdZLAIAQDkIzJltKADw4vx4bgAIAHv1/tkfevChXL7r1xE7cEsnM7MK7v8ldx7tBwAon09m2XGkUF64LrCM1Ne3TpSsniQAYI+EcnXGx+13TK4/WsN/Mjk3lU60LZb7AkkM/wCAcpNIJNoPIIbywQ6AMjImFhzv7nz9DwC77155MC/bP/9PUTroGTPa45s3DP67e9ghaSzLAABQpizmxWMl3UIU5YEdAGXEPeQaGQDYPdsluyQ+bvOJURv+U6nMKzdtKNztsksZ/gEAZT9wWpEZp4ywA6CsGC8OANj1e+VSheG87ED3qigd9TGTZ43fPj7+OYX+cUkx1gEAoBLsfBIAKADwPI4lAgB4QU889Wi/rmulaD0wtakh847t5t+U/HCWAQCgopiOI4TywSUAZWLmzI4aSWmSAIDn9bOi6ehsX1dnlIb/hoZ5k9PJzEI3/6kkhn8AQCVqklrYuVYm2AFQJtYPDKQU2BiSAIDneGjnt/4LI3bclk5mZiksfkOug1gGAIAKNnZ6YnxiZV6riYICADt5oCO5/T8A/P1tUWbfCeJD/7Zq1cLHonTgqdScZBDGrpH7G8QHAwCgChRNzRIFAAUAnhFY0OzuBAEArrzMzsn2dS2O0mHPnNlR8+DagY95aB2Sc3d/AED1CHWkpJ8QBAUAnj7fdZ9OCgAibshcV4/ZOvTp5Q9dvyVKB55KzT3+wbVrrnPZCSwDAEDVzTqmI0mBAgDPfVk0i72eAKL7Hrhc0rze/p47o3TUhx3Wvl/d2KH/UBh+3Hm0HwCgSpkbBUCZ4CkAZaElJhlPAAAQRdskuyQ+bstJ2Xy0hv90ovWtdWML90t+kRj+AQBV3QBoOk8CKA/sACgD0xLjkqHE9Z4AouZWhd6eHeheFaWDbmiYNzkehF+T+yyWAAAgIsYmk/s39PUpRxSlxQ6AMhBawJYYAFHyhMkvzOanzswO9ERp+Ld0MjM7bsX7GP4BAFFTEzozTzn8HYigHBoAHcnl/wAiMQHLfxgUa89fuabzwSgd9/REa2NRdo3cX8cqAABEkZs3S/pfkqAAgKmREABUub+Z6/ze/p4fROmgdz7a7yNF2f+TNJ5lAACIbAEgpUiBAgBPNQC8GABU7+e92XfiO+zCFevmPx6lA0+l5h6/fu3aayWbwTIAAER+4pEz81AA4OnzRCIAUIX6pPCcbN+C30bpoJ/9aD9xd38AAHY2AHzpWQ64CWCJNTefWydpMkkAqCJD5rpy7JahY7P5aA3/6WTmX3i0HwAAz8N16DGTZ3E5XImxA6DEBrdsTVlg3AIQQLX4i8nm9fZ3/TlKB918+NwDC/HwK3JvZwkAAPC8bMd+lpS0nCgoAKIrCJKSkwOAyv5El7aGrs+/bOrUy5cs6RiK0qE3JjNzCh7+p6QDWQmoUD9TjV1ADJAkDfm3Jb2RIDASQgtSFAAUAFE/aeYJAAAqnN8iD9pX93f1ru6PzlGn05mEhvzbcudEGZV+NrI5m+3KkwMkKZ3IbOHLKYyUgPsAUADwmetJ3mMBVKiNMrso29d9rSJ0tvj0o/18yHm0HwAAe8BDJUmBAiDirwJeBAAq0s9UU/xQNrvwr1E66Mb61uPWr11zrWQnsgQAANhDZsw+FACRxzYYABXEH3QF56/Od/0wSkd9+OEt4/arnfB5yXm0HwAAe38ewexTYjwGsISam1tqJb2MJABUwie2y78dBoVpURv+m5Ktb9mvto5H+wEAsO+O2DkDoUTYAVBChcKEwyWnhAFQ7vrM1J7t6/ldlA766ClnTdoRG3Opu3i0HwAAwyMY2nzAyyT1E0WJ/gBEUDrhoB9BCgDK2JBklw2GflRvX3ekhv+mhtaWHTVjemUM/wAADOsMFDADlRI7AEooMJ8iGUEAKEf3BBbOW9W3YFmkBv+p8xrCmuK33PVmlgAAACMyA1EAUABEFosfQLnZZvJLevNbvi4tKkbloJ95tJ+KXzJXHcsAAICR4fIppEABEM3FbzqC7/8BlAsz/d682L4qvzAbpeNON2SO3flov5NYBQAAjHQBwJegFABRPdlm8QMoDxtldlFvX9e1T30uR8POR/tdJPmnJcVZBgAAMANRAGAksfgBlPhT2BYVVTivr+/6h6N02Kn6ttcGgXVKnmYRAADADEQBgFEQHBGhL9sAlBV/0KXzVvd1/yhKR/30o/1kOltyrsICAGDUGfcAKOUESgSlcczkWeMln0QSAEZ78perMwwK01bneyI1/P/Do/0Y/gEAKM2pyKTm5nO54W6JsAOgRLaPi7H1BcDoMq00hWf35hcsjdTgz6P9qkFRT5U2fHEBAFVgcPPgEZJWksTo44O0VOfhseBQUgAwSgqSXRZa3fG9fVEa/juCdDLT7rHicmP4r3TrVVOcYvKLXVpNHABQ4UNoTfhSUigNdgCUiCuczA5UAKPwZnN3GNO8XK7rrigddlPD7GPcBq6V28tZBNUhm134V0mXSbpsWnLODA+D2S59QKaDSAcAKu30xA8hBQqAiC16O4TxH8BIMWmr5F/o7d/ydWlRMSrH/fSj/Vz+KUm1rITqtKpvwTJJy+rrWy8aI73dzWZLegvnNQBQKbOQJpMCBUDETs5tMk8AADAyn6r2f4HsQyv756+J0mE3Nsw91SzslLyJRRANAwM92yUtkrSo6YjMYYqHLS5lJDuGdACgfAUSOwAoAKJ2gs4lAACGm22Q6eJsvqszSkddX986sdbsMll4tnhjjazeB7rWS7pC0hVcIgAAZT4KsQOgZLgJYOlO1Fn0AIbxLcUWhYE3ZfuiNfw3NbS21AbGo/3wHKv6Fizr7e++IIzVvczcz5T0M0lDJAMAZXLa4hQApcIOgJLxQzhXBbDvn6BaL/lHsn3dP4nU4H9E5jCP+3+79C4WAV5ILnfVDv3TJQLWJulY0gGAEk5CXAJAARDBs3ZaLwD79tnputbi9vHe3u5N0TnsjiCdXDvP3b8uaQLLALvreS8RMJ0l6WDSAYBRxyxEARA5tF4A9taKMPR5uYGe26N00NMSrUeHWnOtXK9gCWBfPP0UgVTq/E+quOlNQRDMkvu7OC8CAAoACgAMu1TqA/sr1DiSALCHCpJ9IwzGfz6Xv2pHVA66vr51bG0QXBzyaD8Ms52XCNwk6abpU9sPDWODZ7qsVdJxpAMAI2pcc/O5dStWXL2ZKCgAohD7S8gAwB76Qxjo7Fyu6/4oHXRTMvO60P0ayRtZAhhJK9d0PqidlwikG+a+XOZzJL1f8kmkAwDDr1DYfogkCgAKgOoXC2OTXE4QAHbJpK2Sf6E3v+Xr0qJiVI776Uf7ufvZxh1TMcqy/fP/JOlPqdT5//6sSwTOkBQnHQAYHkGxSMFKARANoYeTzDifBbBLvyio+OF8fuHaKB10qqH17YHZtyS9jCWAUnr2JQLN9a0vHQr0PnebI9PxpAMA+zoTaSIpUABEQiBN5Pt/AC/icZl9KtvX1Rmlg975aL+rJL2bJYBys2Kg52/aeYlAKjWnOQhjsyTPSOKyPgDYC64YBUBpZlGM/mKn7QLwAswWhYGmRWz4t3Qy0+5xX8Xwj0qQyy1Ykc13XRwft/nw0P0dMlskqUAyALAHH/7OPVZKgR0ApSgAgmCiOXsAADzHQBDqQ6sGun4VpYOenpx7VFHhtXI/mSWASrNixaJBPX2JwOFzDyyM8fea+zkunUA6ALCLmYgvRSkAosJY7AD+LpTruvh+4z4WpUfhPP1ov6KHPNoP1VEGrJv/uKROSZ3PukSgTdIhpAMA/ywImIkoAKKCG14AkOTSfQo1b/VA9x1ROu50IvNqmXfKfTqrANUol1uwQtLFUstn0okJr5OpXe7vFGUXAPz9PMidmYgCIBpMzk0AgWgrSPaN2nGb/mPnFuJISCTaD4h74QsuP0/OPWgQBYuK2bwWS1p89JSzJu2Ij22Ra7bkp5ANAGYi4x4AFADRwPUuQKT9wYuxeavXXLcySgedamh9e6DC1W46nCWAKLp37Q0b9M+XCLRKmkw6AJiJQAFQ3VjsQPQ8afL/6M3XXyV1hFE56OlT2w8NY4NXuew9LAHgKVwiAADMRBQA0TKBCIDoMOmmYhA7N5e7bl10jrojSDesObdohS9Lxnse8Lz+folAOt1+sBcLZ1moVpmOJxsA1c6l/UmBAiAq9iMCIBIektkne/u6FkbpoKcnWhuHfE2nTDNZAsDuyWY7H5V0paQrU6m2I4PQZks+R9JLSQdANTJpHClQAERltY8TdwEEqvx1bosUqzl350l9JMyY0R7fvGHw34uyS8w0hkUA7J1crvt+PfcSgdlyf684WQZQbTMRKAAiwdkBAFTxC7w/9OBDuXzXr6N01E3JOads2lDolOxI1gAwXP5+iUB9fetHa2PBmTxFAAAzESgAKg+LHag+oVzXxffb72MrVly9OSoH/cyj/VznSTzaDxgpAwM9G7XzKQKNU+dNt1j4PpO3uTSFdAAwE2F3cbI26lpi4i6/QLW5Vx68MtvffU6Uhv9UQ+vba1S4z00f5fMEGD2r11y3Mpvv6ujNT22Q7I0yu96krSQDoMLUzpzZwRfSo4zAR1lT04T9vMANAIBqEErbTXZJfNymL69YsWgwKsc9fWr7oUOxwpUmvZdVAJRSR/gClwi8SpKRD4By9+CDa8dJ2kQSFABVa2ioMC5G7EBVeNnU+i8sWdIxFLXjXrmm80FJLawAoHw8+xKBVKrtSAs1x0wflOsw0gFQrgYHg/0oAEYXWzZHWbwY41oXoEpEcfgHUP5yue77V+e7L8r2TT2CSwQAlLMxPsSTACgAqttQjVEAAACAUdARZvNdi7N9XbMLih8mszmSFks8jBgAs1FUsRd9tAP3cFxI7wIAAEZRPt/5hKSFkham61unKdAcyWZJehnpACiVWEgBQAFQ5YaKFg+Y/wEAQIlkB3pWSfqU1PLZafV1p3kQUgIAKIlioDgpUABUtVjMY+7cmBcAAJTaouKqAf2KHACUShAqRgqjnDkRjK5iMaB0AQAAABB5YegUABQA1S0Wo+UCAAAAAGYjCoCqR8sFAAAAAFIxNHZHUwBUeeABLRcAAAAAMBtRAFS90GMscgAAAACR587uaAqAag+cRQ4AAAAAMnMuAaAAqG7ONhcAAAAAkHvAbEQBUN0sDGm5AAAAADCMOl+OUgBUOQ+MzAEAAABEXmh8OUoBUOUs9JAUAAAAAER+NjIrkgIFQFULTSxyAAAAABQAIbMRBUC1Bx7QcgEAAACAMxtRAFS7kJYLAAAAABSG4RApUABUNa5zAQAAAAAp4PJoCoBqxw4AAAAAAJCCkC9HKQCqXCxwtrkAAAAAiLww4BIACoAqVyyyAwAAAAAAuEE6BQCLHAAAAAAiIOTLUQqAql/kAYscAAAAAMJYwCUAFABVHjiPugAAAAAABUV2R1MAVLmYxbaRAgAAAIDIz0aBtpICBUBVK8acRQ4AAACA2YjZiAKg2sV21LADAAAAAACzEbMRBUC12xFjmwsAAAAAMBtRAFS9SZNY5AAAAADAbEQBUPWWLessSOJJAAAAAACibGjnbAQKgKpH0wUAAACAmQgUABHAzS4AAAAAMBOBAqD68bgLAAAAAMxEoACIAGOxAwAAAGAmAgVABGwmAgAAAADR5VvIgAIgGkvdtJEUAAAAAER3JrINpEABEAkWUgAAAAAAYCbC6KohghIsdtNGJwYAAFBC9fWtE+NB8K8mTczmuy4lEQCjPRORAgVAJLhso0QFAAAARltHkE6sfb1Ms839PS7fT7LvkwuA0Z+JnEsAKAAiYyMRAACA0ZKub52mIPhXaU2rpKlyvooAUFrGTEQBEBUubTRiAAAAI6i+vnVibSw4U67Zkr9Kck4/AJSN0IwCgAIgGsx8A7U7UPkSifYD8vnOJyI5VNQGB7ICMFqGhoaG8vmFa0lid7TEGhP7v8XM58j9HXIfQyYAynImYgcABUB0Frs/4aKEBypdTIVPp5OZQ+M77MIV6+Y/Hp1hbMuO2mDCbMk/LSnOSsDIn6zEHpA0hSReWOPUedMtFr5P8lYpnMoXDQDKXRjyGEAKgKgs9qJtMB7ACFS8wN1cmlWoDU9rTLSetzrf86MoHPe6dYu2SepIN2R+LAs7JXs5qwEYfc/d4l88hUQAVNR5lLgEgAIgKovdbKNTzQNVxA416Yfphrb/KQZDH+3ru/7hKBx1tr/rL1LLq5oSE853+Rcl1bEWgJE1c2ZHzV/XrnlLIG912els8QdQuTNRgQKgFLkTQQlGhTFDj5ICUI0vbr0v5jW96WSmXYrKdT6Lir35rsutYE2SfsQiAEZG49R509OJzKXr1655wKSbXPYeSQz/ACpWfGjoEVIYfewAKIFVqxY+nk60FcS1s0A1mij3a9INmXfFZB9a2T9/TRQOuveBrvWS3pNqaH17YHa1pMNZCsC+YYs/gCo2eO/aGzYSw+hjB0BpuEw0XkA1M39LaOH9TYnWi6SWWFQOO9ffc9OQ4keZ60pJIQsB2FMtsXQic1o6mbmxNrCH5H6N5Az/AKrNwxLXRFMAREmohwgBqG4u7eeyS9OJultSqbYjo3Lc+XznE7393ReYhadKWsFKAHYtlWo7Mp3IXJpO1P1V8t/IvUVSLckAqEb2VAEACoBILXsKACA6XhWEuiedyFza3NwSmRP63r4FSydMih9v8oslbWcZAM919JSzJqWTmfZ0InNbEGqF5BdJmkwyAKqdiy9DKQCit+xZ9EC0xCW/qLCt7s/phrmReWzesmWdhd58z2VhEB4laTHLAPj7Fv8dNWP+xhZ/AMxCGE3cBLBETP6wR+Um4QCe7WhZuLSpoe3qMVuHPr38oeu3ROGgc7kFfZLelE5mZsn9PyUdzFJAlKRSc5qDMDZL8lbJJ3PlK4BIj/8yLgEoEXYAlGzRB7ReQHTVuOmj2/erWZ5OZE6L0ltftq9rYXwwaJKrk2WAavesLf5/DsLgPrb4A8BTzCkASnYSSgQlWvTyhyj/gci/ESQk/3U6mflOfIdduGLd/MejcNg7j/OcaanW74VhcI3kaRYDqkdLLJ2Y8DqZ2ne4nyF3HvkLAM8zC5FCabADoERCFj2AZz4DfVahNlzRmMi8J0oHvirXs2Tr4KbjJLtE0iBLAZUslZrTvPMu/uufdRd/hn8AYBYqK+wAKJFA4UOuGEEAeNpLTf6DdLLtxkIY+2h//3WR+GBct27RNkkdjfWtP7HArpV0IksBlaKhYd7kuA19QLJWhTqaR1oDwO4xBVwCULI5FCVRU4ivIwUA/8R1ZtyKq9LJTLsUnTuFrh7ouSebn/oKmZ0jaRMLAeWqubmlNtXQ+vZ0MnNj3IoPSPafko4mGQDYfWOK29eSAgVApOy8BnYzSQB4HhPlfk1jsu2X0xvmTo3OYXeE2b6uTivYNJP/kGWAcvL0Fv/Ctrp1gdn/ssUfAPbalnvX3rCBGEqDSwBKa52kacQA4PmY682hhfc3JVq/0Jvf8nVpUTEKx937QNd6Se9NNbS+PTC7WtLhrAaUQnN960uHAr3P3eYo1PFs8QeA4TjBEd/+lxA7AErrASIA8GJc2s9llzY11N2aSrUdGaVjz/X33DSk+FHmulJSyGrAaEilzh/z9Bb/QmBrXXa5TMeTDAAM0/zvzgxEARDZE3sWP4Dde78wvTIIdU86kbm0ubmlNirHnc93PtHb331BYHqNpBWsBIzc4P/UFv8g3PwAW/wBgBmIAgDDzmQsfgB7Ii75RYVtdX9ON8x9eZQOfFVf9x8mTIofb/KLJW1nKWA4TJ/afmhTovWCdKLt7iAM7pP8IkkvIRkAGFHMQCXEPQBKWQC4HnAjBwB77GhZ+Md0Q9t18f3GfWzFiqsjcUPRZcs6C5IuS6Xm/CAIg29LOo2lgD2VSp0/RsVNbwqCYFbRC2dIxrf8ADCKXMY9AEqIHQAlFCpk8QPY+/dvU3th29bl6UQmUoNwLregL5vvfqO5nynpUZYCdse05JwZTQ1tVwThZu7iDwAlxC7o0mIHQCkXv+sBsQMAwL69kzRI/ut0MvOd+A67cOcjRiOht79nUfPhc39biIdfkelsiXdUPFfTEZnDFA9bXNYWuo5lhQBAmcxAKBl2AJTQ2G1FFj+AYfkslfusQm24ojGReU+UDnzFuvmPZ/u7zwkCf71kWZYCnn0Xf4/7GpddLulYkgGA8rBpRw0zEAVANC1/6PotYvsqgOHzUpP/IJ1ouymdnv2yKB34qlzPkq2Dm46T7BJJgyyF6HmBLf7sdASA8vLw+vWdW4mhdPhgLDVTTq6DCQLAMDpdQ7H70snMRdm+rmsleRQOet26RdskdTQ1zP6RW6xT0itYCtXt71v8lQndjmGLPwCUvRwRUABEmysn6WSCADDMJsr9mqZk21mB+9kr8z2ro3Lgvf0Ll0sdr0on186T+9ck7c9yqB719a1jx5je7mazXf4WyTiXAYDKmn1QQlwCUPpXAS8CACP3DuN6bVF2V2Oy7aNSR4Te8zvCbF9XZ9F0lEk3sRIqnjUl55ySTmY6awP7m5vdKOl08UUGAFTYu7n6CIECINqvATdeBABGWp25rmhqWHNbKtV2ZJQOvK+v+4HefPc7Qvd3SNx1uIId7h7cJvezJR1AHABQmZwvPykAoq7ovAgAjNKHrumVQah70onMpc3NLbVROvZcf89NQ4ofba4rJRVZDQAAjD7zGLMPBUDE/wC1tbwIAIymuOQXDW6rW5ZumPvyKB14Pt/5RG9/9wWB6VSX7mMpAAAwyichBe4BQAEQcdls56OSNpIEgNFk0lGy8I/phrZrmpvPrYvSsa/q6/7D/pPiJ5j8QklbWA0AAIyKjSvWzX+cGCgAIO4DAKBEnwGm9sK2rcvTicxpUTrwZcs6C735nivCIDxW0m9YCgAAjLjVREABAEniPgAASsoaJP91OplZOG3a7IOidOS53IK+bL77TeZ+pqRHWAsAAIzcxy4RUABAktGGASiHtyL3WWEhtjydbD0jagff29+zKAzULOk7LAUAAIaf86UnBQCeEpqvJAUA5fHprMPk9uN0ou2mdHr2y6J06Llc9yPZfPesMNRMSb0sBgAAho8Fup8UKAAgSSEvBgBl53QNxe5LJzPtkixSRcBA9++3Dm4+XrJLJA2yFAAAGIYCIAyZeSgAIEkFaZV4LjWA8jNR7tc0Jdtunp5obYzSga9bt2hbNt/VYV48SabbWQoAAOyToWLsAHbXUQBAkgYGerZL6icJAOXIXa8NZfc0JVovklpiUTr23v6Fy7N9U0+R2TmSnmQ1AACwV/pyuat2EAMFAJ45w9YKQgBQvm9R2s9llzY11N2aSs1pjtbRd4TZvq7OWDE+zaUfsBoAANhjbP+nAMBzGC8KABVQBJheGYTB3elE5tJU6vwxUTr2lWs6H1yd724J3d8h6QFWAwAAuznqMOtQAOAfXhTOiwJAxYhLfpGFm//cWN/2iqgdfK6/56YhxY8215Xi/i0AAOxS6M6sQwGAZyvGKAAAVBaTjrJAf0g3tF3T3HxuXZSOPZ/vfKK3v/uCMNDLTbqL1QAAwIucM3jA5c5looYIysPWrfFVdWMLoShlAFSWQKb2wtZtp6UTc9qz+QW/jdLB53Ldd82Y0X7yk48XPmmmz0oay5JAxZ2YKzxwWnLODJKAJBVDn2hGDhjeZTXoIU8AKJv3fJSNdKItJylJEiMvZsHRK/vm30cS2BdNDa1fdbNPkMQzXPKuwVAfHxjo2Ri1g5+eaG0syr4t6fUsBQAAnjk5WL06350mifLAt83lZTkRAKhgJtnc2sBWNjW0vTdqB78y37M6m+9+g7mfKekRlgMAAJKkvxABBQCe78zZ7G5SAFAFXuqmRelE203p9OyXRe3ge/t7Fo0Z2tEkV6ckZzkAACI947gz41AA4PmEbtxICkA1OV1DsfvSyUy7InbJ2b1rb9iQ7e8+Jwz1Oklc9wgAiPDEGVAAUADgef8YBdoxAFVnotyvSSdal0xPtDZG7eBzA92/3zq4+XjJLpE0yHIAAERNvBgy41AA4Pn0PtC1XtJDJAGg+tipRdlfmhKtF0ktsSgd+bp1i7Zl810dgfxEmW5nLQAAIuShFQM9fyMGCgC8ADfdQwoAqtQ4l12abqi7M5Wae3zUDn5VvufebF/3q2R2jqQnWQ4AgAjgEmcKALwYbpIBoPrf6HR8EIZ3pBOZS1Op88dE7Og929fVGSvGp7n0AxYDAKC6P/O5yTkFAHZRAHCTDACREJf8Igs3/7mxvu0VUTv4lWs6H1yd724J3d8h6QGWAwCgKmebMLyHFCgA8CKGAp4EACBCJwbSURboD+mGtmuam8+ti9rx5/p7bhq7ZWi6ZJdJKrIiAADVNdvE+HKTAgAvpq9vfp+kJ0gCQKQ+i0zthW1blzc2tL4xage//KHrt2TzXReHgV4u2TKWAwCgSjzZ13dEnhgoAPDi3F00ZQAiyBrM7FeNibb5R085a1LUjj6X675rwqSaV8r9M5K2sR4AABX9qW66W+oISYICALt8sTiPiQIQ4fMFZXbUjFnZ1NDaErWDX7ass5Dt7/myauwok/+a5QAAqFTu/kdSoADAbp3+6g5CABBxk93sxnSi7aZUat7hUTv4bLYr35vvebO5nynpEZYDAICZBhQAVSo2VMuLBQCecnoQFu9NJzPtkixqB9/b37NozNCOJrk6JTnLAQBQMfP/YPAnUqAAwG5YuabzQUlrSAIAJEkT5X5NOtG6ZFpidjpqB3/v2hs2ZPu7z3EPZkpaxXIAAFSAgd4HutYTAwUAdhdbZgDgH98YTw0Vu6cp0XqR1BKL2tGv7p9/y9bBzSdIdomkQdYDAKBsObMMBQD28EXjvGgA4J+Nc9ml6Ya6O1OpucdH7eDXrVu0LZvv6gjkJ5qLmysBAMoTX2ZSAGAP/zBmPAkAAF74xOL4IAzvSCcyl6ZS54+J2uGvyvfc29vffYrMzpH0JAsCAFBOwoBZhgIAe2R70e8SWzwB4MXEJb8oCDcvS9W3nhzB4/dsX1dnrBifJrPrWQ4AgDIxODQU3k0MFADYAwMDPdsl/YUkAGCXmoPAlqYb2q5pbj63LmoHv3JN54PZvq7Zofs7TFrLcgAAlNjdO2cZUABgT3B9JwDsweeZqb2wbevydCJzWhQDyPX33FQMBo+W6b8lhSwJAEApuMT2fwoA7KVbiQAA9oQ1SP6bdDJz47Rpsw+KXAmQ++6T2b7u88NAJ0m2jPUAAChBBXALGVAAYC8UY/q9JCcJANjTcw9vCQdjK9LJzOwoHn4u133XYVOmnGzyCyVtYUEAAEbrEzi04m3EQAGAvTuBe0SmVSQBAHtlstwXpBNtN6VS8w6P2sEvWdIx1JvvuUI1dozJf81yAACMgvv7+q5/mBgoALCXzMUWGgDYN6cHYfG+dDLTLsmidvDZbFe+N9/zZnM/U9IjLAcAwEhxMbtQAGCfhFxDAwDD4QC5X5NOtC6ZlpidjmIAvf09i8YM7WiSq1NcXgYAGAFmzC4UANi3F1FN+HtSAIBhe1c9NVTsnqZE60VSSyxqR3/v2hs2ZPu7z3EPZkpcYgYAGOZP2cGAAoACAPsim134V0l9JAEAw2acyy5NN9TdmUq1nRDFAFb3z79lMPTjJbtE0iBLAgCwr1xa3ftA13qSoADAPjKupQGAkXhzPT4IdXs6kbk0lTp/TNQOf2CgZ3s239URs2CGuf7IggAA7NvHKtv/KQAwLEIzXkwAMDLikl8UhJuXpepbT45iACv75t/X2999iszmSHqcJQEA2LsGgO3/FAAYFrFiuIQUAGBENQeBLW1MtF1+zORZ4yN4/J7t61qomuIxkn7McgAA7PHMEhr3LqMAwHBYNdAzIO4DAAAj/plo0gXbx9fcl2rIvCmKAWSzC/+azXe/26W3m7SWJQEA2D2WXdk/fw05UABgmLj0a1IAgFFRH5j/Kp3M3JhOtx8cxQBW57t/tml7fLpkl0kqsiQAAC8u/A0ZUABgGJkZLyoAGE3uLRoq3JdOZmZH8fDXr+/cms13XRwGwUmS/syCAAC84KwSMKtQAGBYDRbDmyUNkQQAjKrJcl+QTrTdlErNOzyKAeRy8+8+bMrUV5r8QkmbWRIAgH8wVAjjS4iBAgDDaGCgZ6OMb2AAoEROD8Lifelkpl2SRe3glyzpGOrN91xhxdgxbvoVywEA8Hd2Rz7f+QQ5UABguDn3AQCAEjpA7tekE22/n5aYnY5iAL1rrutf3df9FnM/U9LDLAkAANf/UwBgxHBtDQCUgdeEit3TlGi9SGqJRbII6O9ZNGZoxzS5OiU5SwIAIjxQcq8yCgCMjMOmTLld0pMkAQAlN85ll6YTdX9OpdpOiGIA9669YUO2v/sc92CmpFUsCQCIpCfHT4zfSQwUABgBS5Z0DJn0e5IAgLJxXBDq9nQic2kqdf6YKAawun/+LYOhHy/ZJZJ2sCQAIErsd8uWdRbIgQIAI8TduPkSAJSXuOQXBeHmu1KpzCujGMDAQM/2bL6rI2bBiZL+wJIAgIiM/3LuUUYBgJE0ZEM3kQIAlKUjg9CXphvarmlqykyIYgAr++bfl813v1pmcyQ9zpIAgCofJj34BSlUFiOCytOYaLvXpKNIYl/4x8z1ADlgX4SBfdBc7yAJPI+B0O2cXH9XZL8ZaToic5ji4ZUuew/LAQCq8nx6eTbfcyw5UABghKUTrV+R7GKSAIBy/5S1RYrVnJvNdj4a1QgaE22nB9I3XZrCggCAavqI0//r7ev+LElUFi4BqMw/28/JAAAqgHuLhgr3pZOZ2VGNYHW++2ebtsenS3aZpCKLAgCqQ9GMmaQCsQOgIrXE0om6v0k6mCwAoGI+cn9iBX2k94Gu9VFNIN0w9+WysFNSlLaM/k3SZM65AFSZR7P5zS+VFlHsVhh2AFSkRUWZ/ZIcAKCS+Bke9/ubEq0XSB2R/PzN9s//02FTpp5o8gslbY7CH90sfK9M32D9A6iudzf9nOGfAgCj+6pjyw0AVJ4DXHZ5OrFmSVNDpimKASxZ0jHUm++5woqxY9xU3Y+2dV3b27dg6WFHTL3YTL9n+QOoFsYsQgGA0TXk8f+TVCAJAKhIr3Hzu5sSrRdJLbEoBtC75rr+1X3dbzH3MyU9XIWH+Kji8c9IT5Ueg2HsfZL+ytIHUAUKO1y/IQYKAIyifL7zCUm3kQQAVKxxLrs0naj7cyrVdkJUQ+jt71k0GHqTXJ2SvFqOy2QXPvvpD/391z0Uhv5eSYMsfQAV/g53y8BAz0ZyoADA6LuJCACg4h0XhLq9saH1C6nU+WOiGMDAQM/GbH/3OWb2BpdWV8HJ8W97813f/cf/NDfQc7ubPsGSB1DR73DSz0iBAgAlUDT9QFX0bQkARFjczD4XhJvvm5ZqnRnVEHr7um7ef1K82eQXS9pRoYexQ2F43gv9l6v7uq+UayFLHkCF8oKGfkQMlYtH0lS4dKLtTkknkgQAVM/JlVzXWq19vLe3a1NUQ5ieaG0syq6R9LoK+9U/n813f+HF/oFjJs8av218ze0mHcVyB1BhH1F/yuZ7XkEOlYsdABXPfkgGAFBdb+wytXvBl0+rb3tzVENYme9Znc13v0FmcyQ9XiF/uuxg6F/d1T+1/KHrt9TI3y3pCZY7gIr6gDJmDwoAlFRMIS9CAKhO9WGg/0snMzem0+0HRzQDz/Z1LYyH3iyz68v9dzXzDw8M9GzfnX94Zb5ntbnNFpfyAaggRWP2qHRcAlAF0om25ZKOJgkAqFoPyeyT2b6uSF873piY+zZT+E1JU8tv/NeCbH93654fU9tlJn2SJQ6gAtyTzXcfTwyVjR0AVcFp4gCguk2W+4J0ovVnyWTbEVENYXV+/s83b48fKdllkopl9Ks9XgyGPrl3x7T50xLP0wZQAROHiZmDAgDlIGYxXowAEAn2tpjr3qZE6wVSRyQ/w9ev79yazXdd7KGfKOnPZXFSLH28r+/6h/fuf72oWLShD0pax/oGUNaGmDmq4kyCCKpDOtG2UtI0kgCAyLjV3M7u7e/qjWoAM2d21Dy4duAjLvuSpLpS/R2y+e7Xah+v5W+sb3uFBbpFUi1LG0AZ6s3mu5k1qgA7AKrHj4kAACLlNW5+d1Oi9SKpJRbFAJYs6RjqzfdcYcXYMXL7vxL8CoNhoA9pGG7kt3qg+w65PsayBlCO3P1GUqAAQBkJg2ARKQBA5Ixz2aXpRN0fmxpmHxPVEHrXXNef7e/6F5N9UNLDo/XvNdPXcrnu+4fr52X7u//b5d9lWQMov6Ex/AEpUACgjORy8++WtIIkACCSTnKLLUsnMpemUuePiWwRkO/67mDoTea6UlI4wv+6gTGbh74y3D902+CWs+W6myUNoIzc39u/cDkxUACgzJjZ/5ACAERWjeQXBeHm+6alWmdGNYSBgZ6Nvf3dF8h9pkwrR+7f5B9Z/tD1W4b7p65bt2hbMQjOlLSRJQ2gTHyHCCgAUIaKVrxBw3AdIgCgoqXC0H6Xbmi7pqkpMyGqIWT7e26dMDF+rMkvlrRjmH/897L5nl+M1O/e1zc/F7rP5jMdQBlwK8a+TwzVI0YE1ePxx/+y4aADj3+LpMNJAwAizWSaIdecgw86vu+xx++J5JMCHnxwWfjYhnuWHjLpuP9xWbOkhmH4sU9awd752JN3bxrRz/SN92QPmnT8GEmvYTkDKOHHyR+yA/O/QQ7Vgx0AVcal75ECAGDnh8JhHuon6WTmxnS6/eCoxrAy37M6m+8+TWZz5Hps3yK1i3of6Fo/Gr93Nj/1s276FQsZQAk/R5gtKABQzkINfV/SEEkAAP5+AuctGiqsSCczs6OcQrava2Hc/SiZXb+XP+JPq/NTOkfvV+4Ia3cEZ0kaYBEDKIGhggLu/l9ljAiqT2Oy7f/M9WaSAAA8zxD786LZh/v6uh+IcgrpROtbJbta0tTdPRH20E9aPdBzz6j/rg1zXy4Lb5E0hvULYBT9MpvvfisxVBd2AFQh4zIAAMALf0q8Lea6tynReoHUEdnzgGy+5xebt8ePlOwyScVdpub+X6UY/iUp2z//Tyb9G2sXwKhyZ6agAEBFnNrV2I8kbSMJAMALOMBllzc2rPltMjk3FdUQ1q/v3JrNd11sspMlvdhwv2bM1uIlpfxde/Pd35JrIUsXwKjME9JWqw1+QhIUAKgAvb1dm0z6MUkAAF70BM80M+bh8nQi0zFjRns8sp+b+a4/HzZl6kkmv1DS5n/Kye2jyx+6fkupf89B93NMuouVC2CkufSj3t6uTSRRhZ/9RFCd0ok5b5CCxSQBANhNf5bbvGx/11+iHELT1HkNHoRXy/wtO/+jH2Xz3e8pl98vlZqTDMLgz5ImDuOPHZRsCy8B7Bz96iTFySHiQ6LpDb193b8jCQoAVNDfNt3QlpMpQRQAgN00JNl/DoZhx8BAz/YoB5FqaH17YPbVMIi9MZe7bl05/W6NibbTTfqphm0np30/m+96P8sfkpROZH4s+RkkEWkD2fzUpNQREkX14RKA6uUyfYcYAAB7oEbyi2pjdldTcs4pUQ4i199zUzY/tbnchn9JWp3v/pmZvsJyBTAybAHDPwUAKvGPG3q3JF68AIA945ruHtyabmi7pqkpMyG6QZTvCXBv39T/kNv/sVgBDPsnQA03HKUAQEVaNdAzIOn3JAEA2AsmU7sP+aqmVNs7iaPcdITxgn1A8n6yADCMb/2/y2a78uRAAYBK5d5NCACAvf8c0WEe6ifpZObGdLr9YAIpHyvWzX/cQ71bPPoXwHCN/xKzAwUAKtnWwpYfSNpIEgCAfSsCvEVDhRXpZGY2YZSP1QM998jsQpIAMAye3LS9hkeJUwCgkq1bt2ibTD8gCQDAMDhE7gvSibafJ5NtRxBHecj2dXW61EUSAPaJ6/vr13duJQgKAFS4sOjzSQEAMIzeGnPdm05m2sUjhcvCtsHN58l1N0kA2Ov53ykSKQBQFXIDPbebdBdJAACG0QFyvyadaLslXd86jThKa926RdtiCt4l12OkAWAv/GX1QPcdxEABgCoRmjpJAQAwAl6twO5KJzIdM2a0x4mjdFb2z1/j8vdLKpIGgD1idjUhUACgitSOHfddSU+SBABgBIyT/PObNhTubEpkTiSO0lnd3/MbSf+PJADsgU1Wo+8RAwUAqsiKFVdvdum7JAEAGEHHuvyP6UTm0vr61rHEURrZ/NRLJP2SJADsHru+t7drEzlQAKDKeKD/JgUAwAirkfyi2sDubUpmXkccpdARjhna8QG58mQBYJczQhheSwoUAKhCuVz3/ZItJQkAwChIuftv0w1t1zQ1ZSYQx+i6d+0NGyR7t6RtpAHghdnS1QM995ADBQCq9SXu/m1SAACM1seOTO0+5KvSydYziGN0Zfu7/iL3c0gCALMBKAAiqhirWyTpYZIAAIwa12Fy+3E6mbkxlWp7CYGMZgnQc73k80kCwPO8Nz+2w/0HBEEBgCqWy121w9wXkAQAYPRPNr0lCHVfOtn6r4QxegZDnSfZMpIA8GwWqHtgoGc7SVAAoOr/6LFvShoiCQBACRwit++lE20/TybbjiCOkTcw0LN9SEPvlvQoaQDYqegx+xYxUAAgAlb2z19j8p+SBACghN4ac93XlGi9QOrgfGSE5fML10r2fklF0gBg8p9ks108KYQCAFHhritIAQBQYvu77PJ0Yu0t6frWacQxsrL5rsWSf5EkADALUAAgaicB/T23SrqTJAAAZXAqeooCuzudyHTMmNEeJ4+RLAF6viDZT0gCiC6T7to5C4ACANE63/KrCAEAUCbGSv75TRsKdzYlMicSx8h9+o8Z2p6R1EcUQFTfBfRfhEABgAiacGDt9yX9lSQAAGXkWJf/MZ3IXFpf3zqWOIbfvWtv2GBefLdJW0kDiNz0/2DNfptvJAcKAETQsmWdBTO7hiQAAGWmRvKLagO7rymZeR1xDL/e/oXL5TqHJICIjf9mV69YsWiQJCgAEFFF829L2kYSAIAylHT336Yb2q5JpT6wP3EMdwnQ/R25OkkCiIwdQ2HsWmKgAECE5XLdj0h+A0kAAMqUydQeeO3KdLL1DOIYXmGs7qNSyE2BgWi8m17f33/dQwRBAYCIi1nscklOEgCAsuU6TG4/bky0fiedbj+YQIZHLnfVjmy+hxuCARF4Fw0tvJwYQAEAreybf5+kn5MEAKDcmewDGhrKppOZdtIYvsGACIAqf5GbbsrlFqwgCVAA4OlTqsvIAABQIaeyk+R+TTrR9vNEYvYU8gCAXQ194VdJARQAeEY233WbZEtJAgBQQd5ao9i9TYnWC6QOzmkA4Pnd2tu3gPN8UADguUIP2QUAAKg0+7vs8nRi4Obm5pZa4gCA53KJb/9BAYB/luvv+ZlL95EEAKDy2A6ebQ0A//jWqJWr81N/QRCgAMDzcTP7GjEAACruHNd0KSkAwD+8N4b6stQRkgQoAPC8Jkys+Z6kNSQBAKggd/b2df+OGADgOR6oOzD+P8QACgC8oGXLOgsmu5wkAAAVw+wrhAAAz+Wmry9b1lkgCVAA4EWN2VK4VtKjJAEAKP/hXyuzfVN+ShAA8ByPjts8NJ8YQAGAXVr+0PVbJH2DJAAA5c5lX+X6VgB4LpN/fec5PUABgF2Ljxt3laRHSAIAUMbW1Y7ddAMxAMCzuB5TPLiaIEABgN22YsXVm911BUkAAMr2HNf0NR79BwD/wOzrvb1dmwgCFADYI7X7jbtC3AsAAFCW078eqx07rosgAOC5740W1zcJAhQA2GMrVly92Y1dAACA8mOBXbFixdWbSQIAntMAfINv/0EBgL1/C7HBKyU9ThIAgDKyxeJDXN8KAM/1uNUGVxEDKACw13K57z4psQsAAFBGTN9etWrhYwQBAH/nLr79BwUA9t2Q4ldItoEkAABloFCkmAaAf7Sx4M61/6AAwL7L5zufkPxykgAAlJxpQV9f9wMEAQB/56b/HBjo2UgSoADAsIiPG/cNSQ+TBACghIqBF79GDADwHI8GNcbOKFAAYPjsvNPypSQBACgZ0w9X5RdmCQIAnv3W6F/i2n9QAGDYDYb+LZPWkgQAoDQnLeFXSQEAnj38a20xmPBtkgAFAIbdwEDPdrl9gSQAAKPNTb9a1bdgGUkAwN+FUkcud9UOkgAFAEZEb/+mHplWkgQAYDTFzLkMDQCew7IvmzL1enIABQBG0KKihf55cgAAjB7/06pczxJyAIBnvTNKn16ypGOIJEABgBHV29/zA8n/RBIAgNFggX2ZFADgOe+My1bnu35EDqAAwGjwILT/IAYAwMif42plb27qTQQBAM86GffwU5KcJEABgFGxaqD7V5JuJgkAwAg3AJdKHSE5AMAzfre6v+c3xAAKAIwqD/3fJXFSBgAYKQ/Ex276PjEAwDPCwMJPEgMoADDqVg/03COz75IEAGAkuPnXVqxYNEgSAPDMO+NCHokKCgCUTmzoUyZtJQgAwPCe4+qxcZuLXQQBAM/YVjTuw4V9HN+IAPviscf+sungA4/fT9KppAEAGDamWHFM8NoDJx6XOGjScTWHvuxVDz/yyJ3sBgBG2EGTjv9XSdNIovy4+6W5fM9PSQL7ooYIsM+LaOy4SwvbtmYkO5Q0AADDZIy7Xmtmr5WkwrZtxXSirVeu20y+2OO1N2eznY8SE4CIeCioDb5GDNhXRgQYDulkpl3u15AEAGDUuPKSFiuwpUExvGXVQM8AoQD7eE6XyPxY8jNIotyGNp/bm+/hsihQAKBctMTSibq7JR1NFgCAEjUCD8qC2yQtDq24NJdbcL94TjZAAVD5723Ls/ktJ0iLimQBCgCUjaZk2+vd9VuSAACUiYck3Wny28x88aq+hrulDh5fC1AAVJTQ7c25/q5fkwQoAFCGHxptv5D0LyQBACjD054Nki91s1u8GN56wEG1y5Yt6yyQC0ABUL7859l8z+nkgOHCTQAxrIoWfDTm4X2SxpAGAKDMTqQnSTrd3E+3wLR5Q2FrOpG5W9JtoYdLFSv8Ppf77pPkBKBMDAYK/50YMJzYAYBhl05kLpX8IpIAAFSYIcn+Yu5LJb+tphD77Yp18x8nFkTsPI4dAGUzqdmXs31dnyEIDCd2AGDYxceN/VJh27YPSnoZaQAAKuu8yGe4aYZkHy3UhmE60bZKrtsU2NIhH1qSzy9cS0wARsG6+NixXyEGDDd2AGBENCZazzLZd0kCAFBVXHkFtlTSbTufNLCCUFBN2AFQJkOa2/t6+7tuJAlQAKBySoCGtpvNNJMkAABV3Ag8KAtuMw+XmvltPGkAFAAYBrdm892vFY8xxQjgEgCM3ClRLDzPwuAe1hkAoHrZoXJvcVmLuymdWPOk1PYnky92BUvj4zb9acWKRYPkBGA3DZkXz2P4x4h9ahEBRlI62XaVXOeRBAAgorZIdo+k2yQt3jq4aem6dYu2EQvK9tyNHQAl5dIVq/PdF5IEKABQkY6ectakHTVjeiW9hDQAAHjqSQOSFoceLh1XHLzt3rU3bCAWUABA0sODoTcNDPRsJApQAKBiNSYzrebeTRIAAPyTomT3uMJbzfT70GxpLtf9CLGAAiCKk5nNyfZ1LSQIUACg4tdZOtG2WNLriQIAgF141pMGbCj4Te+a6/oJBRQA1T776/e9fd2vE9f+Y4RxczaMyqlMoOKHQ8X+ImkscQAA8GKTgBJyT0ia5bGi0onWf3jSwIK7GBKAqrLDi/4hXtcYnY8YYJSkE22XSPoPkgAAYJ88LOlPJr/NFSydMKnmjmXLOgvEguE5X2MHQAl8Ppvv/gIxYDSwAwCjJgzqvhyEm8+UNI00AADYa4dIOt1lp0uuTRsKm9OJttulpy4bGAzD2wYGerYTE1AJLDsYhl8lB4zaiiMCjKZUfdtrg0A3s/YAABgxBcmWa+eTBkKrvSWf73yCWLA72AEwqtxMp/X2df+OKEABgOr9YElmFsp9FkkAADAqipLdY+5LJb/NxoS/W7Vq4WPEAgqAEk//UtfqfPdcksBo4hIAjLrQ/GNBqLfKdBBpAAAw4mKSz3DTDMk+6oOxMJ1oWyH5LTK7tRDGlvT3X/cQMQGj6pFYbfGTxIDRFhABRlsu1/2ImfOGBwBA6c7/jpbsI3J9P27h5UQCjDKzj7MTBxQAiIzefE+3m35FEgAAAIiYxdm+ruuJARQAiBKvCYNzJG0iCgAAAETEk0MqzpXkRAEKAETKyv75ayS/mCQAAAAQCWafyOcXriUIUAAgkrL5nm9JWkwSAAAAqHI3Z/u6riUGUAAgytyKsXZJm4kCAAAA1cikrWEQni22/oMCAFHXu+a6fpN9jiQAAABQjULTp3K5BX0kAQoAQFJvfsqVkm4jCQAAAFQTc/1xdd/mb5IEKACAZ3SE5jZP0jayAAAAQJXYEYaxudKiIlGAAgB4lt7+rl45lwIAAACgWvinV6+5biU5gAIAeB7Z/in/JelmkgAAAECFuzWbr7+cGEABALygjjAMYrMl20AWAAAAqFBPxDyYJXWERAEKAOBF5HLXrZP5v5EEAAAAKtH/b+9e4/QsCzuP/69nZsJBEAIqihySySRBU1uEFapSqxa09UBbKmopQgiU1qqfdntcexKr1dbdftoV62qaZCYEa9e02iqttqJSV6y1jQQ1JDPzzExCMIoQE0kCJJnnvvYFrFstag6TyRy+33e+wx9wc9//XPf9lJrXbxxbuUUJDABwAIZG+lenlLVKAAAwzXxocKz/ZhkwAMDB6Or+paR+VQgAAKaH+tXWnM7P64ABAA7S0NDy+5vaWpqkqgEAwFR/+k9y3aZNN22XAgMAHIL22Kp/KslyJQAAmOLP/+8eGh34Bx0wAMBhOGbP+K8lZUgJAACmqE3H7un8lgwYAOAwffHeNXuaVv3ZJHvVAABgitnbtFpXfPHeNXukwAAAE6Dd7v9CkjcqAQDAVFJL/Y12e+UdSmAAgAk0NNr/ZyX5iBIAAEwRHx0eGXiXDBgAYOLVTivXpmSbFAAAHGVfSXfPVfGLVRgA4Mhot/vvazq5IklHDQAAjpImaa4eGlp+vxQYAOBIjgCb+/85qf9dCQAAjoZS87ah0dWfUAIDAEyC08+a93ul5l+UAABgctXPn3BKzx/ogAEAJsltt90wnqbr55LsVAMAgMlRdnTVrleuW7d8vxYYAGASDW5ZMVaT18SHVwAAOPJqSrNs49jKLVJgAICjYHi0/5aa+B4AAABHVilvHxoZ+FshMADAUR0Bdv92kluVAADgSKg1t51+5llvUgIDABx1azv7a9eVKdmmBQAAE+ze7qbnittuu2FcCgwAMAWMja24t+nkiiQuzAAATJTxWluv3Lhl+VelwAAAU0h7c/8/J/l9JQAAmAi1lN8eHlv5aSUwAMAUNDTa/0dJPqQEAACHoyQfGR5Z9T+UwAAAU1c9ZnzvtakZlQIAgEPU3tvUq+LnpjEAwNT2pbv/ckdtul6W5AE1AAA4SLu7SuunN28e2CkFBgCYBoa3rNiYUpbGagsAwIGrpZZrN46s/LIUGABgGhkaWfWhlPJ2JQAAOKCn/1rfOji26gNKYACAaTkCnPV7SW5RAgCA7/nwX/KPw2N73qwEBgCYtm5oSk+5IsldWgAA8F0MdmrPq5K1HSkwAMB0vpoPrtpVarksyTfVAADgO+xqWrlsdHS5e0UMADAjRoCxVYOllquSNGoAAPCopiZXtNv9TotiAIAZNgJ8uJa8SQkAAJKk1vz+8Gi/70VhAICZaHik/w9TyholAABm+9N//vfwWP/bhMAAADP4Ut9z7K7ras1tUgAAzFbl9qbrhKuTVC0wAMAMtmHD2n1dx3RekaStBgDAbFPHOmX/Ze32jXu1wAAAs8CmTTdtr52uS5PsVAMAYNZ4oKt0XToysubrUmAAgFlkeMuKjU0tr0oyrgYAwIw3Xmt9xcaRlV+WAgMAzELtsVX/lJrXKgEAMNPVXx4eG/i4DhgAYBYbGutfkVpuVAIAYMb606HRgXfLgAEAyNDYrv9aSz6sBADAjPOhodHdvyEDGADgUWs7D+3d/eokn9UCAGCmqJ/f/XDPlcnajhZgAIBvueeetQ+15nQuTTKoBgDAtNduWuVl27Ytf1AKeESRAL7dokXLejNeP5vkNDUAmAX+LaWskIEkSa2vTXLuDPh/8rXS6XrO4JYVY/6mggEAvqdzFlx9flNbtyU5QQ0AgGllV9PK89vt/i9IAd/OKwDwGDaNrF6XUl6ZZFwNAIBpY38p9ZUe/uGxdUkAj237jjvaT5h73miSn47TMgAAU12tyc8PjQ78tRRgAIBDGQG+9IRTzmuSvEANAIAp/PRf8vvDo/3vVAIMAHA4I8CnTz3lmScmeY4aAABTUMm7hkf63ygEGABgAkaA9R8/de65ZyTlPDUAAKaUm4dGz/6F5LYqBXxvPgIIB6YOje75hZp4pwwAYKrcoJV8+PSzzr4muaFRA74/HzaDg7BkyeVz9j18wodLzYvVAAA4qj61r6kv2bx54GEpwAAAR8Tpp19//AnH7v94fBMAAOBo+bfSU35scHDVLingwHkFAA7Stm3LH2zN6Vya5C41AAAm3YbWnM5PePiHg+cEAByiRYuuemrGuz6TZJ4aAACToY6lu/mRoaGbvqIFHDwnAOAQDQ3d9JWu2np+ki1qAAAccfc0rXqJh38wAMBRsXFs5Zau1EtSsk0NAIAj5t7a6XpRu716RAo4dF4BgAlwTu9Vi5q0bkvKU9QAAJhQ9zWt5gXt9uoNUsDhcQIAJsCm0ZuG0uSFSe5VAwBgopQdTav1Yg//YACAKWVo88Cm1PLi1GxXAwDgsO0syYva7ZV3SAETwysAMMEWzlt6bmmVTyQ5RQ0AgEPyQGrrkqGxlZ+XAiaOEwAwwYY3D6xvmvrSJH6bFgDg4O2ptfVyD/9gAIBpob154HOlND+R5AE1AAAO2ANJ+fHhsZWflgImnlcA4Ag6Z8HV5zdN6x9TcqoaAADf0zebpv54e/PA56SAI8MJADiCNo2sXtd0tS5Jcr8aAADf1c7U1os8/MOR5QQATIK+vmue3mryiSRPVgMA4Nvcl1ouGRpbdacUYACAGWHRvKXnpKt8IjWnqwEAkCT5eiv14k2jA1+SAgwAMKMsnr9scS31E0meqgYAMMt9rWk1F7fbqzdIAQYAmJHOmbd0XtPKJ5MyXw0AYJba2imtF46MrGxLAZPHRwBhkm3aPLC51eSFSfwHDwCYjdqtpj7Pwz9MPicA4CiZP/+603pK52NJzlUDAJglNpT95UWDW1dtkwImnxMAcJSMja24d19TX5CU29UAAGa++vnWnM6PevgHAwDMSps3D+zc/XD3i1LLx9QAAGawT5ae1sWbNt20XQo4erokgKNr1651+5/81L61TWfO4iRLFAEAZpbyt/uaetnISP+DWoABAGa9++67q7N9x8IPnXrKMU9Jcr4iAMCMUHPT6WeffeX69X+2Tww4+nwEEKbYv5MLe6/5o5L8phQAwLS+qal55+BY/68kqWrA1OAEAEwx39ix/tZTTz5vd0ouiZEOAJh+mqT++tDYwJukgKnFwwVMUQt7l/1MSb05ybFqAADTxL6aLB0e7X+/FGAAAA7COX1Ln9805UNJTlYDAJjidjZNfqq9uf+fpQADAHAI+vquXtLVtP6hJmepAQBM0aeKbWnKS4bGVt0pBhgAgMOw+Mxlp9ee+vdJzlUDAJhKavLlpuQlIyP9W9WAqa0lAUx9g1tXbSs95Xkl9Z/UAACmkE910nORh3+YHvwKAEwT27ffsW/uqT+yttT9fUl+QBEA4GgqyV/2HLf78qGhNQ+qAQYAYIJ94xuf72zfcccHT517XpL8aLzGAwBMvpqUdwyNnv36++5797gcMH14eIBpavH8Za+spQ4kOU4NAGCS7E2tPz80NrBGCjAAAJOor2/Zs1tN/VCS09QAAI6omu01rcuGx1Z+WgwwAABHweKzr5tfuzq3JHm6GgDAEbKhdLpePrhlxZgUMH35FQCY5ga3rBgrPeWHk9yiBgBwBHx8X1Mv8vAP05+PAMIMsH37Hfu271j4gVNPPmZuSi5UBACYEDXLTzyl58qNG1f60j/MAF4BgBlm0fxlr0upf5qkRw0A4BDtT+qvDI0OvFsKMAAAU3kE6F12UVLXJnmyGgDAQbq/lLxqcKT/k1KAAQCYDiPAoquemvHWB5NygRoAwAGpuaMrrZ/eOLZyixgw8/gGAMxQ27ffuevEk869uavkjKScqwgA8H28f/fenp8a27rifilgZnICAGaBRQuWXZ9a3xXfBQAA/rNOSf2dwdGBP5YCDADADLBw/rXPK6VZm+RJagAASZKa7Snl1UOjq24VAwwAwAyyaNGy3ozXDyb5ITUAYNY//N9Rmq6fGdyyYkwMmB18AwBmke3b79hx4knnDnSnPD4lFyoCALNUKWt2P9xz2eZ7/uI+MWAW/asvAcxOixYsu6rU+r9qcrwaADBrPJyaNwyN9a+QAgwAwCyy8Ozrnla6O3+TmqepAQAzW02GW7XzisGxm76oBsxOLQlg9hresmJj6S4XppS1agDAjH76/7v9Tb3Awz/Mbk4AAEm+9VP06V+VAAAOXklEQVSBNyaZowYAzBjjJfV3B0cH3pGkygEGAIAkyeIFVz+31tZfJTlDDQCY9ra2Sl69aaT/s1IAiVcAgP9gcGT17ePp+YGUfEANAJjGav6uNafzTA//wH/kBADwmPxKAABMSw+X1P82ODrwzjjyDxgAgAPV13fN01tN/irJM9QAgClvU2p59dDYqjulAB5LlwTAd/ONb6y/77jHLRyY05pzYkouVAQApqhS1hy7Z/wn77pn9VYxgO96qZAAOBALe5deVtJakdS5agDAlPFATX5xeLT//VIABgBgwpwzb+m8plXel+Q5agDAUb+Vv72rlp/bOLZyixbAgfAKAHDA7t+5fuf2HQtXP2Fuz4NJeZ5rCAAcFeNJecvQ6K5r7t958w45gAPlBABwSM7pXfqMJmVNkh9SAwAmzV1NK69pt/u/IAVwsPzpHXBI7t+x/usnnnTuQFdp9eSRVwIMigBw5NTU/MXuvT0/s2XLyrvlAA6FG3bgsC1ecM0La81AkjPVAIAJv2G/OyXXDI70f1IN4HA4AQActu071o/NPXXJytJ0nZqS8xUBgIl6+i9re/a1Xr5xy6q7xAAO+5IiATCRFs+/5hW15M+TPEkNADhkXy81rxsc6/9rKYCJ4gQAMKG271x/1+knPn1lp3TPdRoAAA5BKWvT3fPSoZGV/y4GMKGXFwmAI2VR79KXJOW9Sc5QAwC+r6/V1NcNjw58UArgSHACADhitu9YP3zS3AtWtWpzSkrOi9ERAB5bKWtbczovHRpe7ef9gCN3qZEAmAznzLvmxbWV5TU5Sw0A+Nbd+LbSlNcOjq36sBjAkeYEADAp7t+5fmTuqUtWPfpLAU4DADDb1Zq8p9VTfmqwvepLcgCTwQ04MOkW9S67KKnvSbJEDQBm3ZN/Mtwq+cXBkf5PqgFMJicAgEm3fccdd8/rveAv9j/c2ZOUi5J0qwLALPBQUt5WWydcMTzy3rYcwGRzAgA4qvr6rl7Q1ZR315QXqQHATFVrbiu1vnZo88AmNQADADCrLZ6/9PJayruSPEkNAGaQe1PKbw6NrFqTpMoBHE1eAQCmhO0719914knnruhOOT4lz4qBEoDpraaUm9Pd85ND7RX/IgcwFbjBBqacRfOX/khK3pWUH1QDgGlofSnN6wdHVt8uBWAAAPi+bmgtWnD3lan1T5I8QQ8ApsGt9Y6S5s2Do3velazt6AEYAAAOwpIzrj1lvKd5Uy15Xby2BMDU1KSU93Wy/9dHRtZ8XQ7AAABwGPr6rjmv1eTGJM9RA4Ap5N+bpr6hvXngc1IABgCACbxmLVqw7DWp9R1JTpMDgKOmZnsp9S2Do/NuTG5oBAEMAABHQG/v9Sd1Z/z3k/r6JHMUAWAS7S0lN3bKvre02+97QA7AAAAwKUPAVWd1l+63ptYrXc8AmAS3NK3mV9rt1SNSAAYAgKNg4bxrLiyt8idJfa4aABwB/5Zaf21obOD/SAEYAACmwPVs8fylr6gpf5SSXjkAmABbU8rvDo2sWpOkygFMd35SC5gxtu9cf9eTn7rwPXW8Z3tSnp3kWFUAOAS7k/L2fU191chY/zo5gJnCCQBgRlqw4DVP6kr376Xm+vhQIAAHZl9qeW/TVd/SbvffJwdgAACYRnp7rzqru3b9TkqujVNPADy2JqX8TVM6b/SBP8AAADDNLTz7uqeV7ubNqfUVrn0A/Ae3ppZfHxpbdacUgAEAYAZZNP/aC1Lq25L6Y2oAzOrb4NtTmzf6sj9gAACY6UNA77KLkvr2JBepATCb1M8n9beHRld/QgvAAAAwi66Bi/uuubR28qaUPFMOgBl9yV/X1ObN7bGBW+In/QADAMDstah32cVJfVuSZ6kBMKPcWWr9w8Gxgb/24A8YAAD4jiGg+cOkXKAGgAd/AAMAwKwYAupbk1yoBsC0sr7U+jYP/gAGAICDHAKWvqTU8ru15NlqAEzp29rbS2neOjgy8DEtAAwAAIcxBCy7KKm/leSlrp0AU+vBv6nNH7fHBj6iBYABAGDCnNO79BlNaf1Gan11kh5FAI6KJsk/tEpzw6aR1evkADAAABwxT5t/7dlNml9NyXU1OV4RgEmxN6V8oJPyByMjK9tyABgAACZNX981T2w1eX2S1yc5RRGAI+L+pPx5a874jZs23bRdDgADAMBRHALecEyr7nlVav3NJEsUATh8NRlupf75MXs6K75475o9igAYAACmFB8MBDjsW9T/92G/W+Kn/AAMAABT3dN6ly5sanl9Lbk2yeMUAfie9qaUD3SlvGPjyMovywFgAACYdnp7rz+pJ/uWJuVXa3KWIgDf5mtJeW+6u981NLT8fjkADAAAM8DlXYt6T3xBUn85Xg8A3IbeXmrzP084Zc7frlu3fL8eAAYAgBlpwYJr+7pqvS6p1yZ5giLALLEzNR9oupp3tturN8gBYAAAmDX6+t5wTFdn16W1lOuTXKwIMENvOdelZPnuh7pv3rZt+YN6ABgAAGa1hfOWnttqlV+syRVJTlQEmOYeqMn7WrXznsGxm74oB4ABAIDvMG/e0mOPKXn5o6cCfsy1Gphmt5frUrK859hj/3LDhnfv1gPAAADAAViw4Jozu2u9oia/kJT5igBT1FeScnOnlBUjIyvbcgAYAAA4ZDe0FvXe/ZzU+ppScmVNjtcEOMr2ppQPN02z5oyz5330tttuGJcEwAAAwAR6xllXzN3bPednSy1X1pIfdi0HJlFN8i8luXlvU9+/efPATkkADAAATIJHXxG4LClX1eQ8RYAj5K6krO2UcrMj/gAGAACOsr6+q5e0mq7Lk3plkgWKAIfpnlLzwVrK2qHRVZ+RA8AAAMCUc0Nr0fzNz60lV5RaLk/JqZoAB+j+pHwgyfuHRlfdnkeO/ANgAABg6ru8a1Hvic8utV5eS708KU/RBPhPD/2lfLRpmrUnnTLnY+vWLd8vCYABAIBp7dFfEkheltRXxGsCMJttTc1Hm9RbfMEfwAAAwAz3/78ZkJ9N6iJFYMbbUmr+7tF3+h3vBzAAADAbLZy39NyU8tJS8vIkz0rSUgWmvSYln09TP5K0/n5obNWdkgAYAADgWxYtuv4JZf++F9RW6+Wp9dIkJ6kC08aeJJ9KKR8p+3LL4NZV2yQBwAAAwAF45COCSV6WUi9NzdM0gSmmZjTJrU3qLcccv+cfN2xYu08UAAwAAByWc3qvWtTU7ktqq76o1Dw/yeNVgUn3zaR8Kmk+3pV8fOPowLAkABgAADiCLu86Z8Hx59ZaLq4pFyd5XpI5usCE6yRlfZJbk9zac9yuT/tTfgAMAAAcNb2915/UXcZfWGu9pCQvTLJYFThkm5LyyZTm4+N1zqdGR5d/UxIADAAATEnz5193WlfGL2iV1nOTXJzUZ8avC8Bje/Q9/rTK7Z3UT42M9G8VBQADAADT0uLFy06s+3PhI2NALkrqBUl6lGEW6iQZTM1nSuqttWfOp4aGlt8vCwAGAABmpL6+n3t8qx7z3NRcmJoLU+oPJzlZGWbg7daO1PxrSvO5UvKvnbL/s+32+x7QBQADAACz1uIzl52e7ua5SbmolnJ+Up8VHxZkennkT/dLWZfkM03p3N5uz9+Y3NBIA4ABAAC+ix887TWPe/C47v/S1ZULay3PfPQ7AgvjWwJMDU2S4aTcUUu+kKb863EP7lv3xXvX7JEGAAMAABymJUt+6YTOw3sWN+laUpp6/qMnBc5Lcpw6HEH7kwynlHWlNutqWut6jjt2/YYN794tDQAGAACYJOeff33Prm+MP7228sxW6pLalB9IqU9LcrY6HKSaZEuSjaVkQ02+nKasP/GU7rvWrVu+Xx4ADAAAMAX19b3hmOSBvq5OeXotrSUpeXpqXZLknHiNgNSvJmVDqbmrtsqG1NxVenLn4OCqXdoAYAAAgBlgyZJfOmHv3ocWdXVKX03TV0tZUFL7Ukpfak5XaEb5SilpNzUjJWmXWtudrjJy/K7xQe/qA2AAAIBZ7PTTrz/+xGMe7qut7gU16WvVuqAmZ+aR1wnOTPJ4laaUB5JsTbKlpt6dWkZKq4y0atPevW9P+5571j4kEQAYAADgoPX2Xn9Sq7X3jFZTzq6lnNlqckZNzqrJWaXkKUmenOQkpSbEN5N8Lcm21Gwtyd21VbamNvc0rbolGd/abr/vAZkAwAAAAEfFI98eeOiJXU3z5CbltJT6xFLz5JrmtCRPLClPSsopqXVuSpmb1JNnwX+Ta1J2ptYdKWVHUr9RU79eUr5eUu9tSuve1HJfK/XeTqv1teS4+9rtG/f6pwkADAAAMKP09l5/0pxm39xOcnJXd05uak6utcwtyckldU5NTi6ldNcmj09yTFrl+NT6uCRzkpyUmu5858mDVo5NLd/x84h1TpLHPfo/9iRl37ffGdSH0uTh7/jL+2ZKxvPIn8jvSyl70tQHk+wtrTxQax0vyc6asq8mO0upO1olOzvj2dldunbsLV07R0eXf9PfZQAAAAAAAAAAAAAAAAAAAAAAAAAAAAAAAAAAAAAAAAAAAAAAAAAAAAAAAAAAAAAAAAAAAAAAAAAAAAAAAAAAAAAAAAAAAAAAAAAAAAAAAAAAAAAAAAAAAAAAAAAAAAAAAAAAAAAAAAAAAAAAAAAAAAAAAAAAAAAAAAAAAAAAAAAAAAAAAAAAAAAAAAAAAAAAAAAAAAAAAAAAAAAAAAAAAAAAAAAAAAAAAAAAAAAAAAAAAAAAAAAAAAAAAAAAAAAAAAAAAAAAAAAAAAAAAAAAAAAAAAAAAAAAAAAAAAAAAAAAAAAAAAAAAAAAAAAAAAAAAAAAAAAAAAAAAAAAAAAAAAAAAAAAAAAAAAAAAAAAAAAAAAAAAAAAAAAAAAAAAAAAAAAAAAAAAAAAAAAAAAAAAAAAAAAAAAAAvrf/C8gm79rXrrh0AAAAJXRFWHRkYXRlOmNyZWF0ZQAyMDI0LTA3LTIxVDIwOjAyOjA4KzAwOjAwtiMlGAAAACV0RVh0ZGF0ZTptb2RpZnkAMjAyNC0wNy0yMVQyMDowMjowOCswMDowMMd+naQAAAAASUVORK5CYII=;" parent="1" vertex="1">
          <mxGeometry x="260" y="400" width="60" height="60" as="geometry" />
        </mxCell>
        <mxCell id="vH1DzTLoHbvqbGa9TRak-24" value="" style="endArrow=classic;html=1;rounded=0;" parent="1" target="vH1DzTLoHbvqbGa9TRak-20" edge="1">
          <mxGeometry width="50" height="50" relative="1" as="geometry">
            <mxPoint x="110" y="312" as="sourcePoint" />
            <mxPoint x="170" y="215" as="targetPoint" />
          </mxGeometry>
        </mxCell>
        <mxCell id="vH1DzTLoHbvqbGa9TRak-33" value="/student" style="edgeLabel;html=1;align=center;verticalAlign=middle;resizable=0;points=[];" parent="vH1DzTLoHbvqbGa9TRak-24" vertex="1" connectable="0">
          <mxGeometry x="-0.7874" y="2" relative="1" as="geometry">
            <mxPoint x="55" y="-52" as="offset" />
          </mxGeometry>
        </mxCell>
        <mxCell id="vH1DzTLoHbvqbGa9TRak-25" value="" style="endArrow=classic;html=1;rounded=0;exitX=1;exitY=0.75;exitDx=0;exitDy=0;" parent="1" target="vH1DzTLoHbvqbGa9TRak-21" edge="1">
          <mxGeometry width="50" height="50" relative="1" as="geometry">
            <mxPoint x="110" y="357.5" as="sourcePoint" />
            <mxPoint x="250" y="425" as="targetPoint" />
          </mxGeometry>
        </mxCell>
        <mxCell id="vH1DzTLoHbvqbGa9TRak-34" value="/course" style="edgeLabel;html=1;align=center;verticalAlign=middle;resizable=0;points=[];" parent="vH1DzTLoHbvqbGa9TRak-25" vertex="1" connectable="0">
          <mxGeometry x="-0.6876" y="-1" relative="1" as="geometry">
            <mxPoint x="47" y="42" as="offset" />
          </mxGeometry>
        </mxCell>
        <mxCell id="vH1DzTLoHbvqbGa9TRak-26" value="" style="shape=image;verticalLabelPosition=bottom;labelBackgroundColor=default;verticalAlign=top;aspect=fixed;imageAspect=0;image=data:image/png,iVBORw0KGgoAAAANSUhEUgAABAAAAAQACAYAAAB/HSuDAAAABGdBTUEAALGPC/xhBQAAACBjSFJNAAB6JgAAgIQAAPoAAACA6AAAdTAAAOpgAAA6mAAAF3CculE8AAAABmJLR0QA/wD/AP+gvaeTAAAAB3RJTUUH6AcVFAIIxOap7gAAgABJREFUeNrs3Xt8XHWd//H350wmbWkKLSAVhDaZmUxawr2gKIpV8bKKipfgirZNpiUogrDrBbytQf0pqOtyWVECTdKi6FKvi5dVq1SgCmIBC6XNdDJJSy1ybaH3TOZ8fn9QEBToLclczuv5eOzjsQ/FkPPOd2bO5z3fc44EAAAAAAAAAAAAAAAAAAAAAAAAAAAAAAAAAAAAAAAAAAAAAAAAAAAAAAAAAAAAAAAAAAAAAAAAAAAAAAAAAAAAAAAAAAAAAAAAAAAAAAAAAAAAAAAAAAAAAAAAAAAAAAAAAAAAAAAAAAAAAAAAAAAAAAAAAAAAAAAAAAAAAAAAAAAAAAAAAAAAAAAAAAAAAAAAAAAAAAAAAAAAAAAAAAAAAAAAAAAAAAAAAAAAAAAAAAAAAAAAAAAAAAAAAAAAAAAAAAAAAAAAAAAAAAAAAAAAAAAAAAAAAAAAAAAAAAAAAAAAAAAAAAAAAAAAAAAAAAAAAAAAAAAAAAAAAAAAAAAAAAAAAAAAAAAAAAAAAAAAAAAAAAAAAAAAAAAAAAAAAAAAAAAAAAAAAAAAAAAAAAAAAAAAAAAAAAAAAAAAAAAAAAAAAAAAAAAAAAAAAAAAAAAAAAAAAAAAAAAAAAAAAAAAAAAAAAAAAAAAAAAAAAAAAAAAAAAAAAAAAAAAAAAAAAAAAAAAAAAAAAAAAAAAAAAAAAAAAAAAAAAAAAAAAAAAAAAAAAAAAAAAAAAAAAAAAAAAAAAAAAAAAAAAAAAAAAAAAAAAAAAAAAAAAAAAAAAAAAAAAAAAAAAAAAAAAAAAAAAAAAAAAAAAAAAAAAAAAAAAAAAAAAAAAAAAAAAAAAAAAAAAAAAAAAAAAAAAAAAAAAAAAAAAAAAAAAAAAAAAAAAAAAAAAAAAAAAAAAAAAAAAAAAAAAAAAAAAAAAAAAAAAAAAAAAAAAAAAAAAAAAAAAAAAAAAAAAAAAAAAAAAAAAAAAAAAAAAAAAAAAAAAAAAAAAAAAAAAAAAAAAAAAAAYDcYEQAAUH6fz0dPOWvijrFjJwXF4iSXxrrHxsnCOgsVd2mimdVIvr/Lxki2n8zHK1TtMz8h0ETJnvM5b+5jXRr3DycC29xs+3P+7aGHkp541s8alNsWybeafIdkT7r7kEkbPVBBHmw2K24rWrAtCGzjmO3bN9y79oaNkpw/JQAAFAAAAERCc/O5ddu373hpXOEhofwQ9+ClpnCyyyaZa6KkiRZoou/8/3f+3wFVcvhPSNooaaOZNnr41P/vpo0mPe6yh83CvwWyhwsKHh6/efDB5Q9dv4VVAwAABQAAAGXjsMPa9xsfD6d6EB4Rs/BwVzBF5i9z6RCTDpHrpSYd4tJ+pLVHJyZbXXrYXA+GgR4x2UPy8K8mPRC6HlBYs25LIVizfn3nVtICAIACAACAfZZOtx8cDg6mYmYpl09xs8NNOkLyKZIdLulAUiqpxyVfJ9nap/7P15lsbRh6zmrjfdls56NEBAAABQAAAJKko6ecNakQjyc8tIRMCXdLyKxZ8mY9tRUflWu7pLzMVsiVlykvV141ymezUwakjpCIAAAUAAAAVJWWWDK5f0NN6Ee66cinhnubLvk0SePJJ5K2SLZKpvvlut9c9xdjxRW5XEM/xQAAgAIAAIAK+ExLJucmY/KjFYbTzazZXdNlmi5pLPFgN2yTa5Wb32+yFTJfGZrfm8styIsnGgAAKAAAABh9M2d21Kxb198UeGyGfOe3+q5XynQQ6WAEbJJsubkv88BWyHV/GIy/M5e7agfRAAAoAAAAGCap1PljbGjzcUGgE9zseLkfL+loSWNIByW0XdJ9ct3lZncr9Lu9pu4eSgEAAAUAAAC7qemIzGHFmnBGYMEpkl4t+QyxhR+VYUhSVq7bFNjS0IrLcrkF94vLBwAAFAAAgKhrbj63rrBt+3GmcIZbcIrcT5U0mWRQRZ6QdKdkS0MPl40pxJauWDf/cWIBAFAAAACqWir1gf2DcMzLJZ2mp77df7mkOMkgQoqSeuW6zeSLPV57czbb+SixAAAoAAAAFa2hYd7kmIZevnM7/2mSHy8pIBngWVx5SYsV2NIhH1qSzy9cSygAAAoAAEBZSyZnHRJ4zRtM/gaXnWpSI6kAe3x6lpX5LZL/NjT7bS7X/QiZAAAoAAAAJVVf3zq2Ngherae29PMNPzASXHmTfuZmNw2G4W0DAz3bCQUAQAEAABhx6XQmoeLOgd/9LZImkAowarZJWmryxWa+eFXfgrvEUwYAABQAAIDhkEp9YP9YsfZNLp0u079IOoRUgLLxkEm/CGU/D+L6dW9v1yYiAQBQAAAAdlvT1HkNXhO+Ue5vl/RGSWNIBSh7RcluN4U3hcWa/1295rqVRAIAoAAAAPyDlti05H7HhR57u6TTJZ9BJkCFe9a9AyZMqvn9smWdBUIBAAoAAEAE1de3jh1jwZtc/h6ZvV3ySaQCVK3H5boplP9wyPUbbiQIABQAAIAqd/jhLePGxsefFgRBi9zfKWl/UgEid/K31aXfyWyR1ejH3DcAACgAAABVor6+deIY0xs9CN4u93dJqiMVADttl7RYZouGvOan+XznE0QCABQAAIAK0tx8bt3Q1m1nuOn9kk6TVEsqAHZhh+SLTcH3xmwp/GT5Q9dvIRIAoAAAAJSlllg6MeF1Ms3mm34A+2i7pMXmvrBmvy0/XbFi0SCRAAAFAACgpDqCdGLtq8y9xU3/KukQMgEwzKeLG2T6mVwLs/mu30pyMgEACgAAwCiZlmg9uij7oEnvl3QEiQAYpRPHtS77XszsOyv75t9HIgBAAQAAGAGJRPsBNTb0PrlmS34KiQAosftNvtBraudns52PEgcAUAAAAPZJR5BOrH29TLPN/T0u7UcmAMrMDpn9bxiG1x8+tf6XS5Z0DBEJAFAAAAB2UzLZdkSN+1kunSNZA4kAqBB/lew7RbPr+vrm54gDACgAAADPI5U6f0ws3PJeV9gu2Wt4jwZQwdxMt4Suazyo+1Eud9UOIgEACgAAYPBPzUkGYexsyTOSXkIiAKrMRnMt9Lhdkc125YkDACgAACBinrm2v13u75YUIxMAVS6U9Dtz7zx0av2PuVcAAFAAAEBVa65vfelQoDku+7CkqSQCIJr8QSlYOKShq/P5hWvJAwAoAACgakxLtr0qlF0o9zMkxUkEACRJBZl+HEhXrOrr/gNxAAAFAABUpBkz2uObHx88w80ulPQqEgGAFz0pvcvNrpgwseZ7y5Z1FkgEACgAAKDsJRLtB8Q12Oqyj0k6gkQAYI/8TbJrVFPz39ls56PEAQAUAABQdqYlZqfdYx+RaZ5L+5EIAOyTHTK7MfDwa6vyPfcSBwBQAABAyTU2tL7RzD4h6TTeVwFg2LnJf+Pyr2bzC35LHABAAQAAo6wjSDUMvC0w+4ykV5AHAIyKe2T2X9m+Td+VFhWJAwAoAABgxDQ3t9QWtk/4V7l/StI0EgGAEnDlzfzKLYNbOtetW7SNQACAAgAAhk1TU2aCCmHGZZ+Q9DISAYCy8LBk3xoztP2Ke9fesIE4AIACAAD2WkPDvMk1Vvx3kz4kaX8SAYCy9ITk3ypa8b/6+q5/mDgAgAIAAHZbKtX2kiC0j5n8fO7oDwAVY4u55gdh/NKVazofJA4AoAAAAAZ/AKhuO+RaYEN2Se8DXeuJAwAoAADgGcnkrENiHv93yT8qaRyJAED1FAGKF7+QzS78K3EAoAAAAAZ/Bn8AqG6DcvVQBACgAACACEql2l5ioX/aZB+WNIZEACAStkt2tWpqvpLNdj5KHAAoAACgijU3n1s3tG3rR1z2KUkHkAgARNJmyb45pJqv5POdTxAHAAoAAKiqwb+ltrB9QqvcvyBpMokAAOR6zMy/tmVwy5Xr1i3aRiAAKAAAoKJ1BE0NA+9x02WSNZAHAOB5rJPZFw87YkrXkiUdQ8QBgAIAACrs/a2pIdPipi9KniYOAMBu6DX3z/X29/xAkhMHAAoAAChzjfVtr7DA/lPyU0gDALAX7nQPPr66f/4tRAGAAgAAylAiMXtKjdV8Se4f5P0NADAMfhYG4YW53II+ogBAAQAAZeDoKWdN2lEz9iLJLxSP9AMADK+CXN1hTJ/N5bofIQ4AFAAAUAIzZrTHN20capP7lyS9hEQAACPocZN/tRhMuDyXu2oHcQCgAACAUdKYyLzH5JdKSpEGAGC0uLTazD+Z7ev5CWkAoAAAgBE0LTE7XbTYleZ6M2kAAEro5pgFH13ZN/8+ogBAAQAAw+iYybPGbx8f/4Tkn5JUSyIAgDJQMNe3irHBz+Vy332SOABQAADAPr5PpZOZWXK/TNJLiQMAUIb+JrPPZ/umXCd1hMQBgAIAAPZQKjX3+CD0qyQ/hTQAABXgTg91/uqB7juIAgAFAADshqOnnDVpMDamw00fkRQjEQBABQll9t3Q/GM8NhBAueHEGkA5sXQyM7sYxG6S6fWSAiIBAFTaZ5mkY81t3kEHHr/hsQ1330UkAMrpDQoASm56orWxKLta0mmkAQCoHn5LGNiHc7nu+8kCAAUAgEibMaM9vnnD4L+77BJJY0gEAFCFCpJ9YzAMOwYGerYTBwAKAACRk6pve20Q6NuSppEGACACcu5+7ur+nt8QBQAKAACR0Hz43AML8fArMp3N+xAAIHpn4LaoqMJ5fX3XP0wYACgAAFStdLJtjlzfkHQgaQAAIsv1mOT/lu3vuZ4wAFAAAKgq06e2H1oMCt+S6Z2kAQDAM35ZNJ3T19f9AFEAGGk8BhDAiGtqaG0Jg/AXMh1PGgAAPEdjIGUOOvCEx3lkIICRxg4AACNmWn1rfRhYp6Q3kgYAALvitxQtNrevb36OLACMBHYAABgJlk5m2t30Y0nTiQMAgN36+Jwak887eNJxxcc2nPFHaYmTCYBhfZchAgDDKZWak4x5MN9dryUNAAD2jruWeCycl8st6CMNAMOFHQAAhk06mZltbjdJSpMGAAB7z0z15nb2wZOO2/zYhnv+RCIAhuW9hQgA7KuGhnmTa4Jip7neQRoAAAwvN/0qGLRM7wNd60kDAAUAgJJpTGTeY/JvSzqYNAAAGDEbXf6R1fmeG4gCAAUAgFGVSn1g/6BY+zWZ2kkDAIDROnu3RWMK28+5d+0NGwgDAAUAgBE3Ldn2qtC1UFKSNAAAGPUT+LUya+3t67qZNABQAAAYEanU+WOCcMuXJb9QUkAiAACUTGimbxSt7rO53FU7iAMABQCAYdPUkGly+fdkOp40AAAom5P5u0zF96/KL8ySBoBd4TGAAHYpnczMlvynMk0lDQAAysqhrmDezscF3kEcAF4MOwAAvKCmpsyEsBB+y2QfIA0AAMqbSz8ohH72wEDPRtIAQAEAYPeH/0TmRJd/T1KKNAAAqBhrAtNZq/q6/0AUAP4RlwAA+EfWlGi9wKXvS3oJcQAAUFEmujTnoEknxB7b8M5bpCVOJACeOdEnAgBPSyZnHVLjsetd9ibSAACgsrnpV26alct1P0IaACgAADwjnWg9SbJFEjf6AwCgivzVLHxfb9+CpUQBgEsAACidzLRL+qGkA0kDAICqsr9ksw+edNzgYxvu4b4AQMSxAwCIsKamzAQf0ny5t5AGAABVzvXTQfdWnhIAUAAAiJjG+tbjLLBF4i7/AABEqAPQ6sCL7+3tX7icNIDoCYgAiJ50MjM7CGwpwz8AANFiUqNb7I50Q+vZpAFE8j0AQFTU17eOHRPY1S61kQYAAFHn8wdDnTcw0LOdLAAKAABVJJ2e/TINBT+S7OWkAQAAnuoAdHdMwbtW9s9fQxhA9eMSACACmpJzTtFQ7M8M/wAA4DlMxxctvHNaqnUmYQDVj8cAAlUuncy0y+1/JB1AGgAA4HmMd7cP7nxU4FLiAKoXlwAAVaq5uaW2sH3Cf8udm/wAAIDd4+qM77f5/BUrFg0SBkABAKACpFJtL7GibjTTTNIAAAB76A+xYvy9K9d0PkgUAAUAgPIe/k+IhfqxS1NIAwAA7OWUsN6Levfqge47CAOoHtwEEKgiTQ2tLUGo2xj+AQDAPnEdZoF+39TQ9kHCAKoHNwEEqoM1JVovcrNvS4oTBwAAGAY1Mr3roEknjHtsw92/JQ6gCoYGIgAqWyp1/pgg3HydJBp6AAAwQlODLdq6Y9OcdesWbSMMgAIAQAmk0+0Ha6jwI0mvIQ0AADDCk8PthTB2Rn//dQ8RBkABAGAUTU/OParo4U2S6kkDAACMknVhELwjl5t/N1EAlYebAAIVaFp925uLHt7G8A8AAEbZ4UEY3tKYaDudKIDKw00AgQrTmGw9X2YLJY0jDQAAUAK1Jr3voIknPPbYxrvvJA6AAgDA8LN0ItNh0mVi9w4AACitQKa3Hjzx+AMf23jGr6UlTiRABQwURACUv+bmltqhbXXdLp1FGgAAoJy49INC6LMGBnq2kwZAAQBgn4b/c+sGt2/7gbneTBoAAKBM3Tyk+Lvy+c4niAKgAACwF6ZPbT+0GCv8QtJxpAEAAMqZS/eFprf29XU/QBoABQCAPZBKtR0ZC/VLl6aQBgAAqJDpYr1Ce2u2v+svhAGUH24kBpTl8J95ZRDq9wz/AACgorgOk+nmVH3bawkDoAAAsAvpZOZdQei/k3QwaQAAgApsASYFgf4vnWw9gyyA8sJjAIEy0tTQ9kFJ35VUSxoAAKCC1UjWcvDEE/762Ma77yYOgAIAwLOkG9rOk+kaXpcAAKBKBDK9/aCJJ2x+bOPdfyQOgAIAgKSmROtFMvuGuDEnAACoLibTmw6adMK4xzbcvZg4AAoAINIfiulE2zck+xxRAACAKvbqgyadcMhjG975f9ISJw6gRMMHEQCl0hJrStRd61IbWQAAgIgMHzfUTYq3LlvWWSANgAIAiIRU6vwxQbj5BknvJg0AABAxP9s6uPnMdesWbSMKgAIAqGrHTJ41fvv4mv+V9HrSAAAAER1Dfjt2S+Gdyx+6fgtZABQAQDUP/zdJeh1pAACAiLvN4vbW3t6uTUQBUAAAVSWRaD+gRoVfSHoVaQAAAEiS/jxmaMeb7l17wwaiACgAgKpQX986sTZmv5TrZNIAAAB4zkiyLKgdevOqVQsfIwtgZAVEAIyso6ecNak20K8Y/gEAAJ6PzwgHY4vT6faDyQIYWewAAEZQKtX2kiDUbyQdSxoAAAAvOpmsjA3F37ByTeeDhAFQAAAVJZmcdUjMaxZLOpo0AAAAdssqK9gbeh/oWk8UAAUAUEnD/82SjiQNAACAPSsBCh6b2d9/3UNEAQwv7gEADLOjp5w1qcZrfsnwDwAAsFemxa24pKFh3mSiAIYXOwCAYVRf3zqxNggWSz6DNAAAAPaFLw9qw9fzdABg+LADABgmiUT7AbWB/ZrhHwAAYDjYMeFgbHHz4XMPJAuAAgAoG8dMnjW+RoWbJJ1EGgAAAMPmuEJt+ItU6gP7EwVAAQCU3GGHte+3o67m55JeQxoAAADD7hVBWPvLpqbMBKIAKACAkg7/dWMLP3PXa0kDAABgxLzKC/6L5uZz64gC2HvcBBDYS6nU+WOCcPNNkt5IGgAAAKMxvPivi8GEd+RyV+0gDWDPsQMA2CstscC3XM/wDwAAMHpc9qYg3PL9mTM7akgDoAAARoOlk3XflnsLUQAAAIx6DXDG+jVr5ovdzMAeixEBsGeakm1fk+s8kgAAACgR07EHTTzhwMc23v1LwgAoAIAR0Zhs+6xcnyUJAACAkpcArzho4nGFxzbecythABQAwLBqSrR9WNJ/kgQAAEC5lAD2hoMnnfDEYxvuvp0wAAoAYFg0JlrPkuw6ca0ZAABAuXnzgQeesObxDXffQxTAi2OYAXY5/M99myn8saQ4aQAAAJSlguRnZPM9vyAKgAIA2CtNicyJLl8iaTxpAAAAlLVtYWBvyOW6/kgUAAUAsEdSqTnJIAyWSppMGgAAABXh0UDFU1blF2aJAvhnAREA/yydbj84CGO/YPgHAACoKAeHHvtlQ8M8zuEACgBg1w47rH0/KxT+V/I0aQAAAFQYUyJuxZ8dM3kWl3ACFADAi2mJ1Y0p3OCmV5IFAABAxTpx+/jY/8yc2VFDFAAFAPC80okJV8r0TpIAAACodPa29Q+s+RY5AH8XIwLg6eE/0yH5J0gCAACgapxw8IEnhI9tuPsWogAoAABJUmMy02ry/yIJAACAqjPzoInH5R/beM9yokDU8RhARF46kXm15IsljSENAACAqlQIAn/TqlzPEqIABQAQUU1T5zV4rHiHpJeQBgAAQBVzPVYMgpP7+ubnCANRxU0AEVmp1Af291jxJoZ/AACACDAdFPPwpvr61omEAQoAIEJmzuyoCcLaH0pqJg0AAIDImFYb2I08HhBRxU0AEUnxoOG/TXofSQAAAEROctMTG1/22IZ7/pcoQAEAVLl0ou3fTPosSQAAAESVnXDwpOM2PrbhnjvIApFa+USAKGlMzH2bKfypKL8AAACirij5O7L5nl8QBSgAgCrT1JBpcvM7JB1AGgAAAJC0KQzCV+ZyC1YQBaKAmwAiGsN/U2aCm/+I4R8AAADPMiEIYz/iyQCgAACqRkfgBb9B0pFkAQAAgOfydDxm35dauEQUVY/HX6DqpRNrviTpdJIAAOB5/cHcLycGSJKbfULSSVE7bnO9uSlZd0lvHzeKRpWvdSJANWtMtL7bZD9grQMA8IKng9/P5rveTw6QpHQi82PJz4jo4bu5/Wtvf9eNrARUKy4BQNVqaph9jMkWMvwDAABgN5ibz5+WaD2aKEABAFSQ5sPnHugW+5Gk8aQBAACA3VQXyv43nW4/mChAAQBUhJZYodZvlJQkCwAAAOyhehsa/C43BQQFAFAB0onxX5L8DSQBAACAveGyNzU11HWQBCgAgDLWmJj7NskuIgkAAADsUwlg+kxTqu2dJAEKAKAMJRKzp5iHC8RN/wAAALDvzEPrbpo6r4EoQAEAlJFU6vwxNYr9UKaDSAMAAADDwyd5rPg/qdT5Y8gCFABAmbBw0+WSTiQJAAAADLOTAt/8dWIABQBQBtLJ1n812YdIAgAAACPCdV66oXUWQYACACihpoZMk9w6SQIAAAAjyuzqVKrtSIIABQBQAs3N59Z54D+WNIE0AAAAMMLqglA3HjN51niiAAUAMMoKW7f9t1zTSQIAAACjpHn7+NgVxAAKAGAUNTVkzpRpDkkAAABgdNncxkTrWeQACgBgFKTTmYSbX0sSAAAAKEkFILu6aeq8BpIABQAwgmbMaI+r6N+VtD9pAAAAoEQO8Fjxf5qbW2qJAhQAwAjZ/Pjg/5PrZJIAAABAiZ1U2FbXQQygAABGQKoh8yY3+xhJAAAAoExc1NjQ+kZiAAUAMIySyVmHBBb2sGYBAABQTvOUmV3fXN/6UqIABQAwPCxQzULJDiUKAAAAlJnJhcC6JBlRgAIA2EdNicwF5nozSQAAAKBM/Uu6oe0jxAAKAGAfNE6dN93lXyYJAAAAlDXT11KpOc0EAQoAYC/MnNlRY7HiAknjSAMAAABlbmwsDBbOmNEeJwpQAAB76MEH1nRIOokkAAAAUAlcOmHThqHPkAQoAIA90JTInOiuT5IEAAAAKqwG+ExjfdsryAEUAMBuOOyw9v1c+q4ktk8BAACg0tRYoO82N59bRxSgAAB2YfzYwf+UPE0SAAAAqFDJwrbtlxEDKACAF5FqyLzJZOeQBAAAACqbfzidaH0rOYACAHgeR085a1IQeLckIw0AAABUOJPZtfX1rROJAhQAwD/YERvzX3IdRhIAAACoCq7D4oH9J0GAAgB4lnQic5pMs0kCAAAA1cSkTFOy9S0kAQoAQFIq9YH9Je8SW/8BAABQhdztOi4FAAUAICnwMV+XdARJAAAAoEq9LB7oK8QACgBEWlOy7fVyn0cSAAAAqGYmO6exofWNJAEKAETSMZNnjXdXp9j6DwAAgAh0AGbW2dx8bh1RgAIAkbN9fPyrkpIkAQAAgIioH9y27UvEAAoAREpjw9xTJf8QSQAAACBKTDp/WrLtVSQBCgBEQnNzS61Z+C3WHwAAAKI4g4Wuzhkz2uNEAQoAVL3CtrqLJR1JEgAAAIio5k0bCh8nBlAAoKolk3NTkj5FEgAAAIi4z6VSc7gfFigAUL1iHn5L0liSAAAAQMSNi4V2NTGAAgBVKd3QOkvSaSQBAAAASC57U2Oi7f0kAQoAVJXmw+ceKLOvkwQAAADwdyb919FTzppEEqAAQNUo1Ba/KukQkgAAAACeY/JgzZivEAMoAFAV0onMqyXLkAQAAADwz1w6uyk55xSSAAUAKtrMmR01Lv+WJCMNAAAA4PnnMvfgWzNndtQQBSgAULEeXLv2PJOOIgkAAADgRR391wcGPkwMoABARUomZx3i8s+TBAAAALBr5val5vrWl5IEKABQcWIeu0zSRJIAAAAAdsv+hUBfIgZQAKCiNCUyJ0o2myQAAACAPWFtjfVtryAHUACgQnQErvCbrC8AAABgz2c0C+ybUgfn0qAAQPlLNwzMlezlJAEAQPkzeUgKQLnxGU0Na9vIARQAKGtHTzlrksz+H0kAAFC2NklabPKLJXtNzbjNDBlAOVYA5l+ur2+dSBIYTjxnEsNqR03tFyW9hCQAACgTpvVyu0Wu22KB/X5l3xH3Sx186w+Uv0PGmF0i6QKiwPB9JADDpHHqvOkWKy4XxRIAACXkD8qC2yQtDq24NJdbcL8kJxfsjnQi82PJzyCJsjEUBuFxudyCFUSB4cCghmFjseJ/sqYAABjteV95SYsV2NJYaL9f2T9/DaEA1TOvBWFwqaS3EwUoAFA2mpJtr3fXv5AEAAAjqijZPea+VPLbPF57czbb+SixAFXt9MaG1jeu7u/5DVGAAgBloCOQr/kaOQAAMOwKki2XtDj0cOmQ69aBge6NxAJEi5l9Teo4gft3gAIAJdfUsLbNpRNIAgCAfbZZ0u2SLZV022AY3jYw0L2dWIDIO7YxuXb26j71EAX2BTcBxD5pbj63rrBta1ayQ0kDAIA99rCkP5n8NlewdMKkmjuWLessEAtKhZsAlvXktn7s5qH08oeu30IY2FvsAMA+KWzb9gmGfwAAdtdTd+g3D5ea+W2r+hbcJe7QD2C33j502PbxNR+T9AXCwN5iBwD2WtMRmcM87llJ40kDAIDnPWHPK3hqO//OR/LxKC+UNXYAlP3wtnXINK2vr/sB0sDeYAcA9loY9y8awz8AAE8ryrXcTbdIdmtohVv78tc/TCwAhotL+8XcPy9pHmlgb7ADAHulqSHT5Ob3iRIJABBdQ5L95elH8tUUYr9dsW7+48SCSsYOgIpQDAMdk8t1308U2FMMb9grbrqU9QMAiBKTtrrsbkm3SVq8dXDT0nXrFm0jGQCjLBYL/QuS3ksUoADAiEsnWk+S/J0kAQCocpsk3fH0I/mKwfhbc7mrdhALgFJz2btT9a0n5wZ6bicNUABghAVfkZzLRwAA1eYhSXea/DYzX7yqr+FuqSMkFgBlyILAvijpjUQBCgCMmHQic5rkbyAJAEDle+qRfJIW77xD//3ikXwAKsdp6cScN2TzC35LFKAAwMgw/yKnRgCAypz3lZe0WIEtDYrhLasGegYIBUBlC74i6RWivAQFAIZbY6L13XKdTBIAgApQlNQr120mX+zx2puz2c5HiQVAlTkpnWx9Z7av5ydEAQoADKOWmMm+SA4AgDJVkGy5pMWhh0uHXLcODPRsJBYAVc/t0pkzO362ZEnHEGGAAgDDIp2s+6BcR5IEAKBMPClpqaRbJbs1DMbfyR36AURU0/o1A++XdD1RgAIAw6Al5q7PcNt/AEAJPSLpDpPf5gqWTphUc8eyZZ0FYgEASWafnzmz43vsAgAFAPZZY3LCLHNvJAkAwCjaJOmnMrvVh4JbV6+5biWRAMALSq5/YO1ZkhYSBV5MQAR4cS0xc32KHAAAoyxeNH0629fVyfAPALvB/XMzZ3bwBS8oALD30skJH5A8TRIAgFE2Nib7HDEAwG5LPbhmzb8SAygAsJdaYnL/NDkAAErCPdM4dd50ggCA3ROa/oNdAKAAwF5JN4w/S1ITSQAASiQWxIZ4BC0A7CaTGh9cu/Z9JAEKAOyhlpjMPkMOAIBSctl7UqnMK0kCAHZPKP+81BIjCVAAYLc1JSb8q/j2HwBQDicrYXgpKQDA7jGpsTFRdyZJgAIAu6kjcPlnyQEAUCans6dOq297MzkAwG6+a5o+J3Uw64ECALvW1DDwHknTSAIAUC7CwL/KySwA7CbX9MbE2ncRBCgAsOv3C7OPkQIAoLzYMY2JNdzYCgB2911TfhEpgAIALyqdmPMGSa8gCQBAGZ7M/r/m5pZakgCA3XJSUzLzOmIABQBebEnQFAIAyrUCaChsGz+PHABg94TsAgAFAF5IuiFzrKTTSAIAUMYlwOebmjITyAEAduMd0/XmVKrtBJIABQCeZzX4pyUZQQAAytgh4ZBfQAwAsJun+KF9ghRAAYDnSKczCbneQxIAgHJnrk8mk7MOIQkA2B3ekkzOTZEDKADw95OpIf+kpBhJAAAqwISY11xMDACwW2KBh/9ODKAAgCSpoWHeZJdmkwQAoIJ8JJ3OJIgBAHbNpLbpU9sPJQlQAEA1GvqIpHEkAQCoILUq+H8QAwDslrFDweCHiQEUABGXSp0/xszaSQIAUHFMs3Y+wQYAsKu3TLMP1de3jiUJCgBEeQEUN8+SNJkkAACV+DFm5l8kBgDYLS8ZE+gsYqAAQJSZn08IAIBK5dLbp6VaZ5IEAOxaKPs38dhvCgBEUzox5w2SHUMSAICKPqEN7VJOaAFg10w6qinZ9jqSoABAJN8AggtIAQBQBV6Ramg9nRgAYNdCiRmAAgBRk0zOTbn0NpIAAFQDM/uy1BIjCQDYxful6+1NDZkmkqAAQITEQv8of38AQNWc0EpHpZN1HyQJANidDkAfIQYKAEREKvWB/WU+hyQAAFXFdUkqdf4YggCAXVYAbfX1rRMJggIAERALx2Qk7U8SAIAqMzUIN59LDACwS3W1gbURAwUAqp+5/EPEAACoQpvl2kQMALBbzhFPUKEAQHVLJ+a8XhI3/QAAVBe3/4t5cFS2v/s6wgCA3dLEIwGjp4YIInZ+pOBD1HwAgOphG2S6OJvv6iQLANjT2cA+JOl3JBEd7ACIkOb61pea9E6SAABUx+xvi8LAm7J9DP8AsHcNgL+r6YjMYQRBAYAqNBQLzpYUJwkAQIVbI7O3Zvu6zszluh8hjn0zY0Y75wZAdNWoVnOJgQIAVacl5u68uAEAlczl6rS4HZ3t6/olcey7+vrWiZsfL/wHSQARfmN1P1tqiZFENHAPgIhoStWd7qGmkgQAoEKtCEOflxvouZ0ohktHUBsMfMdlPDkBiLYjUg3j35rr101EUf3YARARXjQe/QcAqEQFyS4Lg7oZDP/Dq7FhoEOyt5EEgMCYFaKCHQARkE5nEhryN5EEAKDC/CEMdHYu13U/UQyvpobMO9z8MyQBYKe3NE2d19C75rp+oqhu7ACIACt6hr81AKBiPrekrSa/OJvffGou183wP8ymJWan3Xwh5wYAnj0XhsFQGzFQAKDidQRyzSIHAECF+GVBxem9+Z7LpEVF4hhezc3n1oWK/UjSAaQB4NnMrI2bAVY/LgGocqmGtae5NIUkAABl7nGZfSrb19VJFCN3fl/Yvr1LUjNRAHgeh6cTE16XzWsxUVQvdgBU+x/YxFYeAECZj6W2KAw0jeF/ZKUTbRfLvYUkALzg27Gc2YECAJUqkWg/QPJ3kgQAoEwNBKHeku3rOjOX636EOEZy+M+cJumLJAHgxbj07qOnnDWJJCgAUIFqNPgBSeNIAgBQZkK5Oi1ux6wa6P4VcYys6Q1zp0r+PUlc2wtgV8Zurxn7PmKo5hkRVczYwgMAKCsu3adQ81YPdN9BGiPv8MNbxhXNfyjpYNIAsFsThMI2Sd8mierEDoAqNT059yhJJ5IEAKBMFCS7rHbc5hkM/6Nnv9rxV0s+gyQA7EEF8PKmhtnHkEN1YgdAlSp6mCEFAECZ+EMY6Oxcrut+ohg9TYnMhS5vJQkAe8qD2GxJHyeJ6sMOgCo0c2ZHjaQPkAQAoMSeNOncbH7qa3K5bob/UZSqb3uty79KEgD2rgHQB3fOFKgy/FGr0PoH1r5R0iEkAQAo4dnjz4cUnpvPL1xLFqNr+tT2Q4vB4Pcki5MGgL00+W8Da94giRu1UgCg/M+5/CxCAACUyEMy+2S2r3shUYy+VOr8McVw008kO5Q0AOyL0HQWBUD14RKAKnPYYe37STqDJAAAo85skWriR2X7uhj+S3Vi55v/W7KXkwSAfX9P17t2zhaoIuwAqDJ14wbfIbc6kgAAjB7vDz34UC7f9WuyKJ3GZNs5cs0jCQDDZMKEMUOnS7qRKKoHOwCqjLmx/R8AMFpCuTrj4/Y7JtfP8F9KqfrWk811BUkAGE5uej8pVBd2AFSR5sPnHlhQ+GaSAACMgnvlwbxs//w/EUVpNTTMmxxYcZGkMaQBYJgrgLc2Hz73wBXr5j9OFtWBHQBVZLDWz5RUSxIAgBG0XbJL4uM2n8jwX3ozZrTHa4Pi/0g6nDQAjIDaQjx8NzFUD3YAVBFT+H7JCAIAMFKfNEsVhvOyA92ryKI8bNpY+IZcryUJACM4ZLxf0nUEUR3YAVAlksm2IyR7NUkAAEbAEya/MJufcmp2oIfhv0w0JTIfkOs8kgAwwmamUvPYZVQl2AFQJWKhnSlzCh0AwDCzn1hBH+l9oHs9WZSPVGru8R6G15IEgFEQxMLwvZIuJ4oq+GMSQZWcnsnfQwoAgGH0N3O1ZPNd7+p9oCtSw39z87l1UkusXH+/adNmHxSE4Y8kjWOZAhgNzqxBAYDykU7PfpmbTiYJAMCwnOeZXR/UFo/q7e/+QeQ+U5OZfyls23ZfY7LuU+X5G3YE4Y6a70iqZ6kCGEWvajoicxgxVD7uGFcFGpOt55vblSQBANjH0T8vs3Oy+a7FUTv05sPnHliIh1+RqX3nfzQUhv6a3EDP7eX0ezY1tH7VzT7BYgVQgg+Jj2TzPVeTQ2VjB0BV/BGNLTkAgH0xZK4rx24dOiaKw39TQ2tLoTbsfdbwL0k1QWDfaWrKTCiX3zOdzLzLzT7OcgVQGswcVfFXJILKlk63H6yhwoPiho4AgL3iyyXNy+Z77ozeZ2gmoSH/tqQ3vsiZ0nXZvu6zS/671rdOU2B3SNqfNQugRIphoENzue5HiKJysQOg4l+GQ+9m+AcA7IVtkl0SH7flpKgN/zNndtQ0JVov0JAvf9HhX5Jc85oaWltK+fs2NWUmKGY/YvgHUGKxWNHeQQwUACgh85CtOACAPXWrQj8hm+/qWLFi0WCUDryxvvW49WvX/NFll0savzv/G7fgmmSy7YjS/MYdgRf8Brmms2wBlJobTwOgAEDJ1Ne3TnTZTJIAAOymJ0x+YTY/dWZ2oGdVlA788MNbxqUTmUstsD9LOnEPT3knxVzzVYJLJ9OJNZ+XdDpLF0CZOO3oKWdNIgYKAJRAbSx4h6RakgAA7IrJfxgrxqf35nuukDrCKB17U7L1LfvV1t0v+UWSYnv5Y97YlMhcMJq/d6qh9e2SPsvqBVBG4jtitZSSFAAoCfd3EgIAYBf+Zq6W3nzPe1eu6XwwSgd+9JSzJqUb2q5xt19Kqt/nj135pemGzLGj8btPT7Q2BmYLOVcDUHYjiHEfgErGUwAqVHNzS21hW92jkiaQBgDgeedVs+/Ed9iFK9bNfzxqB9/U0NriZt+U9JJh/tH3bx3cfOK6dYu2jdxn/Ll1hW3bbpfUzDIGUIY2h0HdwbncVTuIovJw9/gKtWPrhJmBOcM/AOD59EnhOdm+Bb+N3OA/dV5DWFP8lrvePEL/iiPH1Y7/sqR/G6Gfb4Xt2+Yz/AMoY3VBuOU1khYTReVhW1nl/uG49gYA8I+GzHXl2C1Dx2bz0Rr+n360n8eKy23khv+nJnTZBelE61tH4menE5mL5DqTpQygnLnCt5FCZeISgAqVTrTlJCVJAgCw019MNq833/XnyH0mNmSOlfm1kk4axX/tQwWPHdvff91Dw/fZPucNUvAr7f2NCgFgtBqAfLa/m1mkArEDoAKlUnOaGf4BADttM/nFh02ZemLUhv+dj/brkPmdozz8S9LkuIrXDNcPm94wd6oUfJ/hH0BFMCXS9a3TCIICAKMgFhrb/wEAkvwWczu+N99z2ZIlHUNROvJUfdtr96udcI/kn5cUL9EJ8DvTDW3z9vXH1Ne3ji2a/1DSwaxpABXzCWTMJBQAGJ0Xm4xrbgAg2jbK7Jxsvmdmb39Xb5QO/OlH+wWBbpY8XfJfyHR5U0OmaV9+RG2gb0k+g2UNoMIwk1Qg7gFQYZoPn3tgoTZ8SDzBAQCi6meqKX4om13416gd+Ag+2m9fT6eWTZhU88plyzoLe3xMidYLXHY5yxpABSrGB4NDovio2UrGEFlhBmuLbzEZfzcAiJ6/mtu5vf1d/xu5wX/kH+23j3zG5o2Fz0v67J78rxob5p7qCr/G0gZQoWKFMcU3Sfo+UVQOLgGoMGbBW0gBACLFZXZ9fDA4JnrDf0eQTmbaR+PRfvv8R3J9alqqdebu/vPTp7Yfalb8vkp1/wIAGJ5PqDcTQmXhm+QKm//l4WlcuQEAkdFnpvbevq7fRe3AmxpmH+M2cK3cXl4hv3IQhrbw6ClnHXvv2hs2vNg/OGNGe3zThqFFkh3KEgdQ4ePJG8mgsrADoIJMT85t5mQBACJhSLLLBkM/qrevO1LD/9OP9nOL3SlVzPD/tCN21Iy5clf/0KaNQ9+U/BSWOYAq8LJUqu1IYqAAwAgoevFNpAAAVe+ewMKTs/muiwcGerZH6cAbG+aeul9t3d07H+1XW6GH8cHGRNv7X+i/TCcz7XI/m2UOoFrEQmcXAAUARoQHvLgAoHptM/nF2fzmE1f1LVgWpQOvr2+dmG5ou8YsXCKpqdKPx6RvTW+YO/Uf//PG+rZXyP1KljqAqhpRJGaUyvqMQiVobm6pLWyre1zSeNIAgCr7MDb93rzYviq/MBu1Y9/5aL//lnRIlR3ardn85tdJi4qS1NAwb3Lcin+WdDgrHkCV2RIGdQflclftIIryxw6ACjG0fcIpDP8AUHU2yuyc3r7u10Vt+G86InNYOtH2Ize7sQqHf0l6TVNi/MclaebMjpraoPg/DP8AqtR4DW0+mRgqA08BqBDuXFsDAFXFbFFRhfP6+q5/OFoH3hGkk2vnufvXJU2o6s9u2RfTDXNvXr9m7Qdlei2LHkC1isX0Rkm/JwkKAAwfCgAAqA4PuHTu6r6un0XtwNMNmWNla66V66SIHHJcFt6k6tzhAADPcNebJH2WJMof9wCoANOmzT4oHIw9LC7ZAIBKFkr+LYsHn+rt7doUpQM//PCWcfvV1n1O0sclxVkKAFB1ivHB4JAV6+Y/ThTljR0AlXDGWKg5VXKGfwCoXDkza+/t6745ageebmh9jcw6JU1jGQBA1YoNjQ1fI+mnREEBgH3kHp5qbNYAgEpUkOwbYTD+81G7O3J9fevEWrPLZDpb7DgEgOqfWUI7lQKAAgDDIJCd6sQwrMztfRYU+0gC+yJU7AK5zyIJPP8bjW6PKTh7Zd/8+6J26Olk2/vkukLSZBYCAEQGNzutiNMTlLVEov2AGhUekxQjjeETs+DoKJ6UY3g1NbR+1c0+QRL4hw/WrZJ/oTe/5etPPwM+Mq+JIzKHedyvkvRuVgIARE5xSPGD8vnOJ4iifLEDoNwHVRVfzfAPABXC7f8C2YdW9s9fE7Ejt3Qyc3YUHu0HAHjh0aXGhl4l6ZdEQQGAvRaeSgYAUPbz7waZLs7muzqjduTTk3OPKiq8Vu4nsw4AIOI8PJUCgAIA+3JKybU0AFDmb9S2KDT/SC7X/UiUDnvGjPb45g2D/1708AuSalkIAABzY3ahAMDeOmbyrPHbpRNIAgDK8SxH6yX/SLav+ydRO/R0IvPqTRsLnZJNZyEAAJ7mphOPmTxr/PKHrt9CGhQA2EPb9ou9yqQ4SQBAeZ3fyHWtxe3jvb3dm6J04IlE+wFxL3zB5efJFbAUAAD/IL59fHCypN8SBQUA9hCP/wOAsrMiDH1ebqDn9qgdeFNDa4urcKWbXsoyAAC8EH/qMgAKAAoA7PGLx3QKKQBAWShI9o0wGP/5XP6qHVE68OlT2w8NY4NXuew9LAMAwK6YBa8iBQoA7LGOQFozgxwAoMQnMq4/FmPh2bncghVRO/R0MnN20Qtfk2x/VgIAYPf4y6WWmLSoSBYUANhNTQ35o1wxTrgAoFTTr7RV8i/09m/5etROYqYnWhuH3DrlPpOVAADYQxOmJ/efvrJP9xEFBQB2kyt4BSkAQMn8sqDih/L5hWujdNDPPNpPdomZxrAMAAB7oxiGJ0sUABQA2H0mCgAAGH2Py+xT2b6uzqgdeFNyzimbNhQ6JTuSZQAA2CeBXiHpOoKgAMDuNwAnkwEAjObbri0KzT+Sy3U9EqXDfubRfq7zJB7tBwDYd+5ilqEAwO5qaspM8IJPJwkAGBUDQagPrRro+lXUDjzV0Pr2QIWr3XQ4ywAAMFxMOjKRaD8gn+98gjQoALALXtArxLcwADDSQrmus1r7+Krerk1ROvDpU9sPHYoVrjTpvSwDAMAICGq040RJvyUKCgDsqgAwP9mcHABgxN5npfsUat7qge47Inbolk5mZhW98F8mHchKAACM2GetBydTAFAAYHfOzpwbAALACClI9o3acZv+Y8WKRYNROvDpidbGouwaub+OZQAAGGkBNzWnAMDu8hmSEQMADK/bFPrZ2YHuVVE66FTq/DFBuOVTRfmnJNWyDAAAozLRSCeRQvnhOvMyM31q+6GSHUoSADBsnjT5hdn81NdmB3oiNfxPS7a9Kgg33yX55xn+AQCj7KVPzTYoJ+wAKDNDseIJfPcPAMPFfz6k8Nx8fuHaKB11KvWB/WPF2i+GPNoPAFBCxdjg8ZIeJAkKALwQC48XNwAEgH31kMw+me3rXhi1A29MtJ1uoa520xEsAwBAKbnb8ZJ+QRIUAHih+d91PCkAwL68kdoixWrOzWY7H43SYTfXt760EAu+KvdZLAIAQDkIzJltKADw4vx4bgAIAHv1/tkfevChXL7r1xE7cEsnM7MK7v8ldx7tBwAon09m2XGkUF64LrCM1Ne3TpSsniQAYI+EcnXGx+13TK4/WsN/Mjk3lU60LZb7AkkM/wCAcpNIJNoPIIbywQ6AMjImFhzv7nz9DwC77155MC/bP/9PUTroGTPa45s3DP67e9ghaSzLAABQpizmxWMl3UIU5YEdAGXEPeQaGQDYPdsluyQ+bvOJURv+U6nMKzdtKNztsksZ/gEAZT9wWpEZp4ywA6CsGC8OANj1e+VSheG87ED3qigd9TGTZ43fPj7+OYX+cUkx1gEAoBLsfBIAKADwPI4lAgB4QU889Wi/rmulaD0wtakh847t5t+U/HCWAQCgopiOI4TywSUAZWLmzI4aSWmSAIDn9bOi6ehsX1dnlIb/hoZ5k9PJzEI3/6kkhn8AQCVqklrYuVYm2AFQJtYPDKQU2BiSAIDneGjnt/4LI3bclk5mZiksfkOug1gGAIAKNnZ6YnxiZV6riYICADt5oCO5/T8A/P1tUWbfCeJD/7Zq1cLHonTgqdScZBDGrpH7G8QHAwCgChRNzRIFAAUAnhFY0OzuBAEArrzMzsn2dS2O0mHPnNlR8+DagY95aB2Sc3d/AED1CHWkpJ8QBAUAnj7fdZ9OCgAibshcV4/ZOvTp5Q9dvyVKB55KzT3+wbVrrnPZCSwDAEDVzTqmI0mBAgDPfVk0i72eAKL7Hrhc0rze/p47o3TUhx3Wvl/d2KH/UBh+3Hm0HwCgSpkbBUCZ4CkAZaElJhlPAAAQRdskuyQ+bstJ2Xy0hv90ovWtdWML90t+kRj+AQBV3QBoOk8CKA/sACgD0xLjkqHE9Z4AouZWhd6eHeheFaWDbmiYNzkehF+T+yyWAAAgIsYmk/s39PUpRxSlxQ6AMhBawJYYAFHyhMkvzOanzswO9ERp+Ld0MjM7bsX7GP4BAFFTEzozTzn8HYigHBoAHcnl/wAiMQHLfxgUa89fuabzwSgd9/REa2NRdo3cX8cqAABEkZs3S/pfkqAAgKmREABUub+Z6/ze/p4fROmgdz7a7yNF2f+TNJ5lAACIbAEgpUiBAgBPNQC8GABU7+e92XfiO+zCFevmPx6lA0+l5h6/fu3aayWbwTIAAER+4pEz81AA4OnzRCIAUIX6pPCcbN+C30bpoJ/9aD9xd38AAHY2AHzpWQ64CWCJNTefWydpMkkAqCJD5rpy7JahY7P5aA3/6WTmX3i0HwAAz8N16DGTZ3E5XImxA6DEBrdsTVlg3AIQQLX4i8nm9fZ3/TlKB918+NwDC/HwK3JvZwkAAPC8bMd+lpS0nCgoAKIrCJKSkwOAyv5El7aGrs+/bOrUy5cs6RiK0qE3JjNzCh7+p6QDWQmoUD9TjV1ADJAkDfm3Jb2RIDASQgtSFAAUAFE/aeYJAAAqnN8iD9pX93f1ru6PzlGn05mEhvzbcudEGZV+NrI5m+3KkwMkKZ3IbOHLKYyUgPsAUADwmetJ3mMBVKiNMrso29d9rSJ0tvj0o/18yHm0HwAAe8BDJUmBAiDirwJeBAAq0s9UU/xQNrvwr1E66Mb61uPWr11zrWQnsgQAANhDZsw+FACRxzYYABXEH3QF56/Od/0wSkd9+OEt4/arnfB5yXm0HwAAe38ewexTYjwGsISam1tqJb2MJABUwie2y78dBoVpURv+m5Ktb9mvto5H+wEAsO+O2DkDoUTYAVBChcKEwyWnhAFQ7vrM1J7t6/ldlA766ClnTdoRG3Opu3i0HwAAwyMY2nzAyyT1E0WJ/gBEUDrhoB9BCgDK2JBklw2GflRvX3ekhv+mhtaWHTVjemUM/wAADOsMFDADlRI7AEooMJ8iGUEAKEf3BBbOW9W3YFmkBv+p8xrCmuK33PVmlgAAACMyA1EAUABEFosfQLnZZvJLevNbvi4tKkbloJ95tJ+KXzJXHcsAAICR4fIppEABEM3FbzqC7/8BlAsz/d682L4qvzAbpeNON2SO3flov5NYBQAAjHQBwJegFABRPdlm8QMoDxtldlFvX9e1T30uR8POR/tdJPmnJcVZBgAAMANRAGAksfgBlPhT2BYVVTivr+/6h6N02Kn6ttcGgXVKnmYRAADADEQBgFEQHBGhL9sAlBV/0KXzVvd1/yhKR/30o/1kOltyrsICAGDUGfcAKOUESgSlcczkWeMln0QSAEZ78perMwwK01bneyI1/P/Do/0Y/gEAKM2pyKTm5nO54W6JsAOgRLaPi7H1BcDoMq00hWf35hcsjdTgz6P9qkFRT5U2fHEBAFVgcPPgEZJWksTo44O0VOfhseBQUgAwSgqSXRZa3fG9fVEa/juCdDLT7rHicmP4r3TrVVOcYvKLXVpNHABQ4UNoTfhSUigNdgCUiCuczA5UAKPwZnN3GNO8XK7rrigddlPD7GPcBq6V28tZBNUhm134V0mXSbpsWnLODA+D2S59QKaDSAcAKu30xA8hBQqAiC16O4TxH8BIMWmr5F/o7d/ydWlRMSrH/fSj/Vz+KUm1rITqtKpvwTJJy+rrWy8aI73dzWZLegvnNQBQKbOQJpMCBUDETs5tMk8AADAyn6r2f4HsQyv756+J0mE3Nsw91SzslLyJRRANAwM92yUtkrSo6YjMYYqHLS5lJDuGdACgfAUSOwAoAKJ2gs4lAACGm22Q6eJsvqszSkddX986sdbsMll4tnhjjazeB7rWS7pC0hVcIgAAZT4KsQOgZLgJYOlO1Fn0AIbxLcUWhYE3ZfuiNfw3NbS21AbGo/3wHKv6Fizr7e++IIzVvczcz5T0M0lDJAMAZXLa4hQApcIOgJLxQzhXBbDvn6BaL/lHsn3dP4nU4H9E5jCP+3+79C4WAV5ILnfVDv3TJQLWJulY0gGAEk5CXAJAARDBs3ZaLwD79tnputbi9vHe3u5N0TnsjiCdXDvP3b8uaQLLALvreS8RMJ0l6WDSAYBRxyxEARA5tF4A9taKMPR5uYGe26N00NMSrUeHWnOtXK9gCWBfPP0UgVTq/E+quOlNQRDMkvu7OC8CAAoACgAMu1TqA/sr1DiSALCHCpJ9IwzGfz6Xv2pHVA66vr51bG0QXBzyaD8Ms52XCNwk6abpU9sPDWODZ7qsVdJxpAMAI2pcc/O5dStWXL2ZKCgAohD7S8gAwB76Qxjo7Fyu6/4oHXRTMvO60P0ayRtZAhhJK9d0PqidlwikG+a+XOZzJL1f8kmkAwDDr1DYfogkCgAKgOoXC2OTXE4QAHbJpK2Sf6E3v+Xr0qJiVI776Uf7ufvZxh1TMcqy/fP/JOlPqdT5//6sSwTOkBQnHQAYHkGxSMFKARANoYeTzDifBbBLvyio+OF8fuHaKB10qqH17YHZtyS9jCWAUnr2JQLN9a0vHQr0PnebI9PxpAMA+zoTaSIpUABEQiBN5Pt/AC/icZl9KtvX1Rmlg975aL+rJL2bJYBys2Kg52/aeYlAKjWnOQhjsyTPSOKyPgDYC64YBUBpZlGM/mKn7QLwAswWhYGmRWz4t3Qy0+5xX8Xwj0qQyy1Ykc13XRwft/nw0P0dMlskqUAyALAHH/7OPVZKgR0ApSgAgmCiOXsAADzHQBDqQ6sGun4VpYOenpx7VFHhtXI/mSWASrNixaJBPX2JwOFzDyyM8fea+zkunUA6ALCLmYgvRSkAosJY7AD+LpTruvh+4z4WpUfhPP1ov6KHPNoP1VEGrJv/uKROSZ3PukSgTdIhpAMA/ywImIkoAKKCG14AkOTSfQo1b/VA9x1ROu50IvNqmXfKfTqrANUol1uwQtLFUstn0okJr5OpXe7vFGUXAPz9PMidmYgCIBpMzk0AgWgrSPaN2nGb/mPnFuJISCTaD4h74QsuP0/OPWgQBYuK2bwWS1p89JSzJu2Ij22Ra7bkp5ANAGYi4x4AFADRwPUuQKT9wYuxeavXXLcySgedamh9e6DC1W46nCWAKLp37Q0b9M+XCLRKmkw6AJiJQAFQ3VjsQPQ8afL/6M3XXyV1hFE56OlT2w8NY4NXuew9LAHgKVwiAADMRBQA0TKBCIDoMOmmYhA7N5e7bl10jrojSDesObdohS9Lxnse8Lz+folAOt1+sBcLZ1moVpmOJxsA1c6l/UmBAiAq9iMCIBIektkne/u6FkbpoKcnWhuHfE2nTDNZAsDuyWY7H5V0paQrU6m2I4PQZks+R9JLSQdANTJpHClQAERltY8TdwEEqvx1bosUqzl350l9JMyY0R7fvGHw34uyS8w0hkUA7J1crvt+PfcSgdlyf684WQZQbTMRKAAiwdkBAFTxC7w/9OBDuXzXr6N01E3JOads2lDolOxI1gAwXP5+iUB9fetHa2PBmTxFAAAzESgAKg+LHag+oVzXxffb72MrVly9OSoH/cyj/VznSTzaDxgpAwM9G7XzKQKNU+dNt1j4PpO3uTSFdAAwE2F3cbI26lpi4i6/QLW5Vx68MtvffU6Uhv9UQ+vba1S4z00f5fMEGD2r11y3Mpvv6ujNT22Q7I0yu96krSQDoMLUzpzZwRfSo4zAR1lT04T9vMANAIBqEErbTXZJfNymL69YsWgwKsc9fWr7oUOxwpUmvZdVAJRSR/gClwi8SpKRD4By9+CDa8dJ2kQSFABVa2ioMC5G7EBVeNnU+i8sWdIxFLXjXrmm80FJLawAoHw8+xKBVKrtSAs1x0wflOsw0gFQrgYHg/0oAEYXWzZHWbwY41oXoEpEcfgHUP5yue77V+e7L8r2TT2CSwQAlLMxPsSTACgAqttQjVEAAACAUdARZvNdi7N9XbMLih8mszmSFks8jBgAs1FUsRd9tAP3cFxI7wIAAEZRPt/5hKSFkham61unKdAcyWZJehnpACiVWEgBQAFQ5YaKFg+Y/wEAQIlkB3pWSfqU1PLZafV1p3kQUgIAKIlioDgpUABUtVjMY+7cmBcAAJTaouKqAf2KHACUShAqRgqjnDkRjK5iMaB0AQAAABB5YegUABQA1S0Wo+UCAAAAAGYjCoCqR8sFAAAAAFIxNHZHUwBUeeABLRcAAAAAMBtRAFS90GMscgAAAACR587uaAqAag+cRQ4AAAAAMnMuAaAAqG7ONhcAAAAAkHvAbEQBUN0sDGm5AAAAADCMOl+OUgBUOQ+MzAEAAABEXmh8OUoBUOUs9JAUAAAAAER+NjIrkgIFQFULTSxyAAAAABQAIbMRBUC1Bx7QcgEAAACAMxtRAFS7kJYLAAAAABSG4RApUABUNa5zAQAAAAAp4PJoCoBqxw4AAAAAAJCCkC9HKQCqXCxwtrkAAAAAiLww4BIACoAqVyyyAwAAAAAAuEE6BQCLHAAAAAAiIOTLUQqAql/kAYscAAAAAMJYwCUAFABVHjiPugAAAAAABUV2R1MAVLmYxbaRAgAAAIDIz0aBtpICBUBVK8acRQ4AAACA2YjZiAKg2sV21LADAAAAAACzEbMRBUC12xFjmwsAAAAAMBtRAFS9SZNY5AAAAADAbEQBUPWWLessSOJJAAAAAACibGjnbAQKgKpH0wUAAACAmQgUABHAzS4AAAAAMBOBAqD68bgLAAAAAMxEoACIAGOxAwAAAGAmAgVABGwmAgAAAADR5VvIgAIgGkvdtJEUAAAAAER3JrINpEABEAkWUgAAAAAAYCbC6KohghIsdtNGJwYAAFBC9fWtE+NB8K8mTczmuy4lEQCjPRORAgVAJLhso0QFAAAARltHkE6sfb1Ms839PS7fT7LvkwuA0Z+JnEsAKAAiYyMRAACA0ZKub52mIPhXaU2rpKlyvooAUFrGTEQBEBUubTRiAAAAI6i+vnVibSw4U67Zkr9Kck4/AJSN0IwCgAIgGsx8A7U7UPkSifYD8vnOJyI5VNQGB7ICMFqGhoaG8vmFa0lid7TEGhP7v8XM58j9HXIfQyYAynImYgcABUB0Frs/4aKEBypdTIVPp5OZQ+M77MIV6+Y/Hp1hbMuO2mDCbMk/LSnOSsDIn6zEHpA0hSReWOPUedMtFr5P8lYpnMoXDQDKXRjyGEAKgKgs9qJtMB7ACFS8wN1cmlWoDU9rTLSetzrf86MoHPe6dYu2SepIN2R+LAs7JXs5qwEYfc/d4l88hUQAVNR5lLgEgAIgKovdbKNTzQNVxA416Yfphrb/KQZDH+3ru/7hKBx1tr/rL1LLq5oSE853+Rcl1bEWgJE1c2ZHzV/XrnlLIG912els8QdQuTNRgQKgFLkTQQlGhTFDj5ICUI0vbr0v5jW96WSmXYrKdT6Lir35rsutYE2SfsQiAEZG49R509OJzKXr1655wKSbXPYeSQz/ACpWfGjoEVIYfewAKIFVqxY+nk60FcS1s0A1mij3a9INmXfFZB9a2T9/TRQOuveBrvWS3pNqaH17YHa1pMNZCsC+YYs/gCo2eO/aGzYSw+hjB0BpuEw0XkA1M39LaOH9TYnWi6SWWFQOO9ffc9OQ4keZ60pJIQsB2FMtsXQic1o6mbmxNrCH5H6N5Az/AKrNwxLXRFMAREmohwgBqG4u7eeyS9OJultSqbYjo3Lc+XznE7393ReYhadKWsFKAHYtlWo7Mp3IXJpO1P1V8t/IvUVSLckAqEb2VAEACoBILXsKACA6XhWEuiedyFza3NwSmRP63r4FSydMih9v8oslbWcZAM919JSzJqWTmfZ0InNbEGqF5BdJmkwyAKqdiy9DKQCit+xZ9EC0xCW/qLCt7s/phrmReWzesmWdhd58z2VhEB4laTHLAPj7Fv8dNWP+xhZ/AMxCGE3cBLBETP6wR+Um4QCe7WhZuLSpoe3qMVuHPr38oeu3ROGgc7kFfZLelE5mZsn9PyUdzFJAlKRSc5qDMDZL8lbJJ3PlK4BIj/8yLgEoEXYAlGzRB7ReQHTVuOmj2/erWZ5OZE6L0ltftq9rYXwwaJKrk2WAavesLf5/DsLgPrb4A8BTzCkASnYSSgQlWvTyhyj/gci/ESQk/3U6mflOfIdduGLd/MejcNg7j/OcaanW74VhcI3kaRYDqkdLLJ2Y8DqZ2ne4nyF3HvkLAM8zC5FCabADoERCFj2AZz4DfVahNlzRmMi8J0oHvirXs2Tr4KbjJLtE0iBLAZUslZrTvPMu/uufdRd/hn8AYBYqK+wAKJFA4UOuGEEAeNpLTf6DdLLtxkIY+2h//3WR+GBct27RNkkdjfWtP7HArpV0IksBlaKhYd7kuA19QLJWhTqaR1oDwO4xBVwCULI5FCVRU4ivIwUA/8R1ZtyKq9LJTLsUnTuFrh7ouSebn/oKmZ0jaRMLAeWqubmlNtXQ+vZ0MnNj3IoPSPafko4mGQDYfWOK29eSAgVApOy8BnYzSQB4HhPlfk1jsu2X0xvmTo3OYXeE2b6uTivYNJP/kGWAcvL0Fv/Ctrp1gdn/ssUfAPbalnvX3rCBGEqDSwBKa52kacQA4PmY682hhfc3JVq/0Jvf8nVpUTEKx937QNd6Se9NNbS+PTC7WtLhrAaUQnN960uHAr3P3eYo1PFs8QeA4TjBEd/+lxA7AErrASIA8GJc2s9llzY11N2aSrUdGaVjz/X33DSk+FHmulJSyGrAaEilzh/z9Bb/QmBrXXa5TMeTDAAM0/zvzgxEARDZE3sWP4Dde78wvTIIdU86kbm0ubmlNirHnc93PtHb331BYHqNpBWsBIzc4P/UFv8g3PwAW/wBgBmIAgDDzmQsfgB7Ii75RYVtdX9ON8x9eZQOfFVf9x8mTIofb/KLJW1nKWA4TJ/afmhTovWCdKLt7iAM7pP8IkkvIRkAGFHMQCXEPQBKWQC4HnAjBwB77GhZ+Md0Q9t18f3GfWzFiqsjcUPRZcs6C5IuS6Xm/CAIg29LOo2lgD2VSp0/RsVNbwqCYFbRC2dIxrf8ADCKXMY9AEqIHQAlFCpk8QPY+/dvU3th29bl6UQmUoNwLregL5vvfqO5nynpUZYCdse05JwZTQ1tVwThZu7iDwAlxC7o0mIHQCkXv+sBsQMAwL69kzRI/ut0MvOd+A67cOcjRiOht79nUfPhc39biIdfkelsiXdUPFfTEZnDFA9bXNYWuo5lhQBAmcxAKBl2AJTQ2G1FFj+AYfkslfusQm24ojGReU+UDnzFuvmPZ/u7zwkCf71kWZYCnn0Xf4/7GpddLulYkgGA8rBpRw0zEAVANC1/6PotYvsqgOHzUpP/IJ1ouymdnv2yKB34qlzPkq2Dm46T7BJJgyyF6HmBLf7sdASA8vLw+vWdW4mhdPhgLDVTTq6DCQLAMDpdQ7H70snMRdm+rmsleRQOet26RdskdTQ1zP6RW6xT0itYCtXt71v8lQndjmGLPwCUvRwRUABEmysn6WSCADDMJsr9mqZk21mB+9kr8z2ro3Lgvf0Ll0sdr0on186T+9ck7c9yqB719a1jx5je7mazXf4WyTiXAYDKmn1QQlwCUPpXAS8CACP3DuN6bVF2V2Oy7aNSR4Te8zvCbF9XZ9F0lEk3sRIqnjUl55ySTmY6awP7m5vdKOl08UUGAFTYu7n6CIECINqvATdeBABGWp25rmhqWHNbKtV2ZJQOvK+v+4HefPc7Qvd3SNx1uIId7h7cJvezJR1AHABQmZwvPykAoq7ovAgAjNKHrumVQah70onMpc3NLbVROvZcf89NQ4ofba4rJRVZDQAAjD7zGLMPBUDE/wC1tbwIAIymuOQXDW6rW5ZumPvyKB14Pt/5RG9/9wWB6VSX7mMpAAAwyichBe4BQAEQcdls56OSNpIEgNFk0lGy8I/phrZrmpvPrYvSsa/q6/7D/pPiJ5j8QklbWA0AAIyKjSvWzX+cGCgAIO4DAKBEnwGm9sK2rcvTicxpUTrwZcs6C735nivCIDxW0m9YCgAAjLjVREABAEniPgAASsoaJP91OplZOG3a7IOidOS53IK+bL77TeZ+pqRHWAsAAIzcxy4RUABAktGGASiHtyL3WWEhtjydbD0jagff29+zKAzULOk7LAUAAIaf86UnBQCeEpqvJAUA5fHprMPk9uN0ou2mdHr2y6J06Llc9yPZfPesMNRMSb0sBgAAho8Fup8UKAAgSSEvBgBl53QNxe5LJzPtkixSRcBA9++3Dm4+XrJLJA2yFAAAGIYCIAyZeSgAIEkFaZV4LjWA8jNR7tc0Jdtunp5obYzSga9bt2hbNt/VYV48SabbWQoAAOyToWLsAHbXUQBAkgYGerZL6icJAOXIXa8NZfc0JVovklpiUTr23v6Fy7N9U0+R2TmSnmQ1AACwV/pyuat2EAMFAJ45w9YKQgBQvm9R2s9llzY11N2aSs1pjtbRd4TZvq7OWDE+zaUfsBoAANhjbP+nAMBzGC8KABVQBJheGYTB3elE5tJU6vwxUTr2lWs6H1yd724J3d8h6QFWAwAAuznqMOtQAOAfXhTOiwJAxYhLfpGFm//cWN/2iqgdfK6/56YhxY8215Xi/i0AAOxS6M6sQwGAZyvGKAAAVBaTjrJAf0g3tF3T3HxuXZSOPZ/vfKK3v/uCMNDLTbqL1QAAwIucM3jA5c5looYIysPWrfFVdWMLoShlAFSWQKb2wtZtp6UTc9qz+QW/jdLB53Ldd82Y0X7yk48XPmmmz0oay5JAxZ2YKzxwWnLODJKAJBVDn2hGDhjeZTXoIU8AKJv3fJSNdKItJylJEiMvZsHRK/vm30cS2BdNDa1fdbNPkMQzXPKuwVAfHxjo2Ri1g5+eaG0syr4t6fUsBQAAnjk5WL06350mifLAt83lZTkRAKhgJtnc2sBWNjW0vTdqB78y37M6m+9+g7mfKekRlgMAAJKkvxABBQCe78zZ7G5SAFAFXuqmRelE203p9OyXRe3ge/t7Fo0Z2tEkV6ckZzkAACI947gz41AA4PmEbtxICkA1OV1DsfvSyUy7InbJ2b1rb9iQ7e8+Jwz1Oklc9wgAiPDEGVAAUADgef8YBdoxAFVnotyvSSdal0xPtDZG7eBzA92/3zq4+XjJLpE0yHIAAERNvBgy41AA4Pn0PtC1XtJDJAGg+tipRdlfmhKtF0ktsSgd+bp1i7Zl810dgfxEmW5nLQAAIuShFQM9fyMGCgC8ADfdQwoAqtQ4l12abqi7M5Wae3zUDn5VvufebF/3q2R2jqQnWQ4AgAjgEmcKALwYbpIBoPrf6HR8EIZ3pBOZS1Op88dE7Og929fVGSvGp7n0AxYDAKC6P/O5yTkFAHZRAHCTDACREJf8Igs3/7mxvu0VUTv4lWs6H1yd724J3d8h6QGWAwCgKmebMLyHFCgA8CKGAp4EACBCJwbSURboD+mGtmuam8+ti9rx5/p7bhq7ZWi6ZJdJKrIiAADVNdvE+HKTAgAvpq9vfp+kJ0gCQKQ+i0zthW1blzc2tL4xage//KHrt2TzXReHgV4u2TKWAwCgSjzZ13dEnhgoAPDi3F00ZQAiyBrM7FeNibb5R085a1LUjj6X675rwqSaV8r9M5K2sR4AABX9qW66W+oISYICALt8sTiPiQIQ4fMFZXbUjFnZ1NDaErWDX7ass5Dt7/myauwok/+a5QAAqFTu/kdSoADAbp3+6g5CABBxk93sxnSi7aZUat7hUTv4bLYr35vvebO5nynpEZYDAICZBhQAVSo2VMuLBQCecnoQFu9NJzPtkixqB9/b37NozNCOJrk6JTnLAQBQMfP/YPAnUqAAwG5YuabzQUlrSAIAJEkT5X5NOtG6ZFpidjpqB3/v2hs2ZPu7z3EPZkpaxXIAAFSAgd4HutYTAwUAdhdbZgDgH98YTw0Vu6cp0XqR1BKL2tGv7p9/y9bBzSdIdomkQdYDAKBsObMMBQD28EXjvGgA4J+Nc9ml6Ya6O1OpucdH7eDXrVu0LZvv6gjkJ5qLmysBAMoTX2ZSAGAP/zBmPAkAAF74xOL4IAzvSCcyl6ZS54+J2uGvyvfc29vffYrMzpH0JAsCAFBOwoBZhgIAe2R70e8SWzwB4MXEJb8oCDcvS9W3nhzB4/dsX1dnrBifJrPrWQ4AgDIxODQU3k0MFADYAwMDPdsl/YUkAGCXmoPAlqYb2q5pbj63LmoHv3JN54PZvq7Zofs7TFrLcgAAlNjdO2cZUABgT3B9JwDsweeZqb2wbevydCJzWhQDyPX33FQMBo+W6b8lhSwJAEApuMT2fwoA7KVbiQAA9oQ1SP6bdDJz47Rpsw+KXAmQ++6T2b7u88NAJ0m2jPUAAChBBXALGVAAYC8UY/q9JCcJANjTcw9vCQdjK9LJzOwoHn4u133XYVOmnGzyCyVtYUEAAEbrEzi04m3EQAGAvTuBe0SmVSQBAHtlstwXpBNtN6VS8w6P2sEvWdIx1JvvuUI1dozJf81yAACMgvv7+q5/mBgoALCXzMUWGgDYN6cHYfG+dDLTLsmidvDZbFe+N9/zZnM/U9IjLAcAwEhxMbtQAGCfhFxDAwDD4QC5X5NOtC6ZlpidjmIAvf09i8YM7WiSq1NcXgYAGAFmzC4UANi3F1FN+HtSAIBhe1c9NVTsnqZE60VSSyxqR3/v2hs2ZPu7z3EPZkpcYgYAGOZP2cGAAoACAPsim134V0l9JAEAw2acyy5NN9TdmUq1nRDFAFb3z79lMPTjJbtE0iBLAgCwr1xa3ftA13qSoADAPjKupQGAkXhzPT4IdXs6kbk0lTp/TNQOf2CgZ3s239URs2CGuf7IggAA7NvHKtv/KQAwLEIzXkwAMDLikl8UhJuXpepbT45iACv75t/X2999iszmSHqcJQEA2LsGgO3/FAAYFrFiuIQUAGBENQeBLW1MtF1+zORZ4yN4/J7t61qomuIxkn7McgAA7PHMEhr3LqMAwHBYNdAzIO4DAAAj/plo0gXbx9fcl2rIvCmKAWSzC/+azXe/26W3m7SWJQEA2D2WXdk/fw05UABgmLj0a1IAgFFRH5j/Kp3M3JhOtx8cxQBW57t/tml7fLpkl0kqsiQAAC8u/A0ZUABgGJkZLyoAGE3uLRoq3JdOZmZH8fDXr+/cms13XRwGwUmS/syCAAC84KwSMKtQAGBYDRbDmyUNkQQAjKrJcl+QTrTdlErNOzyKAeRy8+8+bMrUV5r8QkmbWRIAgH8wVAjjS4iBAgDDaGCgZ6OMb2AAoEROD8Lifelkpl2SRe3glyzpGOrN91xhxdgxbvoVywEA8Hd2Rz7f+QQ5UABguDn3AQCAEjpA7tekE22/n5aYnY5iAL1rrutf3df9FnM/U9LDLAkAANf/UwBgxHBtDQCUgdeEit3TlGi9SGqJRbII6O9ZNGZoxzS5OiU5SwIAIjxQcq8yCgCMjMOmTLld0pMkAQAlN85ll6YTdX9OpdpOiGIA9669YUO2v/sc92CmpFUsCQCIpCfHT4zfSQwUABgBS5Z0DJn0e5IAgLJxXBDq9nQic2kqdf6YKAawun/+LYOhHy/ZJZJ2sCQAIErsd8uWdRbIgQIAI8TduPkSAJSXuOQXBeHmu1KpzCujGMDAQM/2bL6rI2bBiZL+wJIAgIiM/3LuUUYBgJE0ZEM3kQIAlKUjg9CXphvarmlqykyIYgAr++bfl813v1pmcyQ9zpIAgCofJj34BSlUFiOCytOYaLvXpKNIYl/4x8z1ADlgX4SBfdBc7yAJPI+B0O2cXH9XZL8ZaToic5ji4ZUuew/LAQCq8nx6eTbfcyw5UABghKUTrV+R7GKSAIBy/5S1RYrVnJvNdj4a1QgaE22nB9I3XZrCggCAavqI0//r7ev+LElUFi4BqMw/28/JAAAqgHuLhgr3pZOZ2VGNYHW++2ebtsenS3aZpCKLAgCqQ9GMmaQCsQOgIrXE0om6v0k6mCwAoGI+cn9iBX2k94Gu9VFNIN0w9+WysFNSlLaM/k3SZM65AFSZR7P5zS+VFlHsVhh2AFSkRUWZ/ZIcAKCS+Bke9/ubEq0XSB2R/PzN9s//02FTpp5o8gslbY7CH90sfK9M32D9A6iudzf9nOGfAgCj+6pjyw0AVJ4DXHZ5OrFmSVNDpimKASxZ0jHUm++5woqxY9xU3Y+2dV3b27dg6WFHTL3YTL9n+QOoFsYsQgGA0TXk8f+TVCAJAKhIr3Hzu5sSrRdJLbEoBtC75rr+1X3dbzH3MyU9XIWH+Kji8c9IT5Ueg2HsfZL+ytIHUAUKO1y/IQYKAIyifL7zCUm3kQQAVKxxLrs0naj7cyrVdkJUQ+jt71k0GHqTXJ2SvFqOy2QXPvvpD/391z0Uhv5eSYMsfQAV/g53y8BAz0ZyoADA6LuJCACg4h0XhLq9saH1C6nU+WOiGMDAQM/GbH/3OWb2BpdWV8HJ8W97813f/cf/NDfQc7ubPsGSB1DR73DSz0iBAgAlUDT9QFX0bQkARFjczD4XhJvvm5ZqnRnVEHr7um7ef1K82eQXS9pRoYexQ2F43gv9l6v7uq+UayFLHkCF8oKGfkQMlYtH0lS4dKLtTkknkgQAVM/JlVzXWq19vLe3a1NUQ5ieaG0syq6R9LoK+9U/n813f+HF/oFjJs8av218ze0mHcVyB1BhH1F/yuZ7XkEOlYsdABXPfkgGAFBdb+wytXvBl0+rb3tzVENYme9Znc13v0FmcyQ9XiF/uuxg6F/d1T+1/KHrt9TI3y3pCZY7gIr6gDJmDwoAlFRMIS9CAKhO9WGg/0snMzem0+0HRzQDz/Z1LYyH3iyz68v9dzXzDw8M9GzfnX94Zb5ntbnNFpfyAaggRWP2qHRcAlAF0om25ZKOJgkAqFoPyeyT2b6uSF873piY+zZT+E1JU8tv/NeCbH93654fU9tlJn2SJQ6gAtyTzXcfTwyVjR0AVcFp4gCguk2W+4J0ovVnyWTbEVENYXV+/s83b48fKdllkopl9Ks9XgyGPrl3x7T50xLP0wZQAROHiZmDAgDlIGYxXowAEAn2tpjr3qZE6wVSRyQ/w9ev79yazXdd7KGfKOnPZXFSLH28r+/6h/fuf72oWLShD0pax/oGUNaGmDmq4kyCCKpDOtG2UtI0kgCAyLjV3M7u7e/qjWoAM2d21Dy4duAjLvuSpLpS/R2y+e7Xah+v5W+sb3uFBbpFUi1LG0AZ6s3mu5k1qgA7AKrHj4kAACLlNW5+d1Oi9SKpJRbFAJYs6RjqzfdcYcXYMXL7vxL8CoNhoA9pGG7kt3qg+w65PsayBlCO3P1GUqAAQBkJg2ARKQBA5Ixz2aXpRN0fmxpmHxPVEHrXXNef7e/6F5N9UNLDo/XvNdPXcrnu+4fr52X7u//b5d9lWQMov6Ex/AEpUACgjORy8++WtIIkACCSTnKLLUsnMpemUuePiWwRkO/67mDoTea6UlI4wv+6gTGbh74y3D902+CWs+W6myUNoIzc39u/cDkxUACgzJjZ/5ACAERWjeQXBeHm+6alWmdGNYSBgZ6Nvf3dF8h9pkwrR+7f5B9Z/tD1W4b7p65bt2hbMQjOlLSRJQ2gTHyHCCgAUIaKVrxBw3AdIgCgoqXC0H6Xbmi7pqkpMyGqIWT7e26dMDF+rMkvlrRjmH/897L5nl+M1O/e1zc/F7rP5jMdQBlwK8a+TwzVI0YE1ePxx/+y4aADj3+LpMNJAwAizWSaIdecgw86vu+xx++J5JMCHnxwWfjYhnuWHjLpuP9xWbOkhmH4sU9awd752JN3bxrRz/SN92QPmnT8GEmvYTkDKOHHyR+yA/O/QQ7Vgx0AVcal75ECAGDnh8JhHuon6WTmxnS6/eCoxrAy37M6m+8+TWZz5Hps3yK1i3of6Fo/Gr93Nj/1s276FQsZQAk/R5gtKABQzkINfV/SEEkAAP5+AuctGiqsSCczs6OcQrava2Hc/SiZXb+XP+JPq/NTOkfvV+4Ia3cEZ0kaYBEDKIGhggLu/l9ljAiqT2Oy7f/M9WaSAAA8zxD786LZh/v6uh+IcgrpROtbJbta0tTdPRH20E9aPdBzz6j/rg1zXy4Lb5E0hvULYBT9MpvvfisxVBd2AFQh4zIAAMALf0q8Lea6tynReoHUEdnzgGy+5xebt8ePlOwyScVdpub+X6UY/iUp2z//Tyb9G2sXwKhyZ6agAEBFnNrV2I8kbSMJAMALOMBllzc2rPltMjk3FdUQ1q/v3JrNd11sspMlvdhwv2bM1uIlpfxde/Pd35JrIUsXwKjME9JWqw1+QhIUAKgAvb1dm0z6MUkAAF70BM80M+bh8nQi0zFjRns8sp+b+a4/HzZl6kkmv1DS5n/Kye2jyx+6fkupf89B93NMuouVC2CkufSj3t6uTSRRhZ/9RFCd0ok5b5CCxSQBANhNf5bbvGx/11+iHELT1HkNHoRXy/wtO/+jH2Xz3e8pl98vlZqTDMLgz5ImDuOPHZRsCy8B7Bz96iTFySHiQ6LpDb193b8jCQoAVNDfNt3QlpMpQRQAgN00JNl/DoZhx8BAz/YoB5FqaH17YPbVMIi9MZe7bl05/W6NibbTTfqphm0np30/m+96P8sfkpROZH4s+RkkEWkD2fzUpNQREkX14RKA6uUyfYcYAAB7oEbyi2pjdldTcs4pUQ4i199zUzY/tbnchn9JWp3v/pmZvsJyBTAybAHDPwUAKvGPG3q3JF68AIA945ruHtyabmi7pqkpMyG6QZTvCXBv39T/kNv/sVgBDPsnQA03HKUAQEVaNdAzIOn3JAEA2AsmU7sP+aqmVNs7iaPcdITxgn1A8n6yADCMb/2/y2a78uRAAYBK5d5NCACAvf8c0WEe6ifpZObGdLr9YAIpHyvWzX/cQ71bPPoXwHCN/xKzAwUAKtnWwpYfSNpIEgCAfSsCvEVDhRXpZGY2YZSP1QM998jsQpIAMAye3LS9hkeJUwCgkq1bt2ibTD8gCQDAMDhE7gvSibafJ5NtRxBHecj2dXW61EUSAPaJ6/vr13duJQgKAFS4sOjzSQEAMIzeGnPdm05m2sUjhcvCtsHN58l1N0kA2Ov53ykSKQBQFXIDPbebdBdJAACG0QFyvyadaLslXd86jThKa926RdtiCt4l12OkAWAv/GX1QPcdxEABgCoRmjpJAQAwAl6twO5KJzIdM2a0x4mjdFb2z1/j8vdLKpIGgD1idjUhUACgitSOHfddSU+SBABgBIyT/PObNhTubEpkTiSO0lnd3/MbSf+PJADsgU1Wo+8RAwUAqsiKFVdvdum7JAEAGEHHuvyP6UTm0vr61rHEURrZ/NRLJP2SJADsHru+t7drEzlQAKDKeKD/JgUAwAirkfyi2sDubUpmXkccpdARjhna8QG58mQBYJczQhheSwoUAKhCuVz3/ZItJQkAwChIuftv0w1t1zQ1ZSYQx+i6d+0NGyR7t6RtpAHghdnS1QM995ADBQCq9SXu/m1SAACM1seOTO0+5KvSydYziGN0Zfu7/iL3c0gCALMBKAAiqhirWyTpYZIAAIwa12Fy+3E6mbkxlWp7CYGMZgnQc73k80kCwPO8Nz+2w/0HBEEBgCqWy121w9wXkAQAYPRPNr0lCHVfOtn6r4QxegZDnSfZMpIA8GwWqHtgoGc7SVAAoOr/6LFvShoiCQBACRwit++lE20/TybbjiCOkTcw0LN9SEPvlvQoaQDYqegx+xYxUAAgAlb2z19j8p+SBACghN4ac93XlGi9QOrgfGSE5fML10r2fklF0gBg8p9ks108KYQCAFHhritIAQBQYvu77PJ0Yu0t6frWacQxsrL5rsWSf5EkADALUAAgaicB/T23SrqTJAAAZXAqeooCuzudyHTMmNEeJ4+RLAF6viDZT0gCiC6T7to5C4ACANE63/KrCAEAUCbGSv75TRsKdzYlMicSx8h9+o8Z2p6R1EcUQFTfBfRfhEABgAiacGDt9yX9lSQAAGXkWJf/MZ3IXFpf3zqWOIbfvWtv2GBefLdJW0kDiNz0/2DNfptvJAcKAETQsmWdBTO7hiQAAGWmRvKLagO7rymZeR1xDL/e/oXL5TqHJICIjf9mV69YsWiQJCgAEFFF829L2kYSAIAylHT336Yb2q5JpT6wP3EMdwnQ/R25OkkCiIwdQ2HsWmKgAECE5XLdj0h+A0kAAMqUydQeeO3KdLL1DOIYXmGs7qNSyE2BgWi8m17f33/dQwRBAYCIi1nscklOEgCAsuU6TG4/bky0fiedbj+YQIZHLnfVjmy+hxuCARF4Fw0tvJwYQAEAreybf5+kn5MEAKDcmewDGhrKppOZdtIYvsGACIAqf5GbbsrlFqwgCVAA4OlTqsvIAABQIaeyk+R+TTrR9vNEYvYU8gCAXQ194VdJARQAeEY233WbZEtJAgBQQd5ao9i9TYnWC6QOzmkA4Pnd2tu3gPN8UADguUIP2QUAAKg0+7vs8nRi4Obm5pZa4gCA53KJb/9BAYB/luvv+ZlL95EEAKDy2A6ebQ0A//jWqJWr81N/QRCgAMDzcTP7GjEAACruHNd0KSkAwD+8N4b6stQRkgQoAPC8Jkys+Z6kNSQBAKggd/b2df+OGADgOR6oOzD+P8QACgC8oGXLOgsmu5wkAAAVw+wrhAAAz+Wmry9b1lkgCVAA4EWN2VK4VtKjJAEAKP/hXyuzfVN+ShAA8ByPjts8NJ8YQAGAXVr+0PVbJH2DJAAA5c5lX+X6VgB4LpN/fec5PUABgF2Ljxt3laRHSAIAUMbW1Y7ddAMxAMCzuB5TPLiaIEABgN22YsXVm911BUkAAMr2HNf0NR79BwD/wOzrvb1dmwgCFADYI7X7jbtC3AsAAFCW078eqx07rosgAOC5740W1zcJAhQA2GMrVly92Y1dAACA8mOBXbFixdWbSQIAntMAfINv/0EBgL1/C7HBKyU9ThIAgDKyxeJDXN8KAM/1uNUGVxEDKACw13K57z4psQsAAFBGTN9etWrhYwQBAH/nLr79BwUA9t2Q4ldItoEkAABloFCkmAaAf7Sx4M61/6AAwL7L5zufkPxykgAAlJxpQV9f9wMEAQB/56b/HBjo2UgSoADAsIiPG/cNSQ+TBACghIqBF79GDADwHI8GNcbOKFAAYPjsvNPypSQBACgZ0w9X5RdmCQIAnv3W6F/i2n9QAGDYDYb+LZPWkgQAoDQnLeFXSQEAnj38a20xmPBtkgAFAIbdwEDPdrl9gSQAAKPNTb9a1bdgGUkAwN+FUkcud9UOkgAFAEZEb/+mHplWkgQAYDTFzLkMDQCew7IvmzL1enIABQBG0KKihf55cgAAjB7/06pczxJyAIBnvTNKn16ypGOIJEABgBHV29/zA8n/RBIAgNFggX2ZFADgOe+My1bnu35EDqAAwGjwILT/IAYAwMif42plb27qTQQBAM86GffwU5KcJEABgFGxaqD7V5JuJgkAwAg3AJdKHSE5AMAzfre6v+c3xAAKAIwqD/3fJXFSBgAYKQ/Ex276PjEAwDPCwMJPEgMoADDqVg/03COz75IEAGAkuPnXVqxYNEgSAPDMO+NCHokKCgCUTmzoUyZtJQgAwPCe4+qxcZuLXQQBAM/YVjTuw4V9HN+IAPviscf+sungA4/fT9KppAEAGDamWHFM8NoDJx6XOGjScTWHvuxVDz/yyJ3sBgBG2EGTjv9XSdNIovy4+6W5fM9PSQL7ooYIsM+LaOy4SwvbtmYkO5Q0AADDZIy7Xmtmr5WkwrZtxXSirVeu20y+2OO1N2eznY8SE4CIeCioDb5GDNhXRgQYDulkpl3u15AEAGDUuPKSFiuwpUExvGXVQM8AoQD7eE6XyPxY8jNIotyGNp/bm+/hsihQAKBctMTSibq7JR1NFgCAEjUCD8qC2yQtDq24NJdbcL94TjZAAVD5723Ls/ktJ0iLimQBCgCUjaZk2+vd9VuSAACUiYck3Wny28x88aq+hrulDh5fC1AAVJTQ7c25/q5fkwQoAFCGHxptv5D0LyQBACjD054Nki91s1u8GN56wEG1y5Yt6yyQC0ABUL7859l8z+nkgOHCTQAxrIoWfDTm4X2SxpAGAKDMTqQnSTrd3E+3wLR5Q2FrOpG5W9JtoYdLFSv8Ppf77pPkBKBMDAYK/50YMJzYAYBhl05kLpX8IpIAAFSYIcn+Yu5LJb+tphD77Yp18x8nFkTsPI4dAGUzqdmXs31dnyEIDCd2AGDYxceN/VJh27YPSnoZaQAAKuu8yGe4aYZkHy3UhmE60bZKrtsU2NIhH1qSzy9cS0wARsG6+NixXyEGDDd2AGBENCZazzLZd0kCAFBVXHkFtlTSbTufNLCCUFBN2AFQJkOa2/t6+7tuJAlQAKBySoCGtpvNNJMkAABV3Ag8KAtuMw+XmvltPGkAFAAYBrdm892vFY8xxQjgEgCM3ClRLDzPwuAe1hkAoHrZoXJvcVmLuymdWPOk1PYnky92BUvj4zb9acWKRYPkBGA3DZkXz2P4x4h9ahEBRlI62XaVXOeRBAAgorZIdo+k2yQt3jq4aem6dYu2EQvK9tyNHQAl5dIVq/PdF5IEKABQkY6ectakHTVjeiW9hDQAAHjqSQOSFoceLh1XHLzt3rU3bCAWUABA0sODoTcNDPRsJApQAKBiNSYzrebeTRIAAPyTomT3uMJbzfT70GxpLtf9CLGAAiCKk5nNyfZ1LSQIUACg4tdZOtG2WNLriQIAgF141pMGbCj4Te+a6/oJBRQA1T776/e9fd2vE9f+Y4RxczaMyqlMoOKHQ8X+ImkscQAA8GKTgBJyT0ia5bGi0onWf3jSwIK7GBKAqrLDi/4hXtcYnY8YYJSkE22XSPoPkgAAYJ88LOlPJr/NFSydMKnmjmXLOgvEguE5X2MHQAl8Ppvv/gIxYDSwAwCjJgzqvhyEm8+UNI00AADYa4dIOt1lp0uuTRsKm9OJttulpy4bGAzD2wYGerYTE1AJLDsYhl8lB4zaiiMCjKZUfdtrg0A3s/YAABgxBcmWa+eTBkKrvSWf73yCWLA72AEwqtxMp/X2df+OKEABgOr9YElmFsp9FkkAADAqipLdY+5LJb/NxoS/W7Vq4WPEAgqAEk//UtfqfPdcksBo4hIAjLrQ/GNBqLfKdBBpAAAw4mKSz3DTDMk+6oOxMJ1oWyH5LTK7tRDGlvT3X/cQMQGj6pFYbfGTxIDRFhABRlsu1/2ImfOGBwBA6c7/jpbsI3J9P27h5UQCjDKzj7MTBxQAiIzefE+3m35FEgAAAIiYxdm+ruuJARQAiBKvCYNzJG0iCgAAAETEk0MqzpXkRAEKAETKyv75ayS/mCQAAAAQCWafyOcXriUIUAAgkrL5nm9JWkwSAAAAqHI3Z/u6riUGUAAgytyKsXZJm4kCAAAA1cikrWEQni22/oMCAFHXu+a6fpN9jiQAAABQjULTp3K5BX0kAQoAQFJvfsqVkm4jCQAAAFQTc/1xdd/mb5IEKACAZ3SE5jZP0jayAAAAQJXYEYaxudKiIlGAAgB4lt7+rl45lwIAAACgWvinV6+5biU5gAIAeB7Z/in/JelmkgAAAECFuzWbr7+cGEABALygjjAMYrMl20AWAAAAqFBPxDyYJXWERAEKAOBF5HLXrZP5v5EEAAAAKtH/b+9e4/QsCzuP/69nZsJBEAIqihySySRBU1uEFapSqxa09UBbKmopQgiU1qqfdntcexKr1dbdftoV62qaZCYEa9e02iqttqJSV6y1jQQ1JDPzzExCMIoQE0kCJJnnvvYFrFstag6TyRy+33e+wx9wc9//XPf9lJrXbxxbuUUJDABwAIZG+lenlLVKAAAwzXxocKz/ZhkwAMDB6Or+paR+VQgAAKaH+tXWnM7P64ABAA7S0NDy+5vaWpqkqgEAwFR/+k9y3aZNN22XAgMAHIL22Kp/KslyJQAAmOLP/+8eGh34Bx0wAMBhOGbP+K8lZUgJAACmqE3H7un8lgwYAOAwffHeNXuaVv3ZJHvVAABgitnbtFpXfPHeNXukwAAAE6Dd7v9CkjcqAQDAVFJL/Y12e+UdSmAAgAk0NNr/ZyX5iBIAAEwRHx0eGXiXDBgAYOLVTivXpmSbFAAAHGVfSXfPVfGLVRgA4Mhot/vvazq5IklHDQAAjpImaa4eGlp+vxQYAOBIjgCb+/85qf9dCQAAjoZS87ah0dWfUAIDAEyC08+a93ul5l+UAABgctXPn3BKzx/ogAEAJsltt90wnqbr55LsVAMAgMlRdnTVrleuW7d8vxYYAGASDW5ZMVaT18SHVwAAOPJqSrNs49jKLVJgAICjYHi0/5aa+B4AAABHVilvHxoZ+FshMADAUR0Bdv92kluVAADgSKg1t51+5llvUgIDABx1azv7a9eVKdmmBQAAE+ze7qbnittuu2FcCgwAMAWMja24t+nkiiQuzAAATJTxWluv3Lhl+VelwAAAU0h7c/8/J/l9JQAAmAi1lN8eHlv5aSUwAMAUNDTa/0dJPqQEAACHoyQfGR5Z9T+UwAAAU1c9ZnzvtakZlQIAgEPU3tvUq+LnpjEAwNT2pbv/ckdtul6W5AE1AAA4SLu7SuunN28e2CkFBgCYBoa3rNiYUpbGagsAwIGrpZZrN46s/LIUGABgGhkaWfWhlPJ2JQAAOKCn/1rfOji26gNKYACAaTkCnPV7SW5RAgCA7/nwX/KPw2N73qwEBgCYtm5oSk+5IsldWgAA8F0MdmrPq5K1HSkwAMB0vpoPrtpVarksyTfVAADgO+xqWrlsdHS5e0UMADAjRoCxVYOllquSNGoAAPCopiZXtNv9TotiAIAZNgJ8uJa8SQkAAJKk1vz+8Gi/70VhAICZaHik/w9TyholAABm+9N//vfwWP/bhMAAADP4Ut9z7K7ras1tUgAAzFbl9qbrhKuTVC0wAMAMtmHD2n1dx3RekaStBgDAbFPHOmX/Ze32jXu1wAAAs8CmTTdtr52uS5PsVAMAYNZ4oKt0XToysubrUmAAgFlkeMuKjU0tr0oyrgYAwIw3Xmt9xcaRlV+WAgMAzELtsVX/lJrXKgEAMNPVXx4eG/i4DhgAYBYbGutfkVpuVAIAYMb606HRgXfLgAEAyNDYrv9aSz6sBADAjPOhodHdvyEDGADgUWs7D+3d/eokn9UCAGCmqJ/f/XDPlcnajhZgAIBvueeetQ+15nQuTTKoBgDAtNduWuVl27Ytf1AKeESRAL7dokXLejNeP5vkNDUAmAX+LaWskIEkSa2vTXLuDPh/8rXS6XrO4JYVY/6mggEAvqdzFlx9flNbtyU5QQ0AgGllV9PK89vt/i9IAd/OKwDwGDaNrF6XUl6ZZFwNAIBpY38p9ZUe/uGxdUkAj237jjvaT5h73miSn47TMgAAU12tyc8PjQ78tRRgAIBDGQG+9IRTzmuSvEANAIAp/PRf8vvDo/3vVAIMAHA4I8CnTz3lmScmeY4aAABTUMm7hkf63ygEGABgAkaA9R8/de65ZyTlPDUAAKaUm4dGz/6F5LYqBXxvPgIIB6YOje75hZp4pwwAYKrcoJV8+PSzzr4muaFRA74/HzaDg7BkyeVz9j18wodLzYvVAAA4qj61r6kv2bx54GEpwAAAR8Tpp19//AnH7v94fBMAAOBo+bfSU35scHDVLingwHkFAA7Stm3LH2zN6Vya5C41AAAm3YbWnM5PePiHg+cEAByiRYuuemrGuz6TZJ4aAACToY6lu/mRoaGbvqIFHDwnAOAQDQ3d9JWu2np+ki1qAAAccfc0rXqJh38wAMBRsXFs5Zau1EtSsk0NAIAj5t7a6XpRu716RAo4dF4BgAlwTu9Vi5q0bkvKU9QAAJhQ9zWt5gXt9uoNUsDhcQIAJsCm0ZuG0uSFSe5VAwBgopQdTav1Yg//YACAKWVo88Cm1PLi1GxXAwDgsO0syYva7ZV3SAETwysAMMEWzlt6bmmVTyQ5RQ0AgEPyQGrrkqGxlZ+XAiaOEwAwwYY3D6xvmvrSJH6bFgDg4O2ptfVyD/9gAIBpob154HOlND+R5AE1AAAO2ANJ+fHhsZWflgImnlcA4Ag6Z8HV5zdN6x9TcqoaAADf0zebpv54e/PA56SAI8MJADiCNo2sXtd0tS5Jcr8aAADf1c7U1os8/MOR5QQATIK+vmue3mryiSRPVgMA4Nvcl1ouGRpbdacUYACAGWHRvKXnpKt8IjWnqwEAkCT5eiv14k2jA1+SAgwAMKMsnr9scS31E0meqgYAMMt9rWk1F7fbqzdIAQYAmJHOmbd0XtPKJ5MyXw0AYJba2imtF46MrGxLAZPHRwBhkm3aPLC51eSFSfwHDwCYjdqtpj7Pwz9MPicA4CiZP/+603pK52NJzlUDAJglNpT95UWDW1dtkwImnxMAcJSMja24d19TX5CU29UAAGa++vnWnM6PevgHAwDMSps3D+zc/XD3i1LLx9QAAGawT5ae1sWbNt20XQo4erokgKNr1651+5/81L61TWfO4iRLFAEAZpbyt/uaetnISP+DWoABAGa9++67q7N9x8IPnXrKMU9Jcr4iAMCMUHPT6WeffeX69X+2Tww4+nwEEKbYv5MLe6/5o5L8phQAwLS+qal55+BY/68kqWrA1OAEAEwx39ix/tZTTz5vd0ouiZEOAJh+mqT++tDYwJukgKnFwwVMUQt7l/1MSb05ybFqAADTxL6aLB0e7X+/FGAAAA7COX1Ln9805UNJTlYDAJjidjZNfqq9uf+fpQADAHAI+vquXtLVtP6hJmepAQBM0aeKbWnKS4bGVt0pBhgAgMOw+Mxlp9ee+vdJzlUDAJhKavLlpuQlIyP9W9WAqa0lAUx9g1tXbSs95Xkl9Z/UAACmkE910nORh3+YHvwKAEwT27ffsW/uqT+yttT9fUl+QBEA4GgqyV/2HLf78qGhNQ+qAQYAYIJ94xuf72zfcccHT517XpL8aLzGAwBMvpqUdwyNnv36++5797gcMH14eIBpavH8Za+spQ4kOU4NAGCS7E2tPz80NrBGCjAAAJOor2/Zs1tN/VCS09QAAI6omu01rcuGx1Z+WgwwAABHweKzr5tfuzq3JHm6GgDAEbKhdLpePrhlxZgUMH35FQCY5ga3rBgrPeWHk9yiBgBwBHx8X1Mv8vAP05+PAMIMsH37Hfu271j4gVNPPmZuSi5UBACYEDXLTzyl58qNG1f60j/MAF4BgBlm0fxlr0upf5qkRw0A4BDtT+qvDI0OvFsKMAAAU3kE6F12UVLXJnmyGgDAQbq/lLxqcKT/k1KAAQCYDiPAoquemvHWB5NygRoAwAGpuaMrrZ/eOLZyixgw8/gGAMxQ27ffuevEk869uavkjKScqwgA8H28f/fenp8a27rifilgZnICAGaBRQuWXZ9a3xXfBQAA/rNOSf2dwdGBP5YCDADADLBw/rXPK6VZm+RJagAASZKa7Snl1UOjq24VAwwAwAyyaNGy3ozXDyb5ITUAYNY//N9Rmq6fGdyyYkwMmB18AwBmke3b79hx4knnDnSnPD4lFyoCALNUKWt2P9xz2eZ7/uI+MWAW/asvAcxOixYsu6rU+r9qcrwaADBrPJyaNwyN9a+QAgwAwCyy8Ozrnla6O3+TmqepAQAzW02GW7XzisGxm76oBsxOLQlg9hresmJj6S4XppS1agDAjH76/7v9Tb3Awz/Mbk4AAEm+9VP06V+VAAAOXklEQVSBNyaZowYAzBjjJfV3B0cH3pGkygEGAIAkyeIFVz+31tZfJTlDDQCY9ra2Sl69aaT/s1IAiVcAgP9gcGT17ePp+YGUfEANAJjGav6uNafzTA//wH/kBADwmPxKAABMSw+X1P82ODrwzjjyDxgAgAPV13fN01tN/irJM9QAgClvU2p59dDYqjulAB5LlwTAd/ONb6y/77jHLRyY05pzYkouVAQApqhS1hy7Z/wn77pn9VYxgO96qZAAOBALe5deVtJakdS5agDAlPFATX5xeLT//VIABgBgwpwzb+m8plXel+Q5agDAUb+Vv72rlp/bOLZyixbAgfAKAHDA7t+5fuf2HQtXP2Fuz4NJeZ5rCAAcFeNJecvQ6K5r7t958w45gAPlBABwSM7pXfqMJmVNkh9SAwAmzV1NK69pt/u/IAVwsPzpHXBI7t+x/usnnnTuQFdp9eSRVwIMigBw5NTU/MXuvT0/s2XLyrvlAA6FG3bgsC1ecM0La81AkjPVAIAJv2G/OyXXDI70f1IN4HA4AQActu071o/NPXXJytJ0nZqS8xUBgIl6+i9re/a1Xr5xy6q7xAAO+5IiATCRFs+/5hW15M+TPEkNADhkXy81rxsc6/9rKYCJ4gQAMKG271x/1+knPn1lp3TPdRoAAA5BKWvT3fPSoZGV/y4GMKGXFwmAI2VR79KXJOW9Sc5QAwC+r6/V1NcNjw58UArgSHACADhitu9YP3zS3AtWtWpzSkrOi9ERAB5bKWtbczovHRpe7ef9gCN3qZEAmAznzLvmxbWV5TU5Sw0A+Nbd+LbSlNcOjq36sBjAkeYEADAp7t+5fmTuqUtWPfpLAU4DADDb1Zq8p9VTfmqwvepLcgCTwQ04MOkW9S67KKnvSbJEDQBm3ZN/Mtwq+cXBkf5PqgFMJicAgEm3fccdd8/rveAv9j/c2ZOUi5J0qwLALPBQUt5WWydcMTzy3rYcwGRzAgA4qvr6rl7Q1ZR315QXqQHATFVrbiu1vnZo88AmNQADADCrLZ6/9PJayruSPEkNAGaQe1PKbw6NrFqTpMoBHE1eAQCmhO0719914knnruhOOT4lz4qBEoDpraaUm9Pd85ND7RX/IgcwFbjBBqacRfOX/khK3pWUH1QDgGlofSnN6wdHVt8uBWAAAPi+bmgtWnD3lan1T5I8QQ8ApsGt9Y6S5s2Do3velazt6AEYAAAOwpIzrj1lvKd5Uy15Xby2BMDU1KSU93Wy/9dHRtZ8XQ7AAABwGPr6rjmv1eTGJM9RA4Ap5N+bpr6hvXngc1IABgCACbxmLVqw7DWp9R1JTpMDgKOmZnsp9S2Do/NuTG5oBAEMAABHQG/v9Sd1Z/z3k/r6JHMUAWAS7S0lN3bKvre02+97QA7AAAAwKUPAVWd1l+63ptYrXc8AmAS3NK3mV9rt1SNSAAYAgKNg4bxrLiyt8idJfa4aABwB/5Zaf21obOD/SAEYAACmwPVs8fylr6gpf5SSXjkAmABbU8rvDo2sWpOkygFMd35SC5gxtu9cf9eTn7rwPXW8Z3tSnp3kWFUAOAS7k/L2fU191chY/zo5gJnCCQBgRlqw4DVP6kr376Xm+vhQIAAHZl9qeW/TVd/SbvffJwdgAACYRnp7rzqru3b9TkqujVNPADy2JqX8TVM6b/SBP8AAADDNLTz7uqeV7ubNqfUVrn0A/Ae3ppZfHxpbdacUgAEAYAZZNP/aC1Lq25L6Y2oAzOrb4NtTmzf6sj9gAACY6UNA77KLkvr2JBepATCb1M8n9beHRld/QgvAAAAwi66Bi/uuubR28qaUPFMOgBl9yV/X1ObN7bGBW+In/QADAMDstah32cVJfVuSZ6kBMKPcWWr9w8Gxgb/24A8YAAD4jiGg+cOkXKAGgAd/AAMAwKwYAupbk1yoBsC0sr7U+jYP/gAGAICDHAKWvqTU8ru15NlqAEzp29rbS2neOjgy8DEtAAwAAIcxBCy7KKm/leSlrp0AU+vBv6nNH7fHBj6iBYABAGDCnNO79BlNaf1Gan11kh5FAI6KJsk/tEpzw6aR1evkADAAABwxT5t/7dlNml9NyXU1OV4RgEmxN6V8oJPyByMjK9tyABgAACZNX981T2w1eX2S1yc5RRGAI+L+pPx5a874jZs23bRdDgADAMBRHALecEyr7nlVav3NJEsUATh8NRlupf75MXs6K75475o9igAYAACmFB8MBDjsW9T/92G/W+Kn/AAMAABT3dN6ly5sanl9Lbk2yeMUAfie9qaUD3SlvGPjyMovywFgAACYdnp7rz+pJ/uWJuVXa3KWIgDf5mtJeW+6u981NLT8fjkADAAAM8DlXYt6T3xBUn85Xg8A3IbeXmrzP084Zc7frlu3fL8eAAYAgBlpwYJr+7pqvS6p1yZ5giLALLEzNR9oupp3tturN8gBYAAAmDX6+t5wTFdn16W1lOuTXKwIMENvOdelZPnuh7pv3rZt+YN6ABgAAGa1hfOWnttqlV+syRVJTlQEmOYeqMn7WrXznsGxm74oB4ABAIDvMG/e0mOPKXn5o6cCfsy1Gphmt5frUrK859hj/3LDhnfv1gPAAADAAViw4Jozu2u9oia/kJT5igBT1FeScnOnlBUjIyvbcgAYAAA4ZDe0FvXe/ZzU+ppScmVNjtcEOMr2ppQPN02z5oyz5330tttuGJcEwAAAwAR6xllXzN3bPednSy1X1pIfdi0HJlFN8i8luXlvU9+/efPATkkADAAATIJHXxG4LClX1eQ8RYAj5K6krO2UcrMj/gAGAACOsr6+q5e0mq7Lk3plkgWKAIfpnlLzwVrK2qHRVZ+RA8AAAMCUc0Nr0fzNz60lV5RaLk/JqZoAB+j+pHwgyfuHRlfdnkeO/ANgAABg6ru8a1Hvic8utV5eS708KU/RBPhPD/2lfLRpmrUnnTLnY+vWLd8vCYABAIBp7dFfEkheltRXxGsCMJttTc1Hm9RbfMEfwAAAwAz3/78ZkJ9N6iJFYMbbUmr+7tF3+h3vBzAAADAbLZy39NyU8tJS8vIkz0rSUgWmvSYln09TP5K0/n5obNWdkgAYAADgWxYtuv4JZf++F9RW6+Wp9dIkJ6kC08aeJJ9KKR8p+3LL4NZV2yQBwAAAwAF45COCSV6WUi9NzdM0gSmmZjTJrU3qLcccv+cfN2xYu08UAAwAAByWc3qvWtTU7ktqq76o1Dw/yeNVgUn3zaR8Kmk+3pV8fOPowLAkABgAADiCLu86Z8Hx59ZaLq4pFyd5XpI5usCE6yRlfZJbk9zac9yuT/tTfgAMAAAcNb2915/UXcZfWGu9pCQvTLJYFThkm5LyyZTm4+N1zqdGR5d/UxIADAAATEnz5193WlfGL2iV1nOTXJzUZ8avC8Bje/Q9/rTK7Z3UT42M9G8VBQADAADT0uLFy06s+3PhI2NALkrqBUl6lGEW6iQZTM1nSuqttWfOp4aGlt8vCwAGAABmpL6+n3t8qx7z3NRcmJoLU+oPJzlZGWbg7daO1PxrSvO5UvKvnbL/s+32+x7QBQADAACz1uIzl52e7ua5SbmolnJ+Up8VHxZkennkT/dLWZfkM03p3N5uz9+Y3NBIA4ABAAC+ix887TWPe/C47v/S1ZULay3PfPQ7AgvjWwJMDU2S4aTcUUu+kKb863EP7lv3xXvX7JEGAAMAABymJUt+6YTOw3sWN+laUpp6/qMnBc5Lcpw6HEH7kwynlHWlNutqWut6jjt2/YYN794tDQAGAACYJOeff33Prm+MP7228sxW6pLalB9IqU9LcrY6HKSaZEuSjaVkQ02+nKasP/GU7rvWrVu+Xx4ADAAAMAX19b3hmOSBvq5OeXotrSUpeXpqXZLknHiNgNSvJmVDqbmrtsqG1NxVenLn4OCqXdoAYAAAgBlgyZJfOmHv3ocWdXVKX03TV0tZUFL7Ukpfak5XaEb5SilpNzUjJWmXWtudrjJy/K7xQe/qA2AAAIBZ7PTTrz/+xGMe7qut7gU16WvVuqAmZ+aR1wnOTPJ4laaUB5JsTbKlpt6dWkZKq4y0atPevW9P+5571j4kEQAYAADgoPX2Xn9Sq7X3jFZTzq6lnNlqckZNzqrJWaXkKUmenOQkpSbEN5N8Lcm21Gwtyd21VbamNvc0rbolGd/abr/vAZkAwAAAAEfFI98eeOiJXU3z5CbltJT6xFLz5JrmtCRPLClPSsopqXVuSpmb1JNnwX+Ta1J2ptYdKWVHUr9RU79eUr5eUu9tSuve1HJfK/XeTqv1teS4+9rtG/f6pwkADAAAMKP09l5/0pxm39xOcnJXd05uak6utcwtyckldU5NTi6ldNcmj09yTFrl+NT6uCRzkpyUmu5858mDVo5NLd/x84h1TpLHPfo/9iRl37ffGdSH0uTh7/jL+2ZKxvPIn8jvSyl70tQHk+wtrTxQax0vyc6asq8mO0upO1olOzvj2dldunbsLV07R0eXf9PfZQAAAAAAAAAAAAAAAAAAAAAAAAAAAAAAAAAAAAAAAAAAAAAAAAAAAAAAAAAAAAAAAAAAAAAAAAAAAAAAAAAAAAAAAAAAAAAAAAAAAAAAAAAAAAAAAAAAAAAAAAAAAAAAAAAAAAAAAAAAAAAAAAAAAAAAAAAAAAAAAAAAAAAAAAAAAAAAAAAAAAAAAAAAAAAAAAAAAAAAAAAAAAAAAAAAAAAAAAAAAAAAAAAAAAAAAAAAAAAAAAAAAAAAAAAAAAAAAAAAAAAAAAAAAAAAAAAAAAAAAAAAAAAAAAAAAAAAAAAAAAAAAAAAAAAAAAAAAAAAAAAAAAAAAAAAAAAAAAAAAAAAAAAAAAAAAAAAAAAAAAAAAAAAAAAAAAAAAAAAAAAAAAAAAAAAAAAAAAAAAAAAAAAAAAAAAAAAvrf/C8gm79rXrrh0AAAAJXRFWHRkYXRlOmNyZWF0ZQAyMDI0LTA3LTIxVDIwOjAyOjA4KzAwOjAwtiMlGAAAACV0RVh0ZGF0ZTptb2RpZnkAMjAyNC0wNy0yMVQyMDowMjowOCswMDowMMd+naQAAAAASUVORK5CYII=;" parent="1" vertex="1">
          <mxGeometry x="370" y="295" width="60" height="60" as="geometry" />
        </mxCell>
        <mxCell id="vH1DzTLoHbvqbGa9TRak-27" value="" style="endArrow=classic;html=1;rounded=0;" parent="1" target="vH1DzTLoHbvqbGa9TRak-26" edge="1">
          <mxGeometry width="50" height="50" relative="1" as="geometry">
            <mxPoint x="110" y="334.3661971830986" as="sourcePoint" />
            <mxPoint x="390" y="290" as="targetPoint" />
          </mxGeometry>
        </mxCell>
        <mxCell id="vH1DzTLoHbvqbGa9TRak-37" value="/class" style="edgeLabel;html=1;align=center;verticalAlign=middle;resizable=0;points=[];" parent="vH1DzTLoHbvqbGa9TRak-27" vertex="1" connectable="0">
          <mxGeometry x="-0.15" relative="1" as="geometry">
            <mxPoint x="1" y="-13" as="offset" />
          </mxGeometry>
        </mxCell>
        <mxCell id="vH1DzTLoHbvqbGa9TRak-28" value="" style="endArrow=classic;html=1;rounded=0;" parent="1" source="vH1DzTLoHbvqbGa9TRak-26" target="vH1DzTLoHbvqbGa9TRak-20" edge="1">
          <mxGeometry width="50" height="50" relative="1" as="geometry">
            <mxPoint x="340" y="340" as="sourcePoint" />
            <mxPoint x="390" y="290" as="targetPoint" />
          </mxGeometry>
        </mxCell>
        <mxCell id="vH1DzTLoHbvqbGa9TRak-35" value="Internal" style="edgeLabel;html=1;align=center;verticalAlign=middle;resizable=0;points=[];" parent="vH1DzTLoHbvqbGa9TRak-28" vertex="1" connectable="0">
          <mxGeometry x="0.0051" y="3" relative="1" as="geometry">
            <mxPoint x="27" y="-17" as="offset" />
          </mxGeometry>
        </mxCell>
        <mxCell id="vH1DzTLoHbvqbGa9TRak-30" value="" style="endArrow=classic;html=1;rounded=0;exitX=0.4;exitY=1;exitDx=0;exitDy=0;exitPerimeter=0;entryX=1;entryY=0.25;entryDx=0;entryDy=0;" parent="1" source="vH1DzTLoHbvqbGa9TRak-26" target="vH1DzTLoHbvqbGa9TRak-21" edge="1">
          <mxGeometry width="50" height="50" relative="1" as="geometry">
            <mxPoint x="340" y="340" as="sourcePoint" />
            <mxPoint x="390" y="290" as="targetPoint" />
          </mxGeometry>
        </mxCell>
        <mxCell id="vH1DzTLoHbvqbGa9TRak-36" value="Internal" style="edgeLabel;html=1;align=center;verticalAlign=middle;resizable=0;points=[];" parent="vH1DzTLoHbvqbGa9TRak-30" vertex="1" connectable="0">
          <mxGeometry x="-0.191" y="2" relative="1" as="geometry">
            <mxPoint x="13" y="16" as="offset" />
          </mxGeometry>
        </mxCell>
        <mxCell id="vH1DzTLoHbvqbGa9TRak-31" value="" style="shape=image;verticalLabelPosition=bottom;labelBackgroundColor=default;verticalAlign=top;aspect=fixed;imageAspect=0;image=data:image/png,iVBORw0KGgoAAAANSUhEUgAAAZEAAAEBCAYAAAC5R5gUAAAACXBIWXMAAAsTAAALEwEAmpwYAAAgAElEQVR4nO3dX5Acx30f8F/P3u4dDwSgVXAwzYgEdKSKEMAR72YBUZFkgyYPokhXEivhoVx2quK8HCyl8pDKn7v8saLQeQAqlZdUyQpOLBdV/lMRjw5puyyRxhUFyIlMGdgFlCVA0qROAMlIFA7kCYBwwO7sTedhZ2Z7enpmZ7Zn/x2/nyqQd3MzPb2Lw3x3unu6iQAAAAAAAAAAAAAAAAAAAAAAAAAAAAAAAAAAAAAAAAAAAAAAAAAAAAAAAAAAAAAAAAAAAAAAAAAAAAAAAAAAAAAAAAAAAAAAAAAAAAAAAAAAAAAAAAAAAAAAAAAAAAAAAAAAAAAAAAAAAAAAAAAAAAAAAAAAAAB6gfW7AjDc/tvsT78S3GK0+zJyi/+TwI9i9os/MGb/2IoJm2PKM2LKVO4eOqD9vorztd1PcVzcfk6dnv5n32AX2xcEoDbS7wrAcOOM/ScW+CjCiYi1Pp0wbyuTPrFwIvfA4HbWLIEJ+5G0HxP2iygzWC4jYmJJwSOZXFl/j2B5rT2Y/03SMrn4DghFyu9Ks8zwu9UsU361ycrkTF0eERGN0Ekiuqj+IUB7CT7KAMTjPLSFeOvL8DbpwOB2rihT2o8rtikqE/iKK7aFDlHUhCtrR4r/tS2Thw8Ivys8YjsR8fAbnbhMVXkAWUCIgCbVRb+5HUGiqgWCBDYXhAhkAEGSpkwECWwmCBHICIIkTZkIEtgsECKgJXhBQpCkKRNBApsBQgS0IUiE/RAk8AGDEAE9ygscgiRNmf0MEqJG6FiANBAioA9BEq7JsAQJgCaECGQDQRKuCYIEPgAQIqCFB69O4W0IklRlIkhg2CBEQBuCJFQRBAl8YCBEIBMIklBFhiJIAHQhRCAzCJJQRRAksOkhREBP6JqGIEGQwAcJQgS0cOFiG9jW+ia8DUGSqsyuBgmAJoQIaEOQRNQEQQIfAAgRyASCJKImAx4keF4ddCFEIDMIkoiaDHiQAOhAiECmECQRNUGQwCaFNdYhc5w4Mc4C635zEtb55qRYS7y5kXN5WXNhL/c4+cjmbs0DC+OM9h0cpenHxmjrDoOuXNqgZ3/3OtVv8uB5WkURMWmbVGbg1MSJePSa7a1DOH3i0QJ95jcKRET0+v9u0Jnn6nT9PfGVCWcN/i+yzNCa7UKlQ++K8n32XhoPrdkO0AmECGiJuhj1OkhGxxlNP34bTT82RqPjrYN37MrR9GNj9PKf3BTK7E2QeAFCRHTfZ0fovs+ONMPkeZuuX+HCUf0LEgBdCBHQ1s8gKYwbZCnCQ65Js57U0yBREcOk+pcNuvKW09cgQc866EKIQCZ6HSSj48wNj9tiwiN4bLjM7gZJHC9MfvyaQ2eet+nHr230L0gANCBEIDO9CJLRLUTWY+NkPa4Oj2tXHHr52XXae3CUPvLxfKgm/QqS7zxVozv35Oi+zwb/yd25x6B/sDDqh8lPXtsgBAkME4QIZKpbQTJ2O0sUHhdO1YiIaO/BUeE8wZr0LkiE+q069Npf2XT6OYMOfKEQGybl52368WsOggSGAkIEtKQZ+dNJkIxuISo9viUyPN65YNNfP7tO77xqu1vUl8ZgGPQqSMKuX3Hopa/X6PRzdTrwhQJ9tJSjwm2tve/cY9CdC6P0E7+Zy+lqkCRpegOIgxABbd0IksIWov2PbyHr8fGY8LhBb19otIpirdLU9extkITOL1z0r18heunrNRr9I0afeDRPn3h0JBAmv7jHoL8vhsnrTleCBD3roAshAnpimkc6CZLRLYxKj2+h0q+2Cw9bODY8ait80ubVtpdBoiJf9GvrnE4/V6f/+6LdPkz+tHlnkmmQAGhCiIC+jIJk30Nj9PBvbYsMj+8ttcKj/fBfVT17HCTSKw4f0jrCC5PqizaZUWGyZ5R+8rpDL/z3OtnrnDIJEgBNCBHIhmaQfOzAGD32pe2hfd48U6PyX6zTO8KdR/ii75cWeSMiVKZ3QaJ4xXEXfSKiW+uczjxXp+pfNsj83Eg4TO4zaP+vjdD3/tjO7o4EQANCBLS0H2Hl/qhNkOzcHfxVPH/qJn3vmRt0dXXDv/ilfiAxstK9ChKxZsEyg4eEa1K70ewL8cLkvl8aoa1/p7nPjrsMuaTYMhEk0E2YgBG0tZ9g0d0W8Ri3at9vffVqM0Aiy+RumUlK6+ekjXJJ0lc8vK11Gk61dU5nnrfp9b+SOsC5fFR8mYkmbQToAEIEMqEfJJ2UGR0kbUrzKqPYO7sgUVWpkyCJlEGQAOhCiICeqE+2HQSJuvhOg0RVx80RJIGzIkigzxAioA9BkjBIeOdBEi6J5MIQJNAPCBHQ0ratvdMg4fK3nQdJ+DraoyBR1aHDIIkuUzNIADRhdBZoazv6x93e7SlSvI1ykGyfMOgje5uTMa5ealDNfcaCE6OxcUYT4sgwxuja6gZdX3X8MrdN5GjbhBGo+eolh2rr3B+1tW0no607cs0iIt+nuClShK+4etRWdJn+m5GqzOhn+wGSQ4hAJnSDJLLMDoNEtPfgGO09OEZEREtPXm0+c+JeUHfsztMTv7MtsP/Lf3KzuYiVd/wvF+jBf3xbYJ//9V+u0zuvbvhn+/gvFeiT/2gs+g0K1U4nSML3S50GCSY9AV1ozoLM6DRtRXVocKH5J3mZCZpqEjQbpWxQarOrsqGp86atDDvbAXTgTgQypXNHEltm6juSltVLDardaF40b60LExlyotoNLswA3HRtdcP/2M6pOY37/3s1+Jm92STWOvlVxT5/9+PSPy/NNduD7wkRk5627OyOBEAPQgS0KJunBixIvvP0z0NB4e21erFBS09edbdKR7pX2/PfrdGF79aEHzT3Ep9sf/W7dXr1u/XW8YzoX/zhhxQvpLMgUb8nWQQJgB40Z4G22GfEO2naijtP6qYtd1tok7AXV2yTDlQ2HnHFtlCZClpNW1JRih+mb9oC6BxCBPTEXbg1giR2ipRhCZLQT9SVSRokUXSCBEAXQgT0ZRIkimI1g0RVyc0TJIqaIEigDxAikI0MgkRZbKdBElPJXgWJ8twRZQZ/pgoSFQQJ9B9CBLKjEyRxxWoGSerZf6UguWd/gT73xdubDyx2GiRc2C906vRBkt1cW3hSBPRgdBZoiVq7u6NRW3HnSflke3w9mxVoux6J+8Xeg6N0z/4C7f3lUXrnVZueffJawvVIQpVIuR4JpzRL7QZPwxON2gLQhTsR0Ba6aGdwR6Lb2d6+nsnuSEbHGd2zv+D/dPWit8ZJ0juSUPGt/UI/i78jURaneUcCoAshApnQDRLVVS3TIFHWh9Nde/P0z39/B+07OBbY7u117/7RQDEXTtVodJzRbx7dTp/77S2KmkcHSfB6nzJIoktDkEBfoTkL9MQ1TaVs2lKVqztpY1yZ+x4ao89/sTlv1qNf3EpEROdP3QrU8J4DrbuQa1ccunypQY9+8Xaa2DXi/snRs797vTUZo/ymBLYFWsnSN21FvaDAISmbttAlAppwJwL64pqmUt+RJDxWc/jv57+01Q8Qz+h48MI/uoUCTVk/PF2jbRNGYNvErhH6zaPbaWJXTnlHonpBnd+RqErP4I4EQANCBLQk6uPoR5BEbBvdwujX/vWHaN/B4Ky8L3ztGpW/dTNwrZWbss6fqtG11Q1aevIqXbvi+Nu37TDoid/ZRh/Zm09wWR60IAHQgxABbZkFSdS2DoJEpbCF0a9/5cN074FWONTWOf3B/Pt0/uQt/0RekfdKTVmrFxtEvDmh4x/OrwXm4xodZ/TEf9xK9+wvtLngt75LGySqAnWDBEAXQgQyoR8kMWW2OzbhhXHn7mY/hmf1UoO++Z/fp59eFCdnbJZVGGd0j3Ancv7krcBFv7bOaenJq9LEjETTj41Gv57ARt0g4QgSGAgIEciMbpDEltnm2DRL7Xomdo3Qzl15RZk8cLdC5HW4h4f/TuzKKc4XXZfOg0T1JYIE+g8hApnKLEiiju8oSJoX27fP16n8rfXATz7/pW306SduD5V5vzDkd/VSo7nGiLDXxO4R+ifHiqE7m1PfWPcqE/miBmHNdgQJZAUhAlpUF+5BDBJv1NZLT1+jb//e1cDPPj27hR770jZ/v20TOX9NdiJy+0ta7to7QrNf3k7bdrT++axeatDSk9do9VK7MbMDFiQAmvCcCGhTPbeRaIoT92ex05REHS8cm3bN9ldO3qSrqxv0hX9T9If1eqO1vv171wId6kREb5yu+89hTOweodkvBxebunCqRi/+j+vud+pJXMKXb3mKFHcbqZ8jkV6gVJL7VQdrtuMxEdCFOxHIhO4diepzcTcXtnr7fJ3+51fe95upVi816KWnrxNxovsfag3/bTZlNS+1nDdXQrxwqnVn8tfPrtOLX7seeB0xjWqh75LekYQLU95zdHRHAqADdyKQGa07kqgyNe5IYsvkjC5ftOnpf/sePfxbW+mlp69T/Qan7RO5QD9Hqymrdffwwteu0611TqsXG26He3jSRi7XRZhrK37Sxqg7EtULaR2oe0cC0CmECGSq4yCJK7OLQVK74dC3v9rqI7n3k8FRWW+cvhU4yrvon/zGz1U1pODVXz4pTzj7ryJI4u5ItIIEQA+as0BL0s5tnfVEEh0f29keU6b0s31CU9abp2t0dXVDKlPVDCWdObY3XNVhnqBpK06Ga7YDpIUQAW3dCJKOppGPDZKY87g/2j6Ro51CU9abp2sRZfY/SMKnRpBAfyBEQE/KC/cgB8mtdU7P/9ef0SunbtK11Y1WU1anQRLaO1AZxfbeBwmALvSJgL6YPonkfSQpylQeL/WRRFU1Zhr52s8deuP0rUA/SHy/i6o/o1Wb8BnUU74n6yMJ17iTFRJVfSQAOnAnAtnI4I4kVZkJ70iUxWpOI5/0jiTiDHJlFHtHlSnvEnGXgjsS6CGECGjRaUrqepDEbetJkIR2Udemr0GCxw1BD0IEtCFIWht7FSQ88IVukAB0DiECmcgkSOK2pQySxMcOSZCoXlsWQQKgCx3rkJk0c1uFO7fV4ZDFmu3mw+N09/3NhwirJ2/QtcutVQm378yR+dB4oGf87fM1eut8nbwHEu+6v0B37xXn02J03p1/y6vP3XtH6a59ef/n6ndHfApd+QopurM9XF7cXFuJO9sBNCFEQI90xdILElXxHQaJwHxo3P/6rfM1unq55h+7fWKEPnN4a2D//0NEb52v+2XevbdAn569PbDP2xfqzRBx6/ORfXn6e09sSf5qBiVIADShOQu0dNbs425LuJBUR01bbcpN97S8alv4NSYtLdgMFVEbZdNWdO06b9oC0IM7EdDmNftkfkcifJxOe0ciunzRpls3mk1YtXUncOytGw69faEe2P/q5Uboe3mf2g0eOPe1yxv+Pt42cU0S+YWlvSMJldC6sfAL6eSOBEAXQgQyoRskyvLiHihsU6boxO//jN4631wLXa7PTy/W6Y+/fCV0jBhsr5y8Sa+cvNk6XvEa/X3cnzFi9K++uVN4jZGvsK9BAqALzVmQGa2mrajypB+madqKrGOS+mQ6assrM6Y2CZq25GPDP+qsaQtAB0IENHHpu84vsurSMwqSqOO7GCTKYzsNkoiahMtEkEBvIUQgA4MeJG2O71mQqC760pEJgkR+t8NlpggSPLAOmhAioCVqydVBC5K2x3cjSCKOapYZWcPeBwmABoQIaOtGkOiv2a6oZx+DJNmT7UmDRBUGCBLoD4QIZEI3SFSXNQRJ6AuxMoqfIEig9xAioKl1KdIPEkXpA7fUbvIgiT23cKJ+Bgm6REAXQgQykH2Q7PlUa6oS/RUSVdv6ECTKMtsHybYdOZrYFfFIVwZBAqADDxuCFk7hlfJaz7K1tjW/a/NAouDwv/sFqq079NrL6/T692/Qay+vJ1whUV1e1JPtbVdITPmkveo1SjskWiFxYvcI3bt/lO49UIgOkFZlUqyQKD2QCKAJIQJ6OFHrmtl5kLz8Z1dp6pGttH1n61dydNygBx6+nR54uDn54evfX/f/eNOYRAWBXMfAvoEfdTFIpG2B+iiCZOfuPO07OEb3frJA23bkQuV6Tn7jhvSuUudBAqAJIQL6MgiSmzc26Ol//2P61D/cTnse3BIIE899D47TfQ82m7nkQEkUJElm/80wSFTb5DIndufo/oO30b0HRmnbRHRw1NY5/fB0nc6fukWrlxpuEUln/40OEgBdCBHQ5F9htYNk7bJNL3z9PXrh6+/RHZMFmnpka6pA+dvv32zeoaRqShLqk3GQqKvA6e59o/SxA6MJg6NGb56p05una0TimRPMtZUkSAB0IUQgA9kFiXdZfHelTi+svEcvPPUe3fHRAk09so32PDjeNlAunb9Fr798k8a2RIwZ6VOQ3L23QPc/dBt97MAYjY5H71db5/Tm6Rq9eboZHMEihTMLHRsIEugnhAhoCXWsZxgkXhHv/qhOLzx1hV58itEdHy3QA49sjQyUXfvGaNe+MamO/W3aIqLQolaiZnDcojdO1+iHp8Up5+WLvlSbTIIEg3xBD0IEtPUiSLwL97s/qtO7T71HL7p3KA88spX2fGqctk/E/yqHLrN9btqqrXN64/QtevNvam5TVetccaO2QrXJJEgAOocQgUz0Mki8bWKg/OLkKO26f4weeOR2+oXdrfXQa+sO/fRH9XB5EWWGzq0RJJcv2rRzd2thqmurG/TG6Rq9cvImXb5o+9vjy+xukADoQoiAnsi1u3sTJJ6frNTo3R/V6ft/fo0+tHOE7ntwnHbdP0Z/8+fX6dbPHXUQtClTN0i+9dWr9JnDt9O11Q2qfqcVHFELW0WX2b0gAdCF3yLQ8h8ee7X5eVa4uoW+YoptgUOCv4byRdbfFio2/OurakpiQj2U5bUrs93xKevj75v6NTK3zMgakvhFeDcW3IWIuOP8yr/85sRJZSUBEsC0J6DFbxER2kZCX3HFtsAhwXaVpFOkJJ2SJM2kjbETJ0Ydn7I+/r6pXyN3y4ysofgXEq6NcooUAD0IEdCGIElfH39fBAkMOYQIZAJBkr4+/r4IEhhiCBHIDIIkfX38ffsUJAC6ECKgSb7oe18gSBAk8EGAEAEtzesQgkS3Pv6+vQ4SAE0IEdCGIMmmPv6+CBIYIggRyASCJJv6+PsiSGBIIEQgMwiSbOrj74sggSGAEAFN0gUeQZJJffx9uxwkmMMXdCFEQAsX/utvQ5BkUh9/364GCYAehAhoQ5CkOB5BApsMQgT0BK6ZCJJExw9SkKA9CzQhREAfgiT98YMUJAAaECKgiSv+hyBJdPwABAmALoQIZABBElnmwAcJ2rNAD0IEtKgu+q3/IUgSHd/3IAHoHEIEtCFIEpSJIIFNCmusgxbO2Smi5qUpsAQub/1P/qTCOREzgkcEg8Twt8llchZRXsSa7cSNwAHNPYT1zCmqjjy0tC0nToyMwGm4VzfxBEZEmSSs2S6XKVQ/VKb7Gg3FSruc3HXpDWlbwjK5kftZuFQAAAAAAAAAAAAAAAAAAAAAAAAAAAAAAAAA+KBRPL4EoMc0zclcLjfpfX/u3LnlftYHALoH055A5vL5/PFcLnfC+1MqlWb7XScA6A6ECGTKNM1JxtiMuI1zPhO1PwAMN4QIZGpkZCR018EYmzNNs9iP+gBAdyFEIFOMsTkiIs75Guf8mLc9n8+jSQtgE0KIQGYsyyoxxrwO9SX3jwchArAJYSp4yNKc9wVjbLlcLpcty1phjE0yxmZM05ysVqsrcQVYllVyHKdIFBzVZVlWiXM+YxhGiXNeJKKy4zjL8sgv0zQnR0ZGZt0wm2SMrTmOU240GovVanUt7rxe343Yp8M5XzYMY6VcLi+pjpNHoiURN1qtVCrNOo4j9iutcM5XGo3GUtx7F/W+xbwfseUBJIUhvpAZy7LeZ4wVOedrlUrlw+62o4yxeSIix3EWzp49e6xNGSe8CyjnfD9jbJJzflS4wwngnC9WKpUjlmWViOio3Kkv7Ldi2/Yh+cJZKpVm48oXji8T0ZFKpVIWt09PT88bhnE07lhZuVwO/bubmpqaMQzjeFw9OOeLtm0vqMJQft8cxykahjEf836sMcaORIUjQFJozoJMlEqlWcaY13nuX5hs2170vvb6S1I4TkTPeBdWzvkK5zwQAoyxOcuyjjPGzsh3ENJ+k/l8/rh8AvdT/6Rw3BrnfFlxfMmtT+Ysy5rL5XInFPUIBBZjbC6fz59IMEjhqFte3PtR5Jwfx4AH0IXmLMiK3+fhOI4fItVqdcWyrDJjrMQYm7QsqyR/mo/CGCtxzpcZY4viJ2bTNCfz+bx/0WWMzbkBsyg307gBM+fuF2pSc5t3FjjnZVUzk3inwRgrlUqlWbEujUZjKZfLxb4ewzCOuiFEFOwnItM0J4nIv5PhnC/btn1Eeg1z1LzLKjLGSoVC4TgRHY5532Zi3g//zpAxViwUCjNynQDSQIiANvfT7CxR825BvhhzzpeEi+gcER1JUi7n/FilUlmQt1er1ZXp6elFxph/8bVte7+qmce27YVCoeDfAbn9F/5FtVKpLMrHiM6ePXusVCqVvNfnOE6gucm9QMf1VfgBwjkv27YdeO35fH7eu4PjnJcrlcohuYxKpbI4NTW1ksvlTribZtuE8VKlUlGGTKVSWbAsy+sjCb0egLTQnAXaRkZGxGaq0KfaRqPR0SgtznlkR7jc1BPVaR7XmZ6U4ziJ7pxklmXNeZ/6Oedrtm0fFutjmmZRbOJjjEX2F507d05uYot8HxPUFx3qkBmECGhjjIkXtFCIVKvVFe+izxgrus0zm5o73FnsQwl16udyuZL4fbtObilEMAsADAQ0Z4EWd5oTr7lmJaqJRWzScjt8Y5uR+mFqampGaHYjznnZMIw1znmqctzmPa/piTjnoVFdRH5nvX+uduWK+4jHAvQTQgS05PN5sTmmPDU1pfyEzBgTm5Vmkzwz0ivT09PzjDG/b0LGWPKR8KZpFt1Of6+f41i7fheXdrMbQD8gRECX2JQ1m8vlEvV5uHNsxT4z0gviaCWi5t0UBfsMSlHhopLP5wMjsVQDAwA2E4QIdMyd4r2j0T1uP0pfQ8TttxAD5IjqriHpA4XuHY03d1hoJJZMujvDKCkYSggR6BjnfMZr6okajisyTbNYKBTeJ2q26ad5ZqQbpPovJmx2UnJHYh11ywqNxFJxHGcll8sRUfNhSNM0i3HHSH0oWOgLBgJGZ0FH5OGplOCBNfcCOTCTMkpPdHfcP+NNuSJsCo3EUnGH7fqh0W6mY3EUHEIEBgVCBDoiXvDiRmXJpItfv4f6iqOdlM1JpmkWDcOIHAnljsR6RuhIV47EiiJOl09E81HTkLhNZX49pGdvAPoGzVnQqdhnQ6LYtr3kTttBjLGiPI1Ij4nTn8xNT0+veBNECrPfzhNRZMe6+1rEub2K09PT81H7EzWfgve+bjQai95T6+78Xmcsyzpm2/ZytVpdcSdmnBXv+hzHWRiUkW0ACBFITbEEbuIQqFara6VSaYla06T0be6mSqWy6PZllIiac1yVSqVQBzrnfDFq8kjOedHrV3GnvE8yo68fItVqdc2yrEOc8xNekBDR8UKhQM3ZVsJ1aTcTMkAvoTkLUhOXwE3TlCUc4zdp9XvpXNu2D8X0LyxxzvdTlx+MrFQqZdu293POI8/DOV9xHGehUqkkmncMoFewnggA+TMDz3DOi5zz8sbGRjmLebc6qEexUCjMiBMjRs0wDAAAAAAAAAAAAAAAAAAAAAAAAAAAAAAAAAAAAAAAAAAwvDDtySahWts86dQdpmlO5nK5tivrpSivmMvlArMHbmxsrGQ586xpmpOFQqEkTg/iwTQhAL2DWXw3AXeZ1xPydsMwjhFR2zW+R0ZGZpMs/5rL5ciyrBUiWrJtezEqFHK5XCmXywXqwxhboAyWw7Usa46IxJl3lfu5M+AubWxsLCJQALoHIbI5RC3uNEsJQiQNd6ry+Xw+P2dZ1oLOkrJpuKsHPhO1eFSEWcMwikTUtRBxQy2wtkqv3hOAQYCp4DcH5bKqjLFJ9+KbOXfti+PdKl/knuNEygDplUnG2Iz3h3Pet2ntAfoBdyJDrlQqzVLMynvUDJhU630QNRc/ktcdZ4zNKS7kzxDRPWnLT8o0zUlqBkjoNbr1WxLXKXfrOUlEJXE52S7qxTkABhZCZMhxzme8lfXc78vSxXOOOmjSchxnSe5LME1zMZ/PnxGDxLvbSbswVVLe0rHiNjc02jalqTr4uwAhAh9oCJEh5q4IGGjKchxnQezUznIdc3cp12NEdFzc7i5xm3mIuMvwhvp7HMc5nKSz3B1JFrvf1NTUDGOsZBhGSdEUVXYcZznqXO6xgWMYY5PiSDnDMNaiAtY0zeLIyMic4twrqhC3LKvkOE7gfKoRc6rwVL0G1ag8VXmdvEdJ6xq3PwZEDAeEyBDL5/Oz4kXMG9pqWVbgbiTLdcwdx1nJ5XJZFNWWuAyvh3OeyWir6enpecZY4C5HvKNzzeRyuXnLspZt2z7sXQAtyzoeteY6Y2wul8v5P3OX3j3U7vzyuXO53Jx8XiKazeVy89J+h0n6u3WDKTDazrKs/XKYuXd5gdexsbHx4ag6qupJEe+Rqq6GYRwhxVLDpmkWGWNnpN+rJerigAjIDjrWhxhjTH42ZJmIiHMuB4ay433QKV4fOY6TSRi6HeGJOsEZYzP5fF68IGp18FuWddQwjKPtzu+e9xlhU+i1c85DzWmGYYS2uR8kZDPSPsvinYLOe2TbtqqpUdn0VygUQnWLWfceBgxCZEipmrLIvcgwxgL/ABljRXcoqjZVZzVjrFtrkYfO1Y0mDs55mXO+LPwJNT8xxuZVx6blNg0FyuKcLzuOs+A4zgLnPHDxZYzNeH93lUqlLA92IMV7pAoMOVjcT/+BMIy7cKd9j6rV6oqiPOWHGbm+nPM1DJMeHmjOGlL5fD7wD9fCTbsAAAa1SURBVNL9h1cmal5sLMtakTrAZ0jRlJCGO9Q2dDG1bbsrnxojOtRDpqenYy/wEU+wLxHRYr1eX1a1009PT8/LTUJTU1Mz586dW65UKoe87+WHKh3HWTh79mzkQ5VymZzzxUqlckQ694q4n/R3t0TC34F8t+Y+eKoayRbYTzXgoNFoyHc6Hb9HwvH+eRljRennHjn0MrnbhN5AiAwv+c5C/oe3LO0za5pmMcm0JUTNi51lWeK+xYghs0tZTmfShrKDut3T9o7jLJDUvt7uk26j0VgsFAptn+JPw73AB95D27ZDI+cajcaSeG6xyYoxFnoPxAuzPFpPOK4ojqKT68E5L8t/j7rvkW3bS/l8PtBsZxjGDAl/F+57IjcP4i5kiKA5awi5o5YCFwFFE1bo7kC+e4nDGCuJD9GpAoRzvlav14+ojh92ScM2DUWzjfITvnwxFy+y5XJZ9VyM/3cjNlu54ak8v3wHo+hHa6vde+T+XC5XPq/8/Uq3hotDd+BOZAipRi3V6/VAaJTL5SXLstakpo1ZyuhTHud82bbtI9242MbI/JkM0zQnvffTMIyS4zhl9+uu310xxmZKpRLv4NAlEu4yxeAQ70S8fgwvMKR+kcB7qWjK8mm+R4tiXRljJdM0J72gVIQZ7kKGDEJkCDHG5P6QlZGRkbnp6Wl51zUSnmZnjM2I/4DTcjtKVxhjy5VKpevt1pzzQAhGjRQql8uB9pskF2bTNIvuEFd5GOrAjWRTzBwQaKr0Ps3L/SHnzp1bnp6eLgkX6lnVfqqmLKJs3iO3fy4w5NwNpGNu534gROLCDAYTQmTIRDRlTTLGErXfe/+A2+23sbFxaAAe9iqT1PwR0TGbWj6ff0Y1hHhABS7w8l2m198h3YV4fSSBpiH3QUh5VJbywp3Ve8Q5X1I1uSmG9vayfw0yghAZMvl8XmuornsXoz0ley+ITTEe91OwVohYljUnl+s4zkKj0ViqVqsr3hPf8sirrHHO/ZFeabl3I+IdQUlqrioTNe9G3GnxveNKJM21puo/y/I9UnTAz5qmWVRM2dPvDy3QAXSsDx+t5havTTqrynSTqmmDMTanO3Owoh2+fPbs2WPep+BqtbrWjbswuQ/BbV7saNZfxQW3JHWcl1X7uq99RviZsiM7y/eoWq2uyX0d7l2IWA88GzKkECJDRDUcknN+rFwus6g/nPPQXYeqY34QuRcsVVPLCZ2HJxXzP2U2OCDuCW958ANRc4qSTs5j23ZoVgLx3OK55BCRmkOVTVlZv0fyTAOc83npdxl9IUMKzVnDJXTxdxyn3afBwMNpRM1P8zQkTVr1en0hn88Hpt9wvz5uWdY8ES0rnuJOqyQ+Q+N1KLc7aGNjo6yYR2zOsixijJW9pXu9hw/dCSwXxfmqDMM4Wmq2Ny2JD/W5DzIW3WdEVuRP6dVqda1UKi2R+zuh6ChfE7+PeRlJL94dvUced043/wFYuV8vq+lsoPcQIsMl8KmVc962SSHi6fWuTt+epWq1umJZ1iHOeWhNEfc1zakerosj97Uwxor5fP6Mu/QvUXMtkrbNTG4oyO9tkdzQFpbu9QPbtu1j8sSZ1AyC2UKhQGL/hVte6HkP6XWo7ioDvxNyv4hwfOQzGVm9R1KZi6oBIJzzlQEYxAEdQnPWkCiVSvKFhyj5p0jVP9ChaNIiagYhER1q84k6kjy3V6PRUC24Ja5QWOScr0VNsyIdl2qtFreJ7lCSsttRNGl5dQq9TxGd1pG/P1m+R0KZUU1n6AsZYgiRIRExC2uii6pq9A0NUYgQNYOkUqns55wfSTKKx5vUsF6v36NqCiKiw1Gh5E3frupPkrnrtByOaVILXTgrlUrZtu39CS+eS1H1dDusQ++Fqu+FFL8rqrARy6aM3iOhTGUfF54NGW7p2gEABoi4+JMnbhEoFe/5Cu97bwhrJ/WRF3lK0kTjDZUV+wgYY2uO4wxME0+W75E8aaPOMGcYDAgRAOgZy7J+KPYhcc6PYGjvcENzFgD0hGVZR6UAWYvq14HhgdFZANAVlmUdpdbT8aFp8IlosccTeEIXIEQAoFvEyR8D3LuQoXhWCeKhOQsAesodFnwIdyGbQ+hxWwCALNxxxx13ErUW1XKHQS/Ztv1Pf/CDH1zoa+UAAAAAAAAAAAAAAAAAAAAAAAAAAAAAAAAAAAAAAAAAAAAAAAAAAAAAAAAAAAAAAAAAAAAAAAAAAAAAAAAAAAAAAAAAAAAAAAAAAAAAAAAAAAAAAAAAAAAAAAAAAAAAAAAAAAAAAAAAAAAANpX/D7aF43em5afiAAAAAElFTkSuQmCC;clipPath=inset(9.38% 33.33% 38.54% 33.33%);" parent="1" vertex="1">
          <mxGeometry x="30" y="285" width="90" height="90" as="geometry" />
        </mxCell>
        <mxCell id="vH1DzTLoHbvqbGa9TRak-38" value="&lt;div&gt;Container registry&lt;/div&gt;&lt;b&gt;Docker Hub&lt;/b&gt;" style="rounded=0;whiteSpace=wrap;html=1;" parent="1" vertex="1">
          <mxGeometry x="150" y="690" width="120" height="60" as="geometry" />
        </mxCell>
        <mxCell id="vH1DzTLoHbvqbGa9TRak-39" value="&lt;div&gt;Service discovery&lt;/div&gt;&lt;b&gt;Eureka&lt;/b&gt;" style="rounded=0;whiteSpace=wrap;html=1;" parent="1" vertex="1">
          <mxGeometry x="340" y="690" width="120" height="60" as="geometry" />
        </mxCell>
        <mxCell id="vH1DzTLoHbvqbGa9TRak-41" value="" style="endArrow=classic;html=1;rounded=0;entryX=0.123;entryY=1;entryDx=0;entryDy=0;entryPerimeter=0;exitX=0.608;exitY=-0.05;exitDx=0;exitDy=0;exitPerimeter=0;" parent="1" source="vH1DzTLoHbvqbGa9TRak-38" target="vH1DzTLoHbvqbGa9TRak-32" edge="1">
          <mxGeometry width="50" height="50" relative="1" as="geometry">
            <mxPoint x="340" y="640" as="sourcePoint" />
            <mxPoint x="390" y="590" as="targetPoint" />
          </mxGeometry>
        </mxCell>
        <mxCell id="vH1DzTLoHbvqbGa9TRak-42" value="" style="endArrow=classic;html=1;rounded=0;exitX=0.5;exitY=0;exitDx=0;exitDy=0;entryX=0.382;entryY=0.998;entryDx=0;entryDy=0;entryPerimeter=0;" parent="1" source="vH1DzTLoHbvqbGa9TRak-39" target="vH1DzTLoHbvqbGa9TRak-32" edge="1">
          <mxGeometry width="50" height="50" relative="1" as="geometry">
            <mxPoint x="340" y="640" as="sourcePoint" />
            <mxPoint x="390" y="590" as="targetPoint" />
          </mxGeometry>
        </mxCell>
        <mxCell id="vH1DzTLoHbvqbGa9TRak-43" value="Distributed tracing&lt;br&gt;&lt;b&gt;Zipkin&lt;/b&gt;" style="rounded=0;whiteSpace=wrap;html=1;" parent="1" vertex="1">
          <mxGeometry x="660" y="690" width="120" height="60" as="geometry" />
        </mxCell>
        <mxCell id="vH1DzTLoHbvqbGa9TRak-44" value="" style="endArrow=classic;html=1;rounded=0;exitX=0.5;exitY=0;exitDx=0;exitDy=0;entryX=0.864;entryY=0.997;entryDx=0;entryDy=0;entryPerimeter=0;" parent="1" source="vH1DzTLoHbvqbGa9TRak-43" target="vH1DzTLoHbvqbGa9TRak-32" edge="1">
          <mxGeometry width="50" height="50" relative="1" as="geometry">
            <mxPoint x="340" y="640" as="sourcePoint" />
            <mxPoint x="390" y="590" as="targetPoint" />
          </mxGeometry>
        </mxCell>
        <mxCell id="xXGsGXtBr5sMiY1rGHeB-2" value="" style="shape=image;verticalLabelPosition=bottom;labelBackgroundColor=default;verticalAlign=top;aspect=fixed;imageAspect=0;image=data:image/png,iVBORw0KGgoAAAANSUhEUgAAASwAAAEsCAYAAAB5fY51AAASbklEQVR4Xu3dW6ylZ1nA8XdqDW2GoEUUEdRoiiQGJzFGetOEOzDceEGvNMYLTVSkUoPUEi5ArcGoxARuKIkJYjRBjBCTktAz0FaYprUna+2khM7M7pzPs+e4D+ZbdNrSzsy717PXWu/7zPdrwhXvs/az/v9v/bPW2nvW2lL8hwACCCQhsCXJntZEAAEEimC5CBBAIA0BwUqjyqIIICBYrgEEEEhDQLDSqLIoAggIlmsAAQTSEBCsNKosigACguUaQACBNAQEK40qiyKAgGC5BhBAIA0BwUqjyqIIICBYrgEEEEhDQLDSqLIoAggIlmsAAQTSEBCsNKosigACguUaQACBNAQEK40qiyKAgGC5BhBAIA0BwUqjyqIIICBYrgEEEEhDQLDSqLIoAggIlmsAAQTSEBCsNKosigACguUaQACBNAQEK40qiyKAgGC5BhBAIA0BwUqjyqIIICBYrgEEEEhDQLDSqLIoAggIlmsAAQTSEBCsNKosigACguUaQACBNAQEK40qiyKAgGC5BhBAIA0BwUqjyqIIICBYrgEEEEhDQLDSqLIoAggIlmsAAQTSEBCsNKosigACguUaQACBNAQEK40qiyKAgGC5BhBAIA0BwUqjyqIIICBYrgEEEEhDQLDSqLIoAggIlmsAAQTSEBCsNKosigACguUaQACBNAQEK40qiyKAgGC5BhBAIA0BwUqjyqIIICBYrgEEEEhDQLDSqLIoAggIlmsAAQTSEBCsNKosigACguUaQACBNAQEK40qiyKAgGC5BhBAIA0BwUqjyqIIICBYrgEEEEhDoBqsb3xy20+tv+na30pzjyyKAAIpCWw5fvpf3/8XT+6/3PLVYP3n3/7qB9/1sz/+7ykJWBoBBNIQeHbnsQ/+5p8/9h+ClUaZRREYLwHBGq979xyBdAQEK50yCyMwXgKCNV737jkC6QgIVjplFkZgvAQEa7zu3XME0hEQrHTKLIzAeAkI1njdu+cIpCMgWOmUWRiB8RIQrPG6d88RSEdAsNIpszAC4yUgWON1754jkI6AYKVTZmEExktAsMbr3j1HIB0BwUqnzMIIjJeAYI3XvXuOQDoCgpVOmYURGC8BwRqve/ccgXQEBCudMgsjMF4CgjVe9+45AukICFY6ZRZGYLwEBKux+59//xfKG667fuFbLH3ztrK8Z/umfu6Wq68p77zp65u6jejwjq98oKyvnomOT+a2vu2G8vb3fnpTtxEZPntkR3nhG38QGR39jGA1vgQEKyZAsGLcsk8JVmODghUTIFgxbtmnBKuxQcGKCRCsGLfsU4LV2KBgxQQIVoxb9inBamxQsGICBCvGLfuUYDU2KFgxAYIV45Z9SrAaGxSsmADBinHLPiVYjQ0KVkyAYMW4ZZ8SrMYGBSsmQLBi3LJPCVZjg4IVEyBYMW7ZpwSrsUHBigkQrBi37FOC1digYMUECFaMW/YpwWpsULBiAgQrxi37lGA1NihYMQGCFeOWfUqwGhsUrJgAwYpxyz4lWI0NClZMgGDFuGWfEqzGBgUrJkCwYtyyTwlWY4OCFRMgWDFu2acEq7FBwYoJEKwYt+xTgtXYoGDFBAhWjFv2KcFqbFCwYgIEK8Yt+5RgNTYoWDEBghXjln1KsBobFKyYAMGKccs+JViNDQpWTIBgxbhlnxKsxgYFKyZAsGLcsk8JVmODghUTIFgxbtmnBKuxQcGKCRCsGLfsU4LV2KBgxQQIVoxb9inBamxQsGICBCvGLfuUYDU2KFgxAYIV45Z9SrAaGxSsmADBinHLPiVYjQ0KVkyAYMW4ZZ8SrMYGBSsmQLBi3LJPCVZjg4IVEyBYMW7Zp664YG396V8rq+dOlDOHn0vhRrBimgSrlDf9wvvKqX2Pl5VT+2MQE05dccF64ztuLG99z61l1z0fLueO7+xeiWDFFAlWKW/+5d8uP/aLHyg77/5QWT17LAYy2dQVGayfufEvy8qZo2XXPTeX8yeXulYiWDE9gvWDYL1l2++Vs8deKLvu/ZOydu5EDGaiqSs2WIODldOHys57bi4ry3u7VSJYMTWC9UqwBoJnjz4/udbXV87EgCaZuqKDNTg4f2p/2XnXh8rqmcNdKhGsmBbB+uFgDRRPH3ym7L7/o2V99WwMaoKpKz5Yg4NzJ3ZPXh72+DpfsGKPEsF6fbAGkqf2P1F2P/CxUtZWYmA7nxpFsCZPmYfX+fd8uKydX+5KiWDFdAjWxYM10Fx+8btl6dufKGV9LQa346nRBGtwMPypw677bunqdb5gxR4dgnXpYA1ET+5+sLz40KeuuGiNKlgvv86/70/L+tr52CNlxlOCFQMqWJcP1kD1xM77y56H/yoGuNOp0QVr8pR576Nl6Vsf7+J1vmDFHhmCVQ/WQPbY83eWfY98Jga5w6lRBqun1/mCFXtUCNbGgjXQPfLcV8uBxz4XA93Z1GiD9cpT5ttLKevNtAhWDL1gbTxYA+FDT//T5H/Z/xt1sAZ5x79/V9n7nb9p5lGwYugFa7pgDZT3P/rZcnTH12LAO5kafbBav84XrNgjQbCmD9ZAeu/2vy/Hv/f1GPQOpgTrJQmHn/1yOfj4HQtXIlgx5IIVC9b6+vrkN4cndz0QA994SrBeJeDgk/9YDj/zLwtVIlgx3IIVC9ZAe31tdfI3WstLD8XgN5wSrNfAX/TrfMGKXf2CFQ/WhWgNfw1/as/2mIBGU4J1EfB7/uvT5cQLdy9EiWDFMAvW5oI1idbq+cm/Ozx94MmYhAZTgnUR6Ovra2XPw7cv5HW+YMWuesHafLAG8msrZyaf8HDm0P/GRCx4SrAuAXx4nb+Ip8yCFbviBWs2wZpE6/zpyWdpnTv2vZiMBU4J1mVgD0+Zh3/Cc2rfY3NTIlgxtII1u2ANBlbPHp98amnvHysuWJXHy9rqubL0wK1ze50vWIIVIzDbYA07DB8rPnw+fM+f0CtYG7hahtf5u+79SDl7ZMcGTk93RLCm43XhtGdYsw/WwHb4hN5dd99cVk4fiImZ85RgbRDw6rmTZde9t8z8db5gbVDAa44J1nyCNYnWyT3dfhOPYE3xeBle5++8+49n+k08gjWFgFcdFaz5BWvA3Os38QjWlI+XWX8Tj2BNKeCl44I132BNonX0+cmrip4+VlywAo+XWX4Tj2AFBJRSBGv+wRrMTD5W/N6PdPNNPIIVeLzM8o1JwQoIEKwJtAtfpBojuLGp3r4HQbA25u3lU14SvgJsy9XXlHfe1OajSjzDmn+wvCScMg6R4298x41l+Kr6efw3/J3K8P2G508uzezmPcOKoRSs+QbLm+6x63LqqXkFa15/CSxYUyueDAjW/ILV8xcPe0m4gcfLvP4Ga/jRgrUBARc5IljzCdbkb7CGb0k/czgmZs5TglUBPM+/ches+NUtWLMP1ix/mRQ3e/lJwboMn3n/O0LBil/WgjXbYM36l0lxs4IVYreIT2oQrJAa72G9hG1Wf9Ywj3/BETcrWFOzW9RnYQnW1GpeHvAMazbPsOb5/mzc7qUnvSR8DZtFf0C/N91jl7VgbT5Ywwf37brvlrl8CknMan1KsF7FaJEfjXzhxwpW/SK92AnB2lywsn008oVrQLBeIjF8X9vwDdCL+vIJwYqF6sKUYMWDtYhfJm3OrpeEVX6tvhHXM6yqmoseEKxYsBb1y6SY1fqUZ1illAP//fly5P/+rU5rDicEKwZVsKYP1iJ/mRSzWp8afbAOPfXFcuh/vlQnNacTghUDK1jTBWt4f/bFBz+Z8tueX32FjDpYh5/9cjn4+B2xR8yMpgQrBlKwNh6sVu/Pxsxefmq0wTry3FfLgcc+Nw+mU92mYE2F6+XDgrXxYLV6fzZmVrBeR+DY83eWfY98Zh48p75NwZoa2WRAsDYWrP2PfrYc3fG1GOQOp0b3DOv49++a/PlCL/8JVsyEYNWD1fKXSTGr9alRBevk7gcnbzyWsl4ns6ATghUDLViXD9ahp79UDj39xRjcjqdGE6zlF79blr79iVLW17rSIVgxHYJ16WD18MukmNX61CiCtbz30bL0rY+XsrZSJ7LgE4IVAy5YFw9WT+/PxsyO/E33U/ufKEsP3FrW187Pg9+mb1OwYggF6/XB6u392ZjZEQfr9MFnyu77P9rNd6pdTIVgxS5rwfrhYJ3YeX/Z8/DtXb0/GzM70mD19n1ql9IgWLHLWrBeCdbkl0kPfaq792djZkcYrJ949+929xXbgjXby1ewfhCsa9/y7i5/mTRb26/c2hX3pvsbrru+rJw6WFbPHp0Xs5ne7s+97/Plmjf/0kxvcyM3tvTN28rynu0bOXrJM1ddfW25/qY7N3Ub0eEdX/mNsr56Ljo+mdv6tveUt7938X+TNzz733nXH25q92H42p/8lXL6wFObvp1MN3DFBSsT/GFXLwljxjzDinHLPiVYjQ0KVkyAYMW4ZZ8SrMYGBSsmQLBi3LJPCVZjg4IVEyBYMW7ZpwSrsUHBigkQrBi37FOC1digYMUECFaMW/YpwWpsULBiAgQrxi37lGA1NihYMQGCFeOWfUqwGhsUrJgAwYpxyz4lWI0NClZMgGDFuGWfEqzGBgUrJkCwYtyyTwlWY4OCFRMgWDFu2acEq7FBwYoJEKwYt+xTgtXYoGDFBAhWjFv2KcFqbFCwYgIEK8Yt+5RgNTYoWDEBghXjln1KsBobFKyYAMGKccs+JViNDQpWTIBgxbhlnxKsxgYFKyZAsGLcsk8JVmODghUTIFgxbtmnBKuxQcGKCRCsGLfsU4LV2KBgxQQIVoxb9inBamxQsGICBCvGLfuUYDU2KFgxAYIV45Z9SrAaGxSsmADBinHLPiVYjQ0KVkyAYMW4ZZ8SrMYGBSsmQLBi3LJPCVZjg4IVEyBYMW7ZpwSrsUHBigkQrBi37FOC1digYMUECFaMW/YpwWpsULBiAgQrxi37lGA1NihYMQGCFeOWfUqwGhsUrJgAwYpxyz4lWI0NClZMgGDFuGWfEqzGBgUrJkCwYtyyTwlWdoP2R2BEBARrRLLdVQSyExCs7Abtj8CICAjWiGS7qwhkJyBY2Q3aH4ERERCsEcl2VxHITkCwshu0PwIjIiBYI5LtriKQnYBgZTdofwRGRECwRiTbXUUgOwHBym7Q/giMiIBgjUi2u4pAdgKCld2g/REYEQHBGpFsdxWB7AQEK7tB+yMwIgKCNSLZ7ioC2QkIVnaD9kdgRAQEa0Sy3VUEshOYSbDu+LNtN/zIj275TnYY9kcAgc4JnCk3/P4/PLH9cltuqd2Fv/6jd227qlz1RO2c/x8BBBDYDIEtq+vbbvvCs08J1mYomkUAgYUQEKyFYPZDEEBgFgQEaxYU3QYCCCyEgGAtBLMfggACsyAgWLOg6DYQQGAhBARrIZj9EAQQmAUBwZoFRbeBAAILISBYC8HshyCAwCwICNYsKLoNBBBYCAHBWghmPwQBBGZBYCbB+rvfeevWla3X/fosFnIbCCCAwKUIXL185JGP/fO+5csRqv5bQngRQACBXggIVi8m7IEAAlUCglVF5AACCPRCQLB6MWEPBBCoEhCsKiIHEECgFwKC1YsJeyCAQJWAYFUROYAAAr0QEKxeTNgDAQSqBASrisgBBBDohYBg9WLCHgggUCUgWFVEDiCAQC8EBKsXE/ZAAIEqAcGqInIAAQR6ISBYvZiwBwIIVAkIVhWRAwgg0AsBwerFhD0QQKBKQLCqiBxAAIFeCAhWLybsgQACVQKCVUXkAAII9EJAsHoxYQ8EEKgSEKwqIgcQQKAXAoLViwl7IIBAlYBgVRE5gAACvRAQrF5M2AMBBKoEBKuKyAEEEOiFgGD1YsIeCCBQJSBYVUQOIIBALwQEqxcT9kAAgSoBwaoicgABBHohIFi9mLAHAghUCQhWFZEDCCDQCwHB6sWEPRBAoEpAsKqIHEAAgV4ICFYvJuyBAAJVAoJVReQAAgj0QkCwejFhDwQQqBIQrCoiBxBAoBcCgtWLCXsggECVgGBVETmAAAK9EBCsXkzYAwEEqgQEq4rIAQQQ6IWAYPViwh4IIFAlIFhVRA4ggEAvBASrFxP2QACBKgHBqiJyAAEEeiEgWL2YsAcCCFQJCFYVkQMIINALAcHqxYQ9EECgSkCwqogcQACBXggIVi8m7IEAAlUCglVF5AACCPRCQLB6MWEPBBCoEhCsKiIHEECgFwKC1YsJeyCAQJWAYFUROYAAAr0QEKxeTNgDAQSqBASrisgBBBDohYBg9WLCHgggUCUgWFVEDiCAQC8EBKsXE/ZAAIEqAcGqInIAAQR6IfD/z6WRLOQCNBkAAAAASUVORK5CYII=;" parent="1" vertex="1">
          <mxGeometry x="450" y="285" width="80" height="80" as="geometry" />
        </mxCell>
        <mxCell id="xXGsGXtBr5sMiY1rGHeB-3" value="" style="endArrow=classic;html=1;rounded=0;entryX=0;entryY=0.5;entryDx=0;entryDy=0;" parent="1" source="vH1DzTLoHbvqbGa9TRak-26" target="xXGsGXtBr5sMiY1rGHeB-2" edge="1">
          <mxGeometry width="50" height="50" relative="1" as="geometry">
            <mxPoint x="390" y="440" as="sourcePoint" />
            <mxPoint x="440" y="390" as="targetPoint" />
          </mxGeometry>
        </mxCell>
        <mxCell id="3lVIlOftjxZBqHfh3FVf-1" value="Config server" style="rounded=0;whiteSpace=wrap;html=1;" vertex="1" parent="1">
          <mxGeometry x="500" y="690" width="120" height="60" as="geometry" />
        </mxCell>
        <mxCell id="3lVIlOftjxZBqHfh3FVf-3" value="" style="endArrow=classic;html=1;rounded=0;" edge="1" parent="1" source="3lVIlOftjxZBqHfh3FVf-1" target="vH1DzTLoHbvqbGa9TRak-31">
          <mxGeometry width="50" height="50" relative="1" as="geometry">
            <mxPoint x="390" y="610" as="sourcePoint" />
            <mxPoint x="440" y="560" as="targetPoint" />
            <Array as="points">
              <mxPoint x="560" y="790" />
              <mxPoint x="70" y="790" />
            </Array>
          </mxGeometry>
        </mxCell>
        <mxCell id="3lVIlOftjxZBqHfh3FVf-4" value="" style="endArrow=classic;html=1;rounded=0;" edge="1" parent="1" target="xXGsGXtBr5sMiY1rGHeB-2">
          <mxGeometry width="50" height="50" relative="1" as="geometry">
            <mxPoint x="560" y="690" as="sourcePoint" />
            <mxPoint x="440" y="460" as="targetPoint" />
            <Array as="points">
              <mxPoint x="560" y="550" />
              <mxPoint x="490" y="550" />
              <mxPoint x="490" y="450" />
            </Array>
          </mxGeometry>
        </mxCell>
      </root>
    </mxGraphModel>
  </diagram>
</mxfile>
